<svg width="78" height="78" viewBox="0 0 78 78" fill="none" xmlns="http://www.w3.org/2000/svg">
<path d="M57.183 35.5276C62.3906 35.5276 66.6151 31.3061 66.6151 26.0985C66.6151 20.8909 62.3906 16.6694 57.183 16.6694" stroke="white" stroke-width="2.7" stroke-linecap="round" stroke-linejoin="round"/>
<path d="M61.5187 45.7759C63.0738 45.8831 64.62 46.1036 66.1424 46.4462C68.2576 46.8603 70.8018 47.7272 71.7074 49.625C72.2854 50.8405 72.2854 52.2556 71.7074 53.474C70.8048 55.3718 68.2576 56.2357 66.1424 56.6707" stroke="white" stroke-width="2.7" stroke-linecap="round" stroke-linejoin="round"/>
<path d="M20.4422 35.5276C15.2346 35.5276 11.0101 31.3061 11.0101 26.0985C11.0101 20.8909 15.2346 16.6694 20.4422 16.6694" stroke="white" stroke-width="2.7" stroke-linecap="round" stroke-linejoin="round"/>
<path d="M16.106 45.7759C14.5509 45.8831 13.0047 46.1036 11.4823 46.4462C9.36711 46.8603 6.8229 47.7272 5.92022 49.625C5.33928 50.8405 5.33928 52.2556 5.92022 53.474C6.81992 55.3718 9.36711 56.2357 11.4823 56.6707" stroke="white" stroke-width="2.7" stroke-linecap="round" stroke-linejoin="round"/>
<path fill-rule="evenodd" clip-rule="evenodd" d="M38.7975 47.8069C49.3497 47.8069 58.3647 49.4037 58.3647 55.7941C58.3647 62.1814 49.4093 63.8378 38.7975 63.8378C28.2423 63.8378 19.2303 62.241 19.2303 55.8507C19.2303 49.4604 28.1857 47.8069 38.7975 47.8069Z" stroke="white" stroke-width="2.7" stroke-linecap="round" stroke-linejoin="round"/>
<path fill-rule="evenodd" clip-rule="evenodd" d="M38.7968 38.691C31.8375 38.691 26.2575 33.111 26.2575 26.1487C26.2575 19.1894 31.8375 13.6094 38.7968 13.6094C45.7562 13.6094 51.3361 19.1894 51.3361 26.1487C51.3361 33.111 45.7562 38.691 38.7968 38.691Z" stroke="white" stroke-width="2.7" stroke-linecap="round" stroke-linejoin="round"/>
</svg>
