<svg width="69" height="73" viewBox="0 0 69 73" fill="none" xmlns="http://www.w3.org/2000/svg">
<path d="M62.1902 25.2455H62.0788C60.5364 25.251 59.0538 25.8442 57.9333 26.9035C57.0587 24.3482 54.7389 22.5177 52.0136 22.5177C50.3255 22.5397 48.7213 23.2559 47.5794 24.4987C46.5476 22.3214 44.4167 20.8614 41.9605 20.8614H41.8419C40.4284 20.8614 39.0523 21.2822 38.1129 22.1189V6.6372C38.1129 2.97732 35.275 0 31.8114 0C28.3516 0 25.5247 2.97488 25.5222 6.63231L25.4953 37.2508L23.6379 34.9927C22.1431 33.1316 19.9419 31.9756 17.5615 31.8007C15.2288 31.6411 12.9341 32.4533 11.2209 34.0447L9.72433 35.2863C9.2699 35.663 9.14024 36.3058 9.4124 36.8288L23.9669 64.772C26.6146 69.8588 31.6512 73 37.111 73H53.4356C61.7137 73 68.4555 65.8448 68.4641 57.026C68.4677 53.086 68.472 50.1552 68.4745 47.768C68.483 41.3406 68.4861 38.9376 68.4696 31.8625C68.461 28.2124 65.6445 25.2455 62.1902 25.2455V25.2455ZM65.9693 47.7742C65.9668 50.1613 65.9626 53.0835 65.9589 57.0235C65.9516 64.462 60.3339 70.4949 53.4356 70.4949H37.111C32.5882 70.4949 28.4029 67.8705 26.1883 63.6161L12.1004 36.5603L12.8429 35.9499C12.8588 35.9364 12.8753 35.9248 12.8906 35.9101C14.0998 34.7725 15.7279 34.1884 17.3848 34.2991C19.0771 34.4288 20.6404 35.2563 21.6991 36.5835L25.7718 41.5418C26.1075 41.9504 26.6635 42.1039 27.1614 41.9259C27.6592 41.748 27.9919 41.2764 27.9925 40.7474L28.0164 6.63476C28.0176 4.35834 29.732 2.50577 31.8127 2.50577C33.8927 2.50577 35.6077 4.35895 35.6077 6.6372V27.2081C35.6077 27.2791 35.6046 27.35 35.6046 27.4216C35.6046 27.4528 35.6077 27.4821 35.6077 27.5121V36.3089C35.6077 37.0006 36.1686 37.5615 36.8603 37.5615C37.552 37.5615 38.1129 37.0006 38.1129 36.3089V27.2503C38.1129 25.0522 39.8138 23.3666 41.8419 23.3666H41.9605C44.0412 23.3666 45.7849 25.1445 45.7849 27.4234V35.4698C45.7849 36.1615 46.3458 36.7223 47.0375 36.7223C47.7292 36.7223 48.2901 36.1615 48.2901 35.4698V29.1561C48.2901 26.8779 49.961 25.0241 52.0539 25.0241C54.1352 25.0241 55.8055 26.8779 55.8055 29.1561V35.1126C55.8055 35.8043 56.3664 36.3652 57.0581 36.3652C57.7499 36.3652 58.3107 35.8043 58.3107 35.1126V31.8876C58.3107 29.6087 59.9975 27.7506 62.0788 27.7506H62.1902C64.266 27.7506 65.9595 29.6014 65.9644 31.8729C65.9809 38.9437 65.9779 41.3498 65.9693 47.7742V47.7742Z" fill="white"/>
<path d="M42.4965 12.4064H58.7305L55.8199 15.3171C55.4957 15.6321 55.3661 16.0969 55.481 16.5336C55.596 16.9709 55.9373 17.3122 56.3746 17.4272C56.8113 17.5415 57.2761 17.4119 57.5911 17.0877L62.6216 12.0578C63.1109 11.5685 63.1109 10.7753 62.6216 10.2866L57.5911 5.25672C57.1012 4.77232 56.3122 4.77477 55.8254 5.26161C55.3379 5.74906 55.3355 6.53804 55.8199 7.02794L58.6932 9.90129H42.4965C41.8048 9.90129 41.244 10.4621 41.244 11.1539C41.244 11.8456 41.8048 12.4064 42.4965 12.4064V12.4064Z" fill="white"/>
<path d="M4.80024 12.4064H20.8899C21.5816 12.4064 22.1425 11.8456 22.1425 11.1539C22.1425 10.4621 21.5816 9.90129 20.8899 9.90129H4.83755L7.7109 7.02794C8.19529 6.53804 8.19285 5.74906 7.70539 5.26161C7.21855 4.77477 6.42957 4.77232 5.93967 5.25672L0.909171 10.2866C0.420494 10.7759 0.420494 11.5692 0.909171 12.0578L5.93967 17.0877C6.25526 17.4076 6.71825 17.5336 7.1525 17.418C7.58674 17.303 7.92557 16.9636 8.04117 16.5293C8.15676 16.0951 8.03077 15.6327 7.7109 15.3165L4.80024 12.4064Z" fill="white"/>
</svg>
