<svg width="383" height="327" viewBox="0 0 383 327" fill="none" xmlns="http://www.w3.org/2000/svg">
<path d="M164.877 246.352C201.703 235.054 225.331 226.496 252.225 226.198C252.225 226.198 290.531 230.835 306.382 226.198C352.729 212.617 356.766 163.157 331.743 126.642C305.832 88.8274 259.199 99.6189 259.199 99.6189C203.383 109.249 166.145 98.6261 146.669 89.7804C131.062 82.7118 112.199 85.3427 100.174 97.0376C97.4649 99.5614 95.3452 102.587 93.9496 105.923C76.8202 149.993 96.5491 193.059 103.587 219.358C106.186 229.107 128.039 257.65 164.877 246.352Z" stroke="#263238" stroke-linecap="round" stroke-linejoin="round" stroke-dasharray="2 2"/>
<path d="M181.931 64.0469C180.441 80.547 178.877 97.2753 179.268 113.765C180.187 153.715 184.456 193.535 187.162 233.396C188.778 257.153 189.5 262 187.162 287.5C182.396 309.629 173.569 323.862 149 325.5C121.959 327.307 108.331 307.357 111.279 283.5C113.487 265.63 110.602 267.756 111.279 249.747C112.177 225.503 82.0182 228.63 62.4161 213.014C39.3479 194.667 16.5756 170.275 9.87604 141.841C7.94224 133.671 7.44559 124.964 10.6686 117.111C25.2619 81.6489 87.2067 72.7437 111.279 102.885C136.08 133.959 126.305 179.15 166.894 183.389C207.482 187.628 247.321 171.386 286.409 162.203C325.497 153.02 369.086 175.626 362.323 223.636C355.56 271.647 292.421 270.297 263.108 237.059C233.795 203.821 247.321 136.073 253.333 109.199C256.641 94.4657 265.137 81.2419 272.587 68.0975C278.452 57.7328 285.849 46.9115 283.947 34.6705C278.335 -1.41706 214.203 -11.6228 194.707 19.5207C194.686 19.5604 184.784 32.3574 181.931 64.0469Z" stroke="#263238" stroke-linecap="round" stroke-linejoin="round" stroke-dasharray="2 2"/>
<path d="M190.353 222.799C180.471 222.799 170.994 218.87 164.006 211.878C157.018 204.885 153.093 195.401 153.093 185.512V185.512C153.093 175.623 157.018 166.139 164.006 159.147C170.994 152.154 180.471 148.226 190.353 148.226V148.226C200.235 148.226 209.712 152.154 216.699 159.147C223.687 166.139 227.613 175.623 227.613 185.512C227.613 195.401 223.687 204.885 216.699 211.878C209.712 218.87 200.235 222.799 190.353 222.799V222.799Z" fill="#263238" stroke="#263238" stroke-miterlimit="10"/>
<path d="M204.956 154.954C208.45 156.623 211.631 158.88 214.361 161.626" stroke="white" stroke-width="0.75" stroke-linecap="round" stroke-linejoin="round"/>
<path d="M169.378 158.929C170.149 158.315 170.963 157.734 171.808 157.173C176.315 154.216 181.463 152.379 186.823 151.816C192.183 151.253 197.6 151.98 202.622 153.937" stroke="white" stroke-width="0.75" stroke-linecap="round" stroke-linejoin="round"/>
<path d="M186.232 219.131C181.35 218.531 176.658 216.873 172.482 214.273C168.306 211.672 164.748 208.191 162.054 204.072V204.072C158.248 198.266 156.319 191.429 156.529 184.488C156.739 177.547 159.078 170.839 163.227 165.274" stroke="white" stroke-width="0.75" stroke-linecap="round" stroke-linejoin="round"/>
<path d="M198.745 218.338C196.543 218.919 194.288 219.273 192.014 219.394" stroke="white" stroke-width="0.75" stroke-linecap="round" stroke-linejoin="round"/>
<path d="M214.363 161.626C215.968 163.244 217.412 165.015 218.674 166.914V166.914C221.114 170.634 222.797 174.799 223.627 179.171C224.456 183.543 224.416 188.036 223.508 192.392C222.6 196.749 220.842 200.883 218.335 204.558C215.829 208.234 212.622 211.379 208.899 213.813C206.455 215.411 203.816 216.691 201.048 217.62" stroke="white" stroke-width="0.75" stroke-linecap="round" stroke-linejoin="round"/>
<path d="M344.74 222.799C334.858 222.799 325.381 218.87 318.394 211.878C311.406 204.885 307.48 195.401 307.48 185.512V185.512C307.48 175.623 311.406 166.139 318.394 159.147C325.381 152.154 334.858 148.226 344.74 148.226V148.226C354.622 148.226 364.1 152.154 371.087 159.147C378.075 166.139 382 175.623 382 185.512V185.512C382 195.401 378.075 204.885 371.087 211.878C364.1 218.87 354.622 222.799 344.74 222.799V222.799Z" fill="#263238" stroke="#263238" stroke-miterlimit="10"/>
<path d="M327.019 214.351C323.721 212.322 320.796 209.739 318.375 206.716" stroke="white" stroke-width="0.75" stroke-linecap="round" stroke-linejoin="round"/>
<path d="M362.82 214.171C361.974 214.699 361.108 215.228 360.21 215.662C355.416 218.123 350.105 219.402 344.717 219.393C339.33 219.383 334.022 218.086 329.237 215.609" stroke="white" stroke-width="0.75" stroke-linecap="round" stroke-linejoin="round"/>
<path d="M352.465 152.531C357.256 153.643 361.746 155.789 365.621 158.82C369.496 161.85 372.663 165.691 374.899 170.075V170.075C378.066 176.252 379.258 183.255 378.313 190.133C377.368 197.011 374.331 203.432 369.615 208.524" stroke="white" stroke-width="0.75" stroke-linecap="round" stroke-linejoin="round"/>
<path d="M339.911 151.981C342.164 151.654 344.444 151.559 346.716 151.695" stroke="white" stroke-width="0.75" stroke-linecap="round" stroke-linejoin="round"/>
<path d="M318.375 206.715C316.946 204.926 315.7 202.999 314.655 200.963C312.624 197.005 311.393 192.685 311.032 188.251C310.672 183.817 311.188 179.355 312.552 175.121C313.917 170.886 316.102 166.963 318.983 163.575C321.864 160.186 325.385 157.4 329.343 155.375V155.375C331.942 154.043 334.702 153.051 337.554 152.425" stroke="white" stroke-width="0.75" stroke-linecap="round" stroke-linejoin="round"/>
<path d="M38.2916 222.799C33.3959 222.803 28.5474 221.842 24.0231 219.97C19.4989 218.098 15.3876 215.352 11.9244 211.889C8.46112 208.426 5.71374 204.314 3.83927 199.789C1.9648 195.263 0.999998 190.412 1 185.512C0.999998 180.613 1.9648 175.762 3.83927 171.236C5.71374 166.71 8.46112 162.598 11.9244 159.136C15.3876 155.673 19.4989 152.927 24.0231 151.055C28.5474 149.183 33.3959 148.222 38.2916 148.226V148.226C48.1735 148.226 57.6507 152.154 64.6383 159.147C71.6259 166.139 75.5515 175.623 75.5515 185.512C75.5515 195.401 71.6259 204.885 64.6383 211.878C57.6507 218.87 48.1735 222.799 38.2916 222.799V222.799Z" fill="#263238" stroke="#263238" stroke-miterlimit="10"/>
<path d="M20.708 156.55C24.0121 154.53 27.6411 153.099 31.4337 152.32" stroke="white" stroke-width="0.75" stroke-linecap="round" stroke-linejoin="round"/>
<path d="M4.5399 188.517C4.45536 187.523 4.4131 186.529 4.4131 185.513C4.40911 180.121 5.69309 174.805 8.15802 170.01C10.623 165.214 14.1975 161.078 18.5837 157.945" stroke="white" stroke-width="0.75" stroke-linecap="round" stroke-linejoin="round"/>
<path d="M64.0863 207.403C60.9141 211.155 56.9633 214.17 52.5088 216.239C48.0542 218.308 43.2028 219.381 38.2918 219.384C31.3557 219.393 24.5847 217.267 18.8968 213.294C13.209 209.322 8.8794 203.695 6.49512 197.177" stroke="white" stroke-width="0.75" stroke-linecap="round" stroke-linejoin="round"/>
<path d="M70.2898 196.47C69.5591 198.628 68.6065 200.705 67.4473 202.666" stroke="white" stroke-width="0.75" stroke-linecap="round" stroke-linejoin="round"/>
<path d="M31.4336 152.33C33.6799 151.87 35.9671 151.64 38.26 151.643V151.643C47.2283 151.643 55.8293 155.208 62.1708 161.554C68.5123 167.9 72.075 176.507 72.075 185.482C72.077 188.405 71.7005 191.316 70.9549 194.143" stroke="white" stroke-width="0.75" stroke-linecap="round" stroke-linejoin="round"/>
<path d="M190.353 77.9153C180.471 77.9153 170.994 73.987 164.006 66.9944C157.018 60.0018 153.093 50.5179 153.093 40.6289V40.6289C153.093 30.7399 157.018 21.256 164.006 14.2634C170.994 7.27084 180.471 3.34247 190.353 3.34247V3.34247C200.235 3.34247 209.712 7.27084 216.699 14.2634C223.687 21.256 227.613 30.7399 227.613 40.6289C227.613 50.5179 223.687 60.0018 216.699 66.9944C209.712 73.987 200.235 77.9153 190.353 77.9153Z" fill="#263238" stroke="#263238" stroke-miterlimit="10"/>
<path d="M172.802 11.6541C176.107 9.63577 179.735 8.20471 183.527 7.42419" stroke="white" stroke-width="0.75" stroke-linecap="round" stroke-linejoin="round"/>
<path d="M156.643 43.621C156.559 42.6375 156.517 41.6329 156.517 40.6283C156.513 35.2357 157.797 29.9202 160.262 25.1247C162.726 20.3293 166.301 16.1929 170.687 13.0601" stroke="white" stroke-width="0.75" stroke-linecap="round" stroke-linejoin="round"/>
<path d="M216.18 62.5188C213.008 66.2779 209.052 69.2978 204.591 71.3673C200.13 73.4369 195.271 74.506 190.354 74.4999V74.4999C183.42 74.501 176.652 72.3721 170.966 68.4007C165.28 64.4293 160.948 58.8068 158.558 52.293" stroke="white" stroke-width="0.75" stroke-linecap="round" stroke-linejoin="round"/>
<path d="M222.393 51.5836C221.654 53.7386 220.702 55.8145 219.551 57.7803" stroke="white" stroke-width="0.75" stroke-linecap="round" stroke-linejoin="round"/>
<path d="M183.526 7.44606C185.773 6.98593 188.06 6.75562 190.353 6.7587V6.7587C199.321 6.7587 207.922 10.3239 214.264 16.6699C220.605 23.016 224.168 31.6231 224.168 40.5978C224.169 43.5209 223.792 46.4319 223.048 49.2585" stroke="white" stroke-width="0.75" stroke-linecap="round" stroke-linejoin="round"/>
<path d="M267.8 294.92C292.271 294.92 312.109 275.069 312.109 250.581C312.109 226.093 292.271 206.241 267.8 206.241C243.33 206.241 223.492 226.093 223.492 250.581C223.492 275.069 243.33 294.92 267.8 294.92Z" fill="#407BFF" stroke="#263238" stroke-miterlimit="10"/>
<path opacity="0.3" d="M267.8 294.92C292.271 294.92 312.109 275.069 312.109 250.581C312.109 226.093 292.271 206.241 267.8 206.241C243.33 206.241 223.492 226.093 223.492 250.581C223.492 275.069 243.33 294.92 267.8 294.92Z" fill="white" stroke="#263238" stroke-miterlimit="10"/>
<path d="M267.801 206.24C267.801 206.24 245.388 203.808 241.816 214.901C238.244 225.994 253.313 224.027 250.935 229.177C248.558 234.327 238.646 241.031 242.608 248.602C246.571 256.174 253.704 264.465 245.779 261.694C237.853 258.923 235.877 258.12 237.462 266.844C239.047 275.568 247.364 277.947 260.837 276.752C274.31 275.557 273.116 281.913 280.64 282.706C288.164 283.499 295.698 279.132 295.698 268.028C295.698 256.925 286.589 259.315 294.905 253.763C303.222 248.211 301.647 233.935 299.27 229.579C296.892 225.222 292.137 227.199 292.137 221.648C292.137 216.096 280.703 205.5 267.801 206.24Z" fill="#263238" stroke="#263238" stroke-miterlimit="10"/>
<path d="M255.468 211.422C255.468 211.422 247.172 210.312 247.447 215.567C247.722 220.823 262.114 231.07 275.672 231.355C289.23 231.641 290.603 224.704 288.67 223.319" stroke="white" stroke-width="0.75" stroke-linecap="round" stroke-linejoin="round"/>
<path d="M264.049 215.82C264.049 215.82 257.413 216.645 258.237 221.108C259.061 225.57 263.214 227.749 269.586 230.244" stroke="white" stroke-width="0.75" stroke-linecap="round" stroke-linejoin="round"/>
<path d="M297.24 242.944C297.24 242.944 296.691 249.871 288.121 254.302C279.551 258.732 271.826 265.352 279.223 268.694C286.62 272.035 290.847 275.885 288.079 276.72" stroke="white" stroke-width="0.75" stroke-linecap="round" stroke-linejoin="round"/>
<path d="M254.919 263.428C254.919 263.428 251.6 271.179 246.623 269.772C241.646 268.366 239.977 264.485 243.305 264.485C246.634 264.485 246.898 266.145 246.898 266.145" stroke="white" stroke-width="0.75" stroke-linecap="round" stroke-linejoin="round"/>
<path d="M281.337 231.704C281.337 231.704 288.131 231.598 287.022 238.239C285.912 244.88 279.551 245.441 277.892 250.421" stroke="white" stroke-width="0.75" stroke-linecap="round" stroke-linejoin="round"/>
<path d="M267.801 294.961C277.746 294.973 287.403 291.619 295.202 285.444C292.095 283.149 286.558 279.099 283.335 276.984C278.675 273.875 272.461 264.2 264.166 265.923C257.509 267.319 239.692 274.996 232.908 277.978C237.053 283.276 242.35 287.558 248.396 290.501C254.441 293.443 261.078 294.969 267.801 294.961V294.961Z" fill="white" stroke="#263238" stroke-miterlimit="10"/>
<path d="M262.814 264.463C262.814 264.463 250.535 268.027 248.95 278.337C247.364 288.648 259.052 281.214 259.052 281.214C259.052 281.214 265.191 290.234 270.739 287.463C276.287 284.693 277.079 275.165 273.909 268.82C270.739 262.475 262.814 264.463 262.814 264.463Z" fill="white" stroke="#263238" stroke-miterlimit="10"/>
<path d="M262.486 256.892C262.551 260.27 262.091 263.638 261.123 266.875C259.569 271.665 254.508 278.264 259.009 281.225C263.511 284.186 269.281 274.764 270.781 266.854C272.282 258.944 273.37 249.49 273.37 249.49L262.486 256.892Z" fill="white"/>
<g style="mix-blend-mode:multiply" opacity="0.5">
<path d="M261.438 265.817C262.889 266.343 264.397 266.698 265.93 266.875C267.303 267.033 267.853 266.737 268.043 266.388C267.874 268.366 267.229 273.791 264.978 277.788C264.292 279.015 263.732 280.051 263.288 280.96C266.627 278.708 269.744 272.427 270.801 266.885C272.302 258.986 273.348 249.553 273.348 249.553L262.463 256.956C262.516 259.942 262.171 262.922 261.438 265.817V265.817Z" fill="#407BFF"/>
</g>
<path d="M262.486 256.892C262.551 260.27 262.091 263.638 261.123 266.875C259.569 271.665 254.508 278.264 259.009 281.225C263.511 284.186 269.281 274.764 270.781 266.854C272.282 258.944 273.37 249.49 273.37 249.49L262.486 256.892Z" stroke="#263238" stroke-miterlimit="10"/>
<path d="M255.838 226.226C255.838 226.226 252.034 242.088 252.034 248C252.034 253.911 257.466 261.144 264.356 261.747C273.147 262.455 276.381 250.633 278.283 243.897C279.932 238.049 281.052 232.994 281.326 231.746C267.959 236.801 255.838 226.226 255.838 226.226Z" fill="white"/>
<g style="mix-blend-mode:multiply" opacity="0.5">
<path d="M281.337 231.704C280.008 232.212 278.63 232.584 277.226 232.814C276.603 236.843 274.69 246.752 270.305 252.843C266.585 258.014 262.601 259.885 260.34 260.562C261.599 261.191 262.965 261.578 264.366 261.704C273.158 262.413 276.391 250.59 278.293 243.854" fill="#407BFF"/>
</g>
<path d="M255.838 226.226C255.838 226.226 252.034 242.088 252.034 248C252.034 253.911 257.466 261.144 264.356 261.747C273.147 262.455 276.381 250.633 278.283 243.897C279.932 238.049 281.052 232.994 281.326 231.746C267.959 236.801 255.838 226.226 255.838 226.226Z" stroke="#263238" stroke-miterlimit="10"/>
<path d="M263.087 237.456C262.603 239.182 261.843 240.817 260.836 242.299C259.463 244.023 256.525 242.468 257.391 243.505C257.87 244.112 258.47 244.613 259.152 244.977C259.834 245.341 260.584 245.56 261.354 245.62" stroke="#263238" stroke-linecap="round" stroke-linejoin="round"/>
<path d="M256.441 248.898C256.441 248.898 259.03 252.705 264.377 250.801" stroke="#263238" stroke-linecap="round" stroke-linejoin="round"/>
<path d="M260.572 236.229C260.414 237.17 259.864 237.868 259.346 237.773C258.829 237.678 258.533 236.853 258.691 235.912C258.85 234.971 259.399 234.283 259.917 234.368C260.435 234.453 260.731 235.288 260.572 236.229Z" fill="#263238"/>
<path d="M269.28 238.714C269.048 239.645 268.456 240.3 267.949 240.174C267.441 240.047 267.209 239.201 267.431 238.27C267.653 237.34 268.244 236.695 268.762 236.811C269.28 236.927 269.502 237.794 269.28 238.714Z" fill="#263238"/>
<path d="M257.033 231.577C257.033 231.577 258.418 228.298 262.56 230.202" stroke="#263238" stroke-linecap="round" stroke-linejoin="round"/>
<path d="M267.378 232.983C267.378 232.983 271.182 231.778 272.218 235.574" stroke="#263238" stroke-linecap="round" stroke-linejoin="round"/>
<path d="M113.561 294.919C138.032 294.919 157.869 275.067 157.869 250.579C157.869 226.091 138.032 206.239 113.561 206.239C89.0904 206.239 69.2529 226.091 69.2529 250.579C69.2529 275.067 89.0904 294.919 113.561 294.919Z" fill="#407BFF" stroke="#263238" stroke-miterlimit="10"/>
<path opacity="0.3" d="M113.561 294.919C138.032 294.919 157.869 275.067 157.869 250.579C157.869 226.091 138.032 206.239 113.561 206.239C89.0904 206.239 69.2529 226.091 69.2529 250.579C69.2529 275.067 89.0904 294.919 113.561 294.919Z" fill="white" stroke="#263238" stroke-miterlimit="10"/>
<path d="M85.8438 285.126C94.5329 292.131 105.545 295.593 116.676 294.821C127.807 294.048 138.236 289.098 145.876 280.96C140.888 274.53 130.67 263.511 119.299 263.511C106.682 263.511 91.698 278.58 85.8438 285.126Z" fill="white" stroke="#263238" stroke-miterlimit="10"/>
<path d="M108.657 260.234C108.657 260.234 101.144 261.091 100.5 266.896C99.855 272.702 104.357 282.367 104.79 283.435C105.223 284.503 114.881 274.848 118.527 274.848C122.173 274.848 131.62 279.998 131.62 279.998C131.62 279.998 128.619 267.964 123.251 263.449C117.883 258.933 110.147 258.51 108.657 260.234Z" fill="white" stroke="#263238" stroke-miterlimit="10"/>
<path opacity="0.5" d="M98.7782 238.916C98.7782 238.916 95.5552 235.69 93.8433 238.271C92.1315 240.851 93.6214 243.854 95.9568 245.789C98.2921 247.724 101.969 247.904 101.969 246.434C101.969 244.964 98.7782 238.916 98.7782 238.916Z" fill="#407BFF" stroke="#263238" stroke-miterlimit="10"/>
<path d="M98.7782 238.916C98.7782 238.916 95.5552 235.69 93.8433 238.271C92.1315 240.851 93.6214 243.854 95.9568 245.789C98.2921 247.724 101.969 247.904 101.969 246.434C101.969 244.964 98.7782 238.916 98.7782 238.916Z" stroke="#263238" stroke-miterlimit="10"/>
<path d="M126.485 231.439C126.485 231.439 127.986 227.569 130.131 231.651C132.276 235.733 128.197 239.381 128.197 239.381L126.485 231.439Z" fill="white" stroke="#263238" stroke-miterlimit="10"/>
<path d="M102.001 246.476C102.001 246.476 106.291 261.947 107.369 267.319C108.447 272.691 113.382 280.431 117.028 277.893C120.673 275.355 120.472 270.586 118.317 266.504C116.898 263.683 115.748 260.733 114.882 257.696L102.001 246.476Z" fill="white"/>
<g style="mix-blend-mode:multiply" opacity="0.5">
<path d="M118.317 266.462C116.898 263.64 115.748 260.691 114.882 257.653L102.001 246.476C102.001 246.476 105.52 259.165 106.978 265.51C108.841 266.966 110.959 268.06 113.223 268.736C115.181 269.271 117.27 269.033 119.056 268.069C118.844 267.519 118.597 266.982 118.317 266.462V266.462Z" fill="#407BFF"/>
</g>
<path d="M102.001 246.476C102.001 246.476 106.291 261.947 107.369 267.319C108.447 272.691 113.382 280.431 117.028 277.893C120.673 275.355 120.472 270.586 118.317 266.504C116.898 263.683 115.748 260.733 114.882 257.696L102.001 246.476Z" stroke="#263238" stroke-miterlimit="10"/>
<path d="M94.2976 230.36C94.2976 230.36 104.389 254.682 108.69 260.234C112.991 265.786 124.541 266.251 129.518 258.119C134.495 249.987 128.873 239 128.017 234.051C127.162 229.102 124.847 220.949 126.295 219.447C127.743 217.946 133.808 216.867 131.452 212.997C129.095 209.126 125.65 211.061 125.228 208.27C124.805 205.478 126.94 198.594 118.993 197.526C111.047 196.458 97.0873 205.901 91.5184 213.208C85.9495 220.515 84.1742 227.135 94.2976 230.36Z" fill="#263238" stroke="#263238" stroke-miterlimit="10"/>
<path d="M97.4675 223.054C97.4675 223.054 90.8524 222.557 94.1705 216.191C97.4886 209.825 119.627 201.249 119.902 205.955C120.176 210.661 115.199 212.046 115.199 212.046" stroke="white" stroke-width="0.75" stroke-linecap="round" stroke-linejoin="round"/>
<path d="M106.365 217.025C106.365 217.025 101.388 215.914 103.047 212.319C104.706 208.723 116.879 207.032 114.67 209.273C113.361 210.587 111.87 211.705 110.243 212.594" stroke="white" stroke-width="0.75" stroke-linecap="round" stroke-linejoin="round"/>
<path d="M122.395 244.975C122.395 244.975 118.75 250.77 112.948 247.978" stroke="white" stroke-width="0.75" stroke-linecap="round" stroke-linejoin="round"/>
<path d="M127.985 234.008C127.182 229.387 125.058 221.932 126.02 219.764C125.375 218.21 123.156 214.583 116.604 214.244C108.224 213.811 99.2106 218.538 97.4881 223.053C95.7657 227.568 99.8552 225.168 101.356 228.425C102.856 231.682 98.9886 235.521 99.8552 237.879C100.722 240.237 104.79 249.511 104.79 249.511C105.435 246.931 115.104 242.627 115.104 242.627C116.502 242.996 117.95 243.143 119.394 243.06C121.328 242.849 120.25 241.125 120.25 241.125L130.151 241.717C129.306 238.598 128.302 235.88 127.985 234.008Z" fill="white"/>
<g style="mix-blend-mode:multiply" opacity="0.5">
<path d="M105.117 224.777C104.716 220.547 101.947 219.711 100.109 219.637C98.967 220.547 98.0609 221.719 97.4668 223.053C95.755 227.568 99.8339 225.168 101.334 228.425C102.835 231.682 98.9674 235.521 99.8339 237.879C100.7 240.237 104.769 249.511 104.769 249.511C104.98 248.686 106.1 247.682 107.537 246.709C105.424 243.695 102.846 240.025 101.387 237.9C98.6398 233.829 105.741 231.333 105.117 224.777Z" fill="#407BFF"/>
</g>
<path d="M127.985 234.008C127.182 229.387 125.058 221.932 126.02 219.764C125.375 218.21 123.156 214.583 116.604 214.244C108.224 213.811 99.2106 218.538 97.4881 223.053C95.7657 227.568 99.8552 225.168 101.356 228.425C102.856 231.682 98.9886 235.521 99.8552 237.879C100.722 240.237 104.79 249.511 104.79 249.511C105.435 246.931 115.104 242.627 115.104 242.627C116.502 242.996 117.95 243.143 119.394 243.06C121.328 242.849 120.25 241.125 120.25 241.125L130.151 241.717C129.306 238.598 128.302 235.88 127.985 234.008Z" stroke="#263238" stroke-miterlimit="10"/>
<path d="M109.788 232.972C110.063 234.167 109.788 235.256 109.249 235.383C108.71 235.51 107.992 234.643 107.727 233.437C107.463 232.232 107.727 231.153 108.266 231.026C108.805 230.899 109.524 231.766 109.788 232.972Z" fill="#263238"/>
<path d="M122.574 230.339C122.849 231.545 122.574 232.623 122.036 232.75C121.497 232.877 120.778 232.01 120.503 230.804C120.229 229.599 120.503 228.52 121.053 228.393C121.602 228.266 122.3 229.134 122.574 230.339Z" fill="#263238"/>
<path d="M104.79 227.346C104.79 227.346 105.646 222.619 110.591 224.554" stroke="#263238" stroke-linecap="round" stroke-linejoin="round"/>
<path d="M123.886 222.409C120.23 220.04 118.94 223.466 118.94 223.466C118.94 223.466 116.626 226.004 117.567 230.689" stroke="#263238" stroke-linecap="round" stroke-linejoin="round"/>
<path d="M105.436 240.025L111.66 237.456" stroke="#263238" stroke-width="0.5" stroke-linecap="round" stroke-linejoin="round"/>
<path d="M120.473 235.521L125.619 235.088" stroke="#263238" stroke-width="0.5" stroke-linecap="round" stroke-linejoin="round"/>
<path d="M278.162 155.617C301.954 149.888 316.6 125.943 310.875 102.134C305.15 78.3258 281.222 63.6695 257.43 69.3986C233.638 75.1277 218.993 99.0728 224.718 122.881C230.443 146.69 254.371 161.346 278.162 155.617Z" fill="#407BFF" stroke="#263238" stroke-miterlimit="10"/>
<path opacity="0.3" d="M278.162 155.617C301.954 149.888 316.6 125.943 310.875 102.134C305.15 78.3258 281.222 63.6695 257.43 69.3986C233.638 75.1277 218.993 99.0728 224.718 122.881C230.443 146.69 254.371 161.346 278.162 155.617Z" fill="white" stroke="#263238" stroke-miterlimit="10"/>
<path d="M305.642 103.682C311.611 87.5774 302.867 69.481 286.112 63.2622C269.358 57.0433 250.937 65.057 244.968 81.1611C238.999 97.2653 247.743 115.362 264.497 121.58C281.252 127.799 299.673 119.786 305.642 103.682Z" fill="#263238" stroke="#263238" stroke-miterlimit="10"/>
<path d="M305.41 86.2592C306.875 91.4984 306.779 97.0518 305.135 102.238" stroke="white" stroke-width="0.75" stroke-linecap="round" stroke-linejoin="round"/>
<path d="M303.168 106.437C303.168 106.437 301.202 108.964 300.082 110.37" stroke="white" stroke-width="0.75" stroke-linecap="round" stroke-linejoin="round"/>
<path d="M257.223 72.7974C257.223 72.7974 252.743 78.0848 255.543 84.5777" stroke="white" stroke-width="0.75" stroke-linecap="round" stroke-linejoin="round"/>
<path d="M267.801 156.857C275.965 156.871 283.973 154.616 290.932 150.343C285.765 145.574 272.313 133.698 265.972 133.18C259.336 132.641 239.967 138.848 233.764 140.91C237.919 145.907 243.122 149.926 249.005 152.682C254.888 155.438 261.305 156.863 267.801 156.857Z" fill="white" stroke="#263238" stroke-miterlimit="10"/>
<path d="M274.341 138.773C274.521 138.244 274.679 137.716 274.848 137.282C271.446 135.019 268.244 133.369 265.972 133.179C263.214 133.151 260.462 133.467 257.782 134.12C256.609 137.293 256.303 140.465 255.352 145.869C254.063 153.176 255.996 155.323 261.365 152.531C266.733 149.739 272.196 145.213 274.341 138.773Z" fill="white" stroke="#263238" stroke-miterlimit="10"/>
<path d="M261.459 125.226C261.459 125.226 262.748 127.595 261.248 133.178C259.747 138.762 255.964 147.983 257.718 149.738C259.472 151.494 270.05 143.499 270.473 137.482C270.896 131.465 270.906 119.431 270.906 119.431L261.459 125.226Z" fill="white"/>
<g style="mix-blend-mode:multiply" opacity="0.5">
<path d="M261.957 128.844L268.741 134.131L268.223 142.591C269.425 141.122 270.204 139.352 270.474 137.472C270.907 131.455 270.907 119.421 270.907 119.421L261.46 125.216C261.919 126.367 262.09 127.612 261.957 128.844V128.844Z" fill="#407BFF"/>
</g>
<path d="M261.459 125.226C261.459 125.226 262.748 127.595 261.248 133.178C259.747 138.762 255.964 147.983 257.718 149.738C259.472 151.494 270.05 143.499 270.473 137.482C270.896 131.465 270.906 119.431 270.906 119.431L261.459 125.226Z" stroke="#263238" stroke-miterlimit="10"/>
<path d="M250.692 98.8009C250.692 98.8009 249.191 94.9305 247.257 97.7434C245.324 100.556 247.68 103.972 248.758 103.972C249.836 103.972 250.692 98.8009 250.692 98.8009Z" fill="white" stroke="#263238" stroke-miterlimit="10"/>
<path d="M255.658 86.3334C255.658 86.3334 249.434 98.5789 247.933 106.965C246.433 115.35 252.657 128.019 258.881 128.019C265.105 128.019 274.732 118.354 274.732 118.354C274.732 118.354 283.745 118.565 285.035 115.562C286.324 112.559 284.823 110.19 282.456 110.19H277.733C277.733 110.19 276.444 110.835 277.088 104.818C277.733 98.801 279.667 96.0093 279.667 96.0093C279.667 96.0093 263.372 97.2888 255.658 86.3334Z" fill="white"/>
<g style="mix-blend-mode:multiply" opacity="0.5">
<path d="M272.164 114.474C270.858 117.798 268.71 120.725 265.931 122.967C263.151 125.208 259.837 126.687 256.313 127.258H256.25C257.062 127.733 257.983 127.992 258.923 128.009C265.148 128.009 274.774 118.344 274.774 118.344C274.774 118.344 283.788 118.555 285.077 115.552C286.366 112.549 284.866 110.18 282.499 110.18H277.775C277.775 110.18 276.486 110.825 277.131 104.808C277.775 98.7912 279.709 95.9995 279.709 95.9995C279.709 95.9995 278.652 96.0735 276.909 95.9995H276.835" fill="#407BFF"/>
</g>
<path d="M255.658 86.3334C255.658 86.3334 249.434 98.5789 247.933 106.965C246.433 115.35 252.657 128.019 258.881 128.019C265.105 128.019 274.732 118.354 274.732 118.354C274.732 118.354 283.745 118.565 285.035 115.562C286.324 112.559 284.823 110.19 282.456 110.19H277.733C277.733 110.19 276.444 110.835 277.088 104.818C277.733 98.801 279.667 96.0093 279.667 96.0093C279.667 96.0093 263.372 97.2888 255.658 86.3334Z" stroke="#263238" stroke-miterlimit="10"/>
<path d="M256.801 100.038C256.547 101.159 256.019 101.995 255.628 101.91C255.237 101.826 255.131 100.853 255.385 99.7106C255.638 98.5685 256.167 97.7543 256.558 97.8389C256.949 97.9235 257.033 98.9069 256.801 100.038Z" fill="#263238"/>
<path d="M266.892 104.542C266.638 105.663 266.11 106.509 265.719 106.414C265.328 106.319 265.222 105.356 265.476 104.225C265.729 103.093 266.258 102.258 266.649 102.353C267.04 102.448 267.145 103.421 266.892 104.542Z" fill="#263238"/>
<path d="M258.448 102.883C258.448 102.883 253.724 106.32 254.369 107.177C256.132 108.694 258.298 109.664 260.604 109.968C262.537 109.968 262.104 107.61 262.104 107.61" stroke="#263238" stroke-linecap="round" stroke-linejoin="round"/>
<path d="M255.014 112.77C257.375 114.059 260.077 114.583 262.749 114.272C263.851 114.164 264.912 113.796 265.845 113.199C266.778 112.601 267.557 111.791 268.117 110.835" stroke="#263238" stroke-linecap="round" stroke-linejoin="round"/>
<path d="M255.447 94.9301C255.447 94.9301 256.736 92.1384 259.315 95.3637" stroke="#263238" stroke-linecap="round" stroke-linejoin="round"/>
<path d="M266.395 98.8013C266.395 98.8013 270.695 97.5112 270.695 101.805" stroke="#263238" stroke-linecap="round" stroke-linejoin="round"/>
<path d="M120.755 156.272C144.901 152.297 161.256 129.487 157.285 105.324C153.313 81.1601 130.519 64.7934 106.373 68.7677C82.2268 72.7419 65.8718 95.5521 69.8432 119.716C73.8147 143.879 96.6086 160.246 120.755 156.272Z" fill="#407BFF" stroke="#263238" stroke-miterlimit="10"/>
<path opacity="0.3" d="M120.755 156.272C144.901 152.297 161.256 129.487 157.285 105.324C153.313 81.1601 130.519 64.7934 106.373 68.7677C82.2268 72.7419 65.8718 95.5521 69.8432 119.716C73.8147 143.879 96.6086 160.246 120.755 156.272Z" fill="white" stroke="#263238" stroke-miterlimit="10"/>
<path d="M83.0755 135.008C82.3146 138.042 78.8486 137.619 79.9053 141.352C86.9855 149.646 96.8737 155.036 107.677 156.49C118.481 157.943 129.44 155.359 138.458 149.23C141.628 145.476 143.53 141.532 143.615 138.36C143.9 128.673 133.671 121.44 133.122 116.777C132.572 112.113 136.989 101.57 136.989 101.57C136.989 101.57 144.724 100.46 147.493 93.5546C150.262 86.6493 139.737 71.1151 130.332 66.4093C120.927 61.7036 105.182 65.8594 97.4468 77.1955C89.7116 88.5316 99.1059 98.493 94.1287 103.749C89.1516 109.004 76.1645 109.279 74.7802 119.79C73.3959 130.302 83.8997 131.687 83.0755 135.008Z" fill="#263238" stroke="#263238" stroke-miterlimit="10"/>
<path d="M130.364 76.9517C130.364 76.9517 133.164 83.8147 122.259 87.8648C111.354 91.9149 102.942 89.7366 100.131 96.9062C97.3205 104.076 99.5079 109.078 99.8249 112.768C100.142 116.459 91.3712 115.877 86.0876 120.562C80.804 125.246 91.3712 130.851 94.1926 133.971C97.014 137.09 96.3695 141.764 91.3817 143.329" stroke="white" stroke-width="0.75" stroke-linecap="round" stroke-linejoin="round"/>
<path d="M97.3311 91.3029C97.3311 91.3029 101.378 81.3204 107.613 79.7554C113.848 78.1903 120.706 82.8749 125.376 78.5075C130.047 74.1402 129.117 71.0312 125.683 68.5356" stroke="white" stroke-width="0.75" stroke-linecap="round" stroke-linejoin="round"/>
<path d="M135.035 81.0015C135.035 81.0015 145.951 88.1817 142.21 93.7969C138.469 99.4121 137.223 92.5491 137.223 92.5491" stroke="white" stroke-width="0.75" stroke-linecap="round" stroke-linejoin="round"/>
<path d="M89.5332 149.759C97.8104 155.112 107.636 157.549 117.453 156.683C127.27 155.817 136.518 151.699 143.732 144.979C140.47 141.98 137.01 139.203 133.376 136.668C126.465 131.962 120.939 130.323 117.071 130.577C117.071 130.577 114.028 131.962 108.227 137.492C104.443 141.098 95.3557 146.46 89.5332 149.759Z" fill="white" stroke="#263238" stroke-miterlimit="10"/>
<path d="M127.29 138.18C127.293 136.34 127.03 134.509 126.508 132.745C123.582 131.281 120.342 130.555 117.071 130.63C117.071 130.63 114.652 131.687 110.034 135.917C109.936 136.7 109.887 137.487 109.886 138.275C109.886 145.54 113.774 151.42 118.583 151.42C123.391 151.42 127.29 145.445 127.29 138.18Z" fill="white" stroke="#263238" stroke-miterlimit="10"/>
<path d="M114.851 116.47C114.851 116.47 114.851 124.221 114.027 131.412C113.202 138.603 114.301 146.344 119.553 146.894C124.805 147.443 123.97 135.008 123.421 130.027C123.095 126.902 123.095 123.751 123.421 120.626L114.851 116.47Z" fill="white"/>
<g style="mix-blend-mode:multiply" opacity="0.5">
<path d="M113.867 133.083L123.198 124.032C123.198 123.746 123.198 123.471 123.198 123.217L121.296 119.675L114.818 116.502C114.818 116.502 114.818 124.254 113.994 131.444C113.962 131.963 113.909 132.523 113.867 133.083Z" fill="#407BFF"/>
</g>
<path d="M114.851 116.47C114.851 116.47 114.851 124.221 114.027 131.412C113.202 138.603 114.301 146.344 119.553 146.894C124.805 147.443 123.97 135.008 123.421 130.027C123.095 126.902 123.095 123.751 123.421 120.626L114.851 116.47Z" stroke="#263238" stroke-miterlimit="10"/>
<path d="M133.65 81.9025C133.65 81.9025 134.2 85.4979 124.805 89.9287C115.411 94.3595 110.709 97.9444 109.884 102.09C109.06 106.235 108.775 107.906 108.775 107.906C108.775 107.906 106.841 104.025 103.248 105.96C99.6554 107.895 102.974 115.371 106.292 115.646C109.61 115.921 110.434 114.811 110.434 114.811C110.434 114.811 121.212 125.597 127.563 125.597C133.914 125.597 136.408 119.517 137.792 108.678C139.134 98.2722 133.65 81.9025 133.65 81.9025Z" fill="white"/>
<g style="mix-blend-mode:multiply" opacity="0.5">
<path d="M112.907 104.087C113.242 100.604 114.48 97.2685 116.5 94.4114C112.558 96.9916 110.413 99.4238 109.884 102.089C109.05 106.244 108.775 107.905 108.775 107.905C108.775 107.905 106.841 104.024 103.248 105.959C99.6554 107.894 102.974 115.37 106.292 115.645C109.61 115.92 110.434 114.81 110.434 114.81C110.434 114.81 121.212 125.596 127.563 125.596C125.678 124.658 123.905 123.509 122.28 122.17C118.518 119.421 112.6 110.961 112.907 104.087Z" fill="#407BFF"/>
</g>
<path d="M133.65 81.9025C133.65 81.9025 134.2 85.4979 124.805 89.9287C115.411 94.3595 110.709 97.9444 109.884 102.09C109.06 106.235 108.775 107.906 108.775 107.906C108.775 107.906 106.841 104.025 103.248 105.96C99.6554 107.895 102.974 115.371 106.292 115.646C109.61 115.921 110.434 114.811 110.434 114.811C110.434 114.811 121.212 125.597 127.563 125.597C133.914 125.597 136.408 119.517 137.792 108.678C139.134 98.2722 133.65 81.9025 133.65 81.9025Z" stroke="#263238" stroke-miterlimit="10"/>
<path d="M131.738 98.683C131.424 99.5403 131.294 100.454 131.356 101.365C131.418 102.276 131.67 103.163 132.097 103.97C133.545 106.688 134.274 107.587 133.735 108.317C133.58 108.567 133.378 108.785 133.139 108.958C132.9 109.13 132.63 109.254 132.343 109.322C132.057 109.389 131.76 109.4 131.469 109.353C131.178 109.305 130.9 109.201 130.649 109.046" stroke="#263238" stroke-linecap="round" stroke-linejoin="round"/>
<path d="M130.65 115.551C130.65 115.551 125.366 117.549 123.58 113.732" stroke="#263238" stroke-linecap="round" stroke-linejoin="round"/>
<path d="M125.398 102.764C125.398 103.917 125.07 104.879 124.669 104.879C124.267 104.879 123.95 103.949 123.95 102.764C123.95 101.58 124.267 100.649 124.669 100.649C125.07 100.649 125.398 101.612 125.398 102.764Z" fill="#263238"/>
<path d="M134.273 102.491C134.676 102.491 135.002 101.558 135.002 100.408C135.002 99.257 134.676 98.3243 134.273 98.3243C133.87 98.3243 133.544 99.257 133.544 100.408C133.544 101.558 133.87 102.491 134.273 102.491Z" fill="#263238"/>
<path d="M120.146 96.6961C120.146 96.6961 121.202 93.788 125.577 94.3379" stroke="#263238" stroke-linecap="round" stroke-linejoin="round"/>
<path d="M131.917 93.7874C131.917 93.7874 133.185 90.7102 135.901 93.2481" stroke="#263238" stroke-linecap="round" stroke-linejoin="round"/>
<path fill-rule="evenodd" clip-rule="evenodd" d="M198.534 29.0151C200.058 28.2719 201.911 28.8744 202.674 30.3608C203.436 31.8472 202.818 33.6547 201.294 34.3979L199.925 31.7292C201.294 34.3979 201.294 34.3979 201.294 34.3979L201.065 34.5097C200.915 34.5835 200.693 34.6923 200.41 34.8315C199.845 35.11 199.037 35.51 198.066 35.9949C196.124 36.9654 193.539 38.2723 190.96 39.6234C188.454 40.9355 184.136 43.3667 184.136 43.3667C184.136 43.3667 188.454 45.7979 190.96 47.11C193.539 48.461 196.124 49.7679 198.066 50.7385C199.037 51.2233 199.845 51.6233 200.41 51.9018C200.693 52.0411 200.915 52.1499 201.065 52.2237L201.293 52.3351C201.293 52.3351 201.294 52.3354 199.914 55.0268C198.534 57.7182 198.533 57.718 198.533 57.718L198.532 57.7176L198.294 57.6011C198.14 57.5254 197.914 57.4146 197.627 57.2732C197.053 56.9904 196.234 56.5853 195.252 56.0945C193.29 55.1139 190.667 53.7878 188.04 52.4119C185.423 51.0416 182.759 49.5993 180.731 48.3909C179.728 47.7931 178.809 47.2105 178.115 46.6962C177.777 46.4465 177.401 46.146 177.08 45.815C176.92 45.6512 176.702 45.4067 176.507 45.0934C176.34 44.8248 176 44.2084 176 43.3667C176 42.525 176.34 41.9086 176.507 41.64C176.702 41.3266 176.92 41.0822 177.08 40.9183C177.401 40.5874 177.777 40.2868 178.115 40.0371C178.809 39.5228 179.728 38.9403 180.731 38.3425C182.759 37.134 185.423 35.6918 188.04 34.3214C190.667 32.9455 193.29 31.6195 195.252 30.6388C196.234 30.1481 197.053 29.7429 197.627 29.4601C197.914 29.3187 198.14 29.2079 198.294 29.1322L198.534 29.0151C198.534 29.0151 198.534 29.0151 199.914 31.7065L198.534 29.0151ZM199.914 55.0268L198.533 57.718C200.058 58.4612 201.911 57.8589 202.674 56.3725C203.436 54.8861 202.817 53.0783 201.293 52.3351L199.914 55.0268Z" fill="#5295F1"/>
<path fill-rule="evenodd" clip-rule="evenodd" d="M192.886 24.5167C193.731 25.9596 193.217 27.7977 191.738 28.6222L180.938 34.6403C179.458 35.4649 177.573 34.9636 176.728 33.5207C175.882 32.0777 176.396 30.2396 177.876 29.4151L188.676 23.397C190.155 22.5725 192.04 23.0738 192.886 24.5167Z" fill="#5295F1"/>
<path d="M185.051 43.4113C185.051 42.8247 185.487 42.6077 185.487 42.6077H184.437L183.67 43.4113L184.59 44.0541L185.664 44.2148C185.664 44.2148 185.051 43.9978 185.051 43.4113Z" fill="#5295F1"/>
<path d="M192.875 44.8575C191.698 44.2792 191.698 42.5429 192.875 41.9646L199.28 39.0569C200.298 38.5569 201.466 39.3347 201.466 40.5119L201.466 46.3101C201.466 47.4873 200.298 48.2651 199.28 47.7651L192.875 44.8575Z" fill="#5295F1"/>
<path fill-rule="evenodd" clip-rule="evenodd" d="M46.5337 174.015C48.058 173.272 49.9114 173.874 50.6736 175.361C51.4357 176.847 50.8179 178.655 49.2936 179.398L47.9253 176.729C49.2936 179.398 49.2936 179.398 49.2936 179.398L49.0652 179.51C48.9145 179.583 48.6929 179.692 48.4103 179.832C47.8451 180.11 47.0367 180.51 46.0663 180.995C44.1238 181.965 41.5393 183.272 38.9596 184.623C36.4542 185.935 32.136 188.367 32.136 188.367C32.136 188.367 36.4542 190.798 38.9596 192.11C41.5393 193.461 44.1238 194.768 46.0663 195.738C47.0367 196.223 47.8451 196.623 48.4103 196.902C48.6929 197.041 48.9145 197.15 49.0652 197.224L49.293 197.335C49.293 197.335 49.2936 197.335 47.9137 200.027C46.5337 202.718 46.5333 202.718 46.5333 202.718L46.5325 202.718L46.2944 202.601C46.1399 202.525 45.9141 202.415 45.6271 202.273C45.0533 201.99 44.2345 201.585 43.2523 201.095C41.2895 200.114 38.667 198.788 36.0398 197.412C33.4231 196.042 30.7588 194.599 28.731 193.391C27.7279 192.793 26.8093 192.211 26.1147 191.696C25.7774 191.447 25.401 191.146 25.0795 190.815C24.9203 190.651 24.7023 190.407 24.5074 190.093C24.3402 189.825 24 189.208 24 188.367C24 187.525 24.3402 186.909 24.5074 186.64C24.7023 186.327 24.9203 186.082 25.0795 185.918C25.401 185.587 25.7774 185.287 26.1147 185.037C26.8093 184.523 27.7279 183.94 28.731 183.342C30.7588 182.134 33.4231 180.692 36.0398 179.321C38.667 177.946 41.2895 176.619 43.2523 175.639C44.2345 175.148 45.0533 174.743 45.6271 174.46C45.9141 174.319 46.1399 174.208 46.2944 174.132L46.5337 174.015C46.5337 174.015 46.5337 174.015 47.9137 176.707L46.5337 174.015ZM47.9137 200.027L46.5333 202.718C48.0576 203.461 49.9114 202.859 50.6736 201.373C51.4357 199.886 50.8172 198.078 49.293 197.335L47.9137 200.027Z" fill="#5295F1"/>
<path fill-rule="evenodd" clip-rule="evenodd" d="M40.8858 169.517C41.7313 170.96 41.2172 172.798 39.7376 173.622L28.9379 179.64C27.4583 180.465 25.5734 179.964 24.7279 178.521C23.8824 177.078 24.3964 175.24 25.8761 174.415L36.6758 168.397C38.1554 167.572 40.0403 168.074 40.8858 169.517Z" fill="#5295F1"/>
<path d="M33.0506 188.411C33.0506 187.825 33.4869 187.608 33.4869 187.608H32.437L31.6699 188.411L32.5904 189.054L33.6643 189.215C33.6643 189.215 33.0506 188.998 33.0506 188.411Z" fill="#5295F1"/>
<path d="M40.875 189.857C39.6982 189.279 39.6982 187.543 40.875 186.965L47.2805 184.057C48.2978 183.557 49.4661 184.335 49.4661 185.512L49.4661 191.31C49.4661 192.487 48.2978 193.265 47.2805 192.765L40.875 189.857Z" fill="#5295F1"/>
<path fill-rule="evenodd" clip-rule="evenodd" d="M353.534 174.015C355.058 173.272 356.911 173.874 357.674 175.361C358.436 176.847 357.818 178.655 356.294 179.398L354.925 176.729C356.294 179.398 356.294 179.398 356.294 179.398L356.065 179.51C355.915 179.583 355.693 179.692 355.41 179.832C354.845 180.11 354.037 180.51 353.066 180.995C351.124 181.965 348.539 183.272 345.96 184.623C343.454 185.935 339.136 188.367 339.136 188.367C339.136 188.367 343.454 190.798 345.96 192.11C348.539 193.461 351.124 194.768 353.066 195.738C354.037 196.223 354.845 196.623 355.41 196.902C355.693 197.041 355.915 197.15 356.065 197.224L356.293 197.335C356.293 197.335 356.294 197.335 354.914 200.027C353.534 202.718 353.533 202.718 353.533 202.718L353.532 202.718L353.294 202.601C353.14 202.525 352.914 202.415 352.627 202.273C352.053 201.99 351.234 201.585 350.252 201.095C348.29 200.114 345.667 198.788 343.04 197.412C340.423 196.042 337.759 194.599 335.731 193.391C334.728 192.793 333.809 192.211 333.115 191.696C332.777 191.447 332.401 191.146 332.08 190.815C331.92 190.651 331.702 190.407 331.507 190.093C331.34 189.825 331 189.208 331 188.367C331 187.525 331.34 186.909 331.507 186.64C331.702 186.327 331.92 186.082 332.08 185.918C332.401 185.587 332.777 185.287 333.115 185.037C333.809 184.523 334.728 183.94 335.731 183.342C337.759 182.134 340.423 180.692 343.04 179.321C345.667 177.946 348.29 176.619 350.252 175.639C351.234 175.148 352.053 174.743 352.627 174.46C352.914 174.319 353.14 174.208 353.294 174.132L353.534 174.015C353.534 174.015 353.534 174.015 354.914 176.707L353.534 174.015ZM354.914 200.027L353.533 202.718C355.058 203.461 356.911 202.859 357.674 201.373C358.436 199.886 357.817 198.078 356.293 197.335L354.914 200.027Z" fill="#5295F1"/>
<path fill-rule="evenodd" clip-rule="evenodd" d="M347.886 169.517C348.731 170.96 348.217 172.798 346.738 173.622L335.938 179.64C334.458 180.465 332.573 179.964 331.728 178.521C330.882 177.078 331.396 175.24 332.876 174.415L343.676 168.397C345.155 167.572 347.04 168.074 347.886 169.517Z" fill="#5295F1"/>
<path d="M340.051 188.411C340.051 187.825 340.487 187.608 340.487 187.608H339.437L338.67 188.411L339.59 189.054L340.664 189.215C340.664 189.215 340.051 188.998 340.051 188.411Z" fill="#5295F1"/>
<path d="M347.875 189.857C346.698 189.279 346.698 187.543 347.875 186.965L354.28 184.057C355.298 183.557 356.466 184.335 356.466 185.512L356.466 191.31C356.466 192.487 355.298 193.265 354.28 192.765L347.875 189.857Z" fill="#5295F1"/>
<path fill-rule="evenodd" clip-rule="evenodd" d="M198.534 174.015C200.058 173.272 201.911 173.874 202.674 175.361C203.436 176.847 202.818 178.655 201.294 179.398L199.925 176.729C201.294 179.398 201.294 179.398 201.294 179.398L201.065 179.51C200.915 179.583 200.693 179.692 200.41 179.832C199.845 180.11 199.037 180.51 198.066 180.995C196.124 181.965 193.539 183.272 190.96 184.623C188.454 185.935 184.136 188.367 184.136 188.367C184.136 188.367 188.454 190.798 190.96 192.11C193.539 193.461 196.124 194.768 198.066 195.738C199.037 196.223 199.845 196.623 200.41 196.902C200.693 197.041 200.915 197.15 201.065 197.224L201.293 197.335C201.293 197.335 201.294 197.335 199.914 200.027C198.534 202.718 198.533 202.718 198.533 202.718L198.532 202.718L198.294 202.601C198.14 202.525 197.914 202.415 197.627 202.273C197.053 201.99 196.234 201.585 195.252 201.095C193.29 200.114 190.667 198.788 188.04 197.412C185.423 196.042 182.759 194.599 180.731 193.391C179.728 192.793 178.809 192.211 178.115 191.696C177.777 191.447 177.401 191.146 177.08 190.815C176.92 190.651 176.702 190.407 176.507 190.093C176.34 189.825 176 189.208 176 188.367C176 187.525 176.34 186.909 176.507 186.64C176.702 186.327 176.92 186.082 177.08 185.918C177.401 185.587 177.777 185.287 178.115 185.037C178.809 184.523 179.728 183.94 180.731 183.342C182.759 182.134 185.423 180.692 188.04 179.321C190.667 177.946 193.29 176.619 195.252 175.639C196.234 175.148 197.053 174.743 197.627 174.46C197.914 174.319 198.14 174.208 198.294 174.132L198.534 174.015C198.534 174.015 198.534 174.015 199.914 176.707L198.534 174.015ZM199.914 200.027L198.533 202.718C200.058 203.461 201.911 202.859 202.674 201.373C203.436 199.886 202.817 198.078 201.293 197.335L199.914 200.027Z" fill="#5295F1"/>
<path fill-rule="evenodd" clip-rule="evenodd" d="M192.886 169.517C193.731 170.96 193.217 172.798 191.738 173.622L180.938 179.64C179.458 180.465 177.573 179.964 176.728 178.521C175.882 177.078 176.396 175.24 177.876 174.415L188.676 168.397C190.155 167.572 192.04 168.074 192.886 169.517Z" fill="#5295F1"/>
<path d="M185.051 188.411C185.051 187.825 185.487 187.608 185.487 187.608H184.437L183.67 188.411L184.59 189.054L185.664 189.215C185.664 189.215 185.051 188.998 185.051 188.411Z" fill="#5295F1"/>
<path d="M192.875 189.857C191.698 189.279 191.698 187.543 192.875 186.965L199.28 184.057C200.298 183.557 201.466 184.335 201.466 185.512L201.466 191.31C201.466 192.487 200.298 193.265 199.28 192.765L192.875 189.857Z" fill="#5295F1"/>
</svg>
