<svg width="381" height="323" viewBox="0 0 381 323" fill="none" xmlns="http://www.w3.org/2000/svg">
<path d="M359.109 108.355C364.821 108.858 370.158 109.667 375.338 106.569C379.432 104.113 383.131 99.5551 379.56 94.9972C374.736 88.8313 364.456 93.7344 359.829 97.8878C356.988 100.423 353.387 104.093 351.187 106.352C352.874 103.393 354.363 101.015 355.38 99.4465V99.3972C355.863 98.6474 356.238 98.0851 356.465 97.7694C358.481 96.0271 360.632 94.447 362.897 93.0438C367.593 89.7586 372.19 86.947 374.173 81.2052C375.732 76.6967 375.633 70.8267 369.971 69.6231C362.305 68.0052 357.589 78.3738 356.721 84.52C356.1 88.8411 355.656 94.9676 355.468 97.8187C354.482 99.338 352.242 102.751 349.756 107.23C349.431 104.665 350.013 100.177 350.092 99.0125C350.486 93.2905 351.187 87.9434 347.99 82.8232C345.455 78.7783 340.818 75.1675 336.339 78.8276C330.262 83.7604 335.353 93.9515 339.605 98.4896C342.673 101.785 347.329 106.116 349.342 107.98C346.802 112.59 344.584 117.37 342.702 122.285C342.594 122.571 342.485 122.877 342.387 123.173C341.4 120.786 340.867 116.267 340.66 115.064C339.674 109.421 338.983 104.064 334.623 99.8905C331.18 96.5855 325.803 94.2376 322.35 98.9039C317.684 105.188 325.142 113.801 330.361 117.155C334.139 119.582 339.713 122.64 342.13 123.952C341.311 126.458 340.571 129.448 339.743 132.831C338.914 136.215 337.967 139.984 336.783 143.96C335.215 143.101 334.396 135.959 334.119 134.459C333.133 128.816 332.452 123.459 328.092 119.286C324.649 115.981 319.262 113.633 315.819 118.3C311.143 124.584 318.611 133.196 323.83 136.551C328.703 139.688 336.566 143.861 336.783 143.979L336.566 144.147C336.64 144.098 336.719 144.058 336.803 144.029C335.434 148.668 333.74 153.204 331.732 157.604C330.025 156.193 327.786 150.698 327.233 149.455C324.757 144.285 322.735 139.283 317.437 136.403C313.244 134.114 307.433 133.256 305.322 138.652C302.471 145.943 311.922 152.296 317.841 154.161C322.537 155.64 329.502 157.288 331.653 157.781C329.275 162.948 326.316 167.827 322.833 172.323C321.166 170.616 319.134 165.585 318.571 164.431C316.056 159.32 314.083 154.279 308.755 151.428C304.562 149.149 298.761 148.291 296.65 153.677C293.789 160.938 303.231 167.292 309.15 169.186C313.57 170.587 320.002 172.145 322.547 172.718C317.69 178.844 311.837 184.11 305.233 188.295L305.648 188.937C312.288 184.735 318.177 179.449 323.07 173.3C325.043 173.497 329.749 178.035 330.854 178.963C335.224 182.672 339.111 186.411 345.129 186.855C349.894 187.22 355.547 185.622 355.261 179.841C354.886 172.017 343.659 170.093 337.503 170.814C332.373 171.406 324.895 172.866 323.139 173.211L323.386 172.885L323.623 172.945L323.415 172.856C326.955 168.302 329.955 163.352 332.353 158.107C334.524 158.205 339.615 161.481 340.818 162.152C345.83 164.944 350.368 167.854 356.366 167.144C361.102 166.581 366.34 163.927 364.949 158.265C363.055 150.668 351.67 150.954 345.761 152.849C341.114 154.338 334.554 156.992 332.452 157.85C334.508 153.327 336.236 148.662 337.622 143.891C340.049 143.772 345.06 145.39 346.293 145.706C351.858 147.127 356.988 148.774 362.601 146.554C367.041 144.798 371.421 140.892 368.639 135.821C364.87 128.915 353.929 132.141 348.701 135.485C345.031 137.833 340.128 141.464 337.849 143.19C338.904 139.579 339.753 136.146 340.522 133.039C341.331 129.744 342.061 126.813 342.85 124.357L343.363 124.633C343.182 124.516 343.027 124.361 342.91 124.179C342.91 124.179 342.91 124.1 342.91 124.061C345.06 123.745 350.674 126.034 351.986 126.468C357.422 128.293 362.424 130.306 368.175 128.5C372.733 127.08 377.39 123.499 374.982 118.24C371.727 111.117 360.579 113.495 355.123 116.455C350.851 118.773 344.912 122.581 342.989 123.824C343.127 123.41 343.265 123.005 343.413 122.621C345.261 117.795 347.436 113.101 349.924 108.572L350.338 108.947C350.189 108.798 350.078 108.615 350.013 108.414L350.279 107.921C352.706 107.467 357.846 108.247 359.109 108.355Z" fill="#407BFF"/>
<path opacity="0.5" d="M359.109 108.355C364.821 108.858 370.158 109.667 375.338 106.569C379.432 104.113 383.131 99.5551 379.56 94.9972C374.736 88.8313 364.456 93.7344 359.829 97.8878C356.988 100.423 353.387 104.093 351.187 106.352C352.874 103.393 354.363 101.015 355.38 99.4465V99.3972C355.863 98.6474 356.238 98.0851 356.465 97.7694C358.481 96.0271 360.632 94.447 362.897 93.0438C367.593 89.7586 372.19 86.947 374.173 81.2052C375.732 76.6967 375.633 70.8267 369.971 69.6231C362.305 68.0052 357.589 78.3738 356.721 84.52C356.1 88.8411 355.656 94.9676 355.468 97.8187C354.482 99.338 352.242 102.751 349.756 107.23C349.431 104.665 350.013 100.177 350.092 99.0125C350.486 93.2905 351.187 87.9434 347.99 82.8232C345.455 78.7783 340.818 75.1675 336.339 78.8276C330.262 83.7604 335.353 93.9515 339.605 98.4896C342.673 101.785 347.329 106.116 349.342 107.98C346.802 112.59 344.584 117.37 342.702 122.285C342.594 122.571 342.485 122.877 342.387 123.173C341.4 120.786 340.867 116.267 340.66 115.064C339.674 109.421 338.983 104.064 334.623 99.8905C331.18 96.5855 325.803 94.2376 322.35 98.9039C317.684 105.188 325.142 113.801 330.361 117.155C334.139 119.582 339.713 122.64 342.13 123.952C341.311 126.458 340.571 129.448 339.743 132.831C338.914 136.215 337.967 139.984 336.783 143.96C335.215 143.101 334.396 135.959 334.119 134.459C333.133 128.816 332.452 123.459 328.092 119.286C324.649 115.981 319.262 113.633 315.819 118.3C311.143 124.584 318.611 133.196 323.83 136.551C328.703 139.688 336.566 143.861 336.783 143.979L336.566 144.147C336.64 144.098 336.719 144.058 336.803 144.029C335.434 148.668 333.74 153.204 331.732 157.604C330.025 156.193 327.786 150.698 327.233 149.455C324.757 144.285 322.735 139.283 317.437 136.403C313.244 134.114 307.433 133.256 305.322 138.652C302.471 145.943 311.922 152.296 317.841 154.161C322.537 155.64 329.502 157.288 331.653 157.781C329.275 162.948 326.316 167.827 322.833 172.323C321.166 170.616 319.134 165.585 318.571 164.431C316.056 159.32 314.083 154.279 308.755 151.428C304.562 149.149 298.761 148.291 296.65 153.677C293.789 160.938 303.231 167.292 309.15 169.186C313.57 170.587 320.002 172.145 322.547 172.718C317.69 178.844 311.837 184.11 305.233 188.295L305.648 188.937C312.288 184.735 318.177 179.449 323.07 173.3C325.043 173.497 329.749 178.035 330.854 178.963C335.224 182.672 339.111 186.411 345.129 186.855C349.894 187.22 355.547 185.622 355.261 179.841C354.886 172.017 343.659 170.093 337.503 170.814C332.373 171.406 324.895 172.866 323.139 173.211L323.386 172.885L323.623 172.945L323.415 172.856C326.955 168.302 329.955 163.352 332.353 158.107C334.524 158.205 339.615 161.481 340.818 162.152C345.83 164.944 350.368 167.854 356.366 167.144C361.102 166.581 366.34 163.927 364.949 158.265C363.055 150.668 351.67 150.954 345.761 152.849C341.114 154.338 334.554 156.992 332.452 157.85C334.508 153.327 336.236 148.662 337.622 143.891C340.049 143.772 345.06 145.39 346.293 145.706C351.858 147.127 356.988 148.774 362.601 146.554C367.041 144.798 371.421 140.892 368.639 135.821C364.87 128.915 353.929 132.141 348.701 135.485C345.031 137.833 340.128 141.464 337.849 143.19C338.904 139.579 339.753 136.146 340.522 133.039C341.331 129.744 342.061 126.813 342.85 124.357L343.363 124.633C343.182 124.516 343.027 124.361 342.91 124.179C342.91 124.179 342.91 124.1 342.91 124.061C345.06 123.745 350.674 126.034 351.986 126.468C357.422 128.293 362.424 130.306 368.175 128.5C372.733 127.08 377.39 123.499 374.982 118.24C371.727 111.117 360.579 113.495 355.123 116.455C350.851 118.773 344.912 122.581 342.989 123.824C343.127 123.41 343.265 123.005 343.413 122.621C345.261 117.795 347.436 113.101 349.924 108.572L350.338 108.947C350.189 108.798 350.078 108.615 350.013 108.414L350.279 107.921C352.706 107.467 357.846 108.247 359.109 108.355Z" fill="white"/>
<path d="M275.864 157.258C280.57 153.983 285.177 151.191 287.17 145.489C288.748 140.99 288.669 135.11 283.006 133.897C275.351 132.249 270.605 142.608 269.708 148.754C269.165 152.523 268.721 157.633 268.504 160.79C267.902 157.446 267.517 154.654 267.3 152.819C267.192 151.931 267.123 151.26 267.093 150.846C267.529 148.219 268.169 145.629 269.007 143.101C270.507 137.567 272.243 132.457 270.102 126.814C268.415 122.354 264.578 117.935 259.457 120.618C252.551 124.278 255.56 135.258 258.826 140.546C261.125 144.256 264.745 149.248 266.383 151.556C266.58 153.381 267.064 157.406 268.03 162.408C266.126 160.642 263.709 156.834 263.019 155.887C259.655 151.241 256.774 146.683 251.032 144.808C246.504 143.319 240.634 143.516 239.529 149.198C238.029 156.884 248.477 161.432 254.633 162.201C259.102 162.763 265.485 163.109 268.188 163.247C269.19 168.415 270.548 173.508 272.253 178.489C272.352 178.785 272.47 179.081 272.578 179.377C270.309 178.163 266.965 175.007 266.057 174.257C261.647 170.577 257.731 166.877 251.713 166.463C246.948 166.137 241.305 167.775 241.63 173.556C242.074 181.38 253.321 183.205 259.487 182.435C263.936 181.883 270.171 180.659 272.865 180.117C273.851 182.563 275.193 185.336 276.712 188.453C278.231 191.571 279.928 195.083 281.566 198.891C279.81 199.246 274.601 194.274 273.427 193.307C269.017 189.627 265.1 185.928 259.082 185.513C254.317 185.188 248.684 186.825 249.01 192.607C249.454 200.43 260.691 202.255 266.856 201.486C272.598 200.765 281.319 198.94 281.566 198.891L281.497 199.157C281.525 199.075 281.561 198.995 281.605 198.921C283.527 203.356 285.133 207.922 286.41 212.584C284.19 212.584 278.971 209.782 277.728 209.21C272.519 206.823 267.764 204.277 261.845 205.461C257.169 206.399 252.157 209.408 253.952 214.942C256.438 222.371 267.764 221.197 273.506 218.888C278.064 217.014 284.466 213.817 286.43 212.821C287.919 218.312 288.773 223.956 288.975 229.642C286.597 229.395 281.813 226.83 280.629 226.287C275.42 223.9 270.665 221.355 264.745 222.539C260.069 223.466 255.057 226.485 256.853 232.019C259.339 239.448 270.665 238.264 276.406 235.906C280.698 234.15 286.637 231.2 288.955 229.987C289.151 237.804 288.027 245.599 285.631 253.043L286.37 253.27C288.774 245.786 289.911 237.954 289.735 230.095C291.392 228.981 297.893 229.454 299.334 229.464C305.066 229.513 310.452 229.888 315.365 226.386C319.252 223.624 322.577 218.78 318.66 214.547C313.353 208.786 303.497 214.547 299.225 218.997C295.674 222.736 290.849 228.645 289.735 230.036C289.735 229.898 289.735 229.77 289.735 229.632L289.952 229.523C289.883 229.555 289.81 229.575 289.735 229.582C289.543 223.841 288.689 218.14 287.189 212.594C288.916 211.282 294.914 210.542 296.275 210.286C301.918 209.21 307.266 208.539 311.409 204.159C314.684 200.686 317.003 195.28 312.336 191.877C306.023 187.25 297.459 194.757 294.135 200.006C291.52 204.12 288.215 210.364 287.12 212.367C285.813 207.579 284.165 202.891 282.187 198.338C283.973 196.691 288.857 194.728 290.011 194.175C295.19 191.699 300.182 189.686 303.073 184.389C305.352 180.196 306.22 174.385 300.833 172.274C293.543 169.413 287.179 178.864 285.315 184.783C284.003 188.937 282.552 194.876 281.901 197.668C280.392 194.215 278.843 191.038 277.442 188.157C275.962 185.109 274.64 182.396 273.674 179.998L274.246 179.88C274.031 179.911 273.812 179.894 273.604 179.831C273.592 179.786 273.576 179.743 273.555 179.702C275.005 178.094 280.777 176.25 282.069 175.756C287.416 173.665 292.546 172.017 295.812 166.946C298.396 162.931 299.679 157.199 294.46 154.703C287.396 151.319 280.362 160.287 278.064 166.049C276.268 170.567 274.117 177.295 273.466 179.485C273.308 179.081 273.161 178.676 273.022 178.292C271.363 173.403 270.045 168.406 269.076 163.336H269.629C269.418 163.315 269.215 163.244 269.037 163.128C269.037 162.951 268.968 162.763 268.928 162.586C270.378 160.672 274.818 157.989 275.864 157.258Z" fill="#407BFF"/>
<path opacity="0.5" d="M275.864 157.258C280.57 153.983 285.177 151.191 287.17 145.489C288.748 140.99 288.669 135.11 283.006 133.897C275.351 132.249 270.605 142.608 269.708 148.754C269.165 152.523 268.721 157.633 268.504 160.79C267.902 157.446 267.517 154.654 267.3 152.819C267.192 151.931 267.123 151.26 267.093 150.846C267.529 148.219 268.169 145.629 269.007 143.101C270.507 137.567 272.243 132.457 270.102 126.814C268.415 122.354 264.578 117.935 259.457 120.618C252.551 124.278 255.56 135.258 258.826 140.546C261.125 144.256 264.745 149.248 266.383 151.556C266.58 153.381 267.064 157.406 268.03 162.408C266.126 160.642 263.709 156.834 263.019 155.887C259.655 151.241 256.774 146.683 251.032 144.808C246.504 143.319 240.634 143.516 239.529 149.198C238.029 156.884 248.477 161.432 254.633 162.201C259.102 162.763 265.485 163.109 268.188 163.247C269.19 168.415 270.548 173.508 272.253 178.489C272.352 178.785 272.47 179.081 272.578 179.377C270.309 178.163 266.965 175.007 266.057 174.257C261.647 170.577 257.731 166.877 251.713 166.463C246.948 166.137 241.305 167.775 241.63 173.556C242.074 181.38 253.321 183.205 259.487 182.435C263.936 181.883 270.171 180.659 272.865 180.117C273.851 182.563 275.193 185.336 276.712 188.453C278.231 191.571 279.928 195.083 281.566 198.891C279.81 199.246 274.601 194.274 273.427 193.307C269.017 189.627 265.1 185.928 259.082 185.513C254.317 185.188 248.684 186.825 249.01 192.607C249.454 200.43 260.691 202.255 266.856 201.486C272.598 200.765 281.319 198.94 281.566 198.891L281.497 199.157C281.525 199.075 281.561 198.995 281.605 198.921C283.527 203.356 285.133 207.922 286.41 212.584C284.19 212.584 278.971 209.782 277.728 209.21C272.519 206.823 267.764 204.277 261.845 205.461C257.169 206.399 252.157 209.408 253.952 214.942C256.438 222.371 267.764 221.197 273.506 218.888C278.064 217.014 284.466 213.817 286.43 212.821C287.919 218.312 288.773 223.956 288.975 229.642C286.597 229.395 281.813 226.83 280.629 226.287C275.42 223.9 270.665 221.355 264.745 222.539C260.069 223.466 255.057 226.485 256.853 232.019C259.339 239.448 270.665 238.264 276.406 235.906C280.698 234.15 286.637 231.2 288.955 229.987C289.151 237.804 288.027 245.599 285.631 253.043L286.37 253.27C288.774 245.786 289.911 237.954 289.735 230.095C291.392 228.981 297.893 229.454 299.334 229.464C305.066 229.513 310.452 229.888 315.365 226.386C319.252 223.624 322.577 218.78 318.66 214.547C313.353 208.786 303.497 214.547 299.225 218.997C295.674 222.736 290.849 228.645 289.735 230.036C289.735 229.898 289.735 229.77 289.735 229.632L289.952 229.523C289.883 229.555 289.81 229.575 289.735 229.582C289.543 223.841 288.689 218.14 287.189 212.594C288.916 211.282 294.914 210.542 296.275 210.286C301.918 209.21 307.266 208.539 311.409 204.159C314.684 200.686 317.003 195.28 312.336 191.877C306.023 187.25 297.459 194.757 294.135 200.006C291.52 204.12 288.215 210.364 287.12 212.367C285.813 207.579 284.165 202.891 282.187 198.338C283.973 196.691 288.857 194.728 290.011 194.175C295.19 191.699 300.182 189.686 303.073 184.389C305.352 180.196 306.22 174.385 300.833 172.274C293.543 169.413 287.179 178.864 285.315 184.783C284.003 188.937 282.552 194.876 281.901 197.668C280.392 194.215 278.843 191.038 277.442 188.157C275.962 185.109 274.64 182.396 273.674 179.998L274.246 179.88C274.031 179.911 273.812 179.894 273.604 179.831C273.592 179.786 273.576 179.743 273.555 179.702C275.005 178.094 280.777 176.25 282.069 175.756C287.416 173.665 292.546 172.017 295.812 166.946C298.396 162.931 299.679 157.199 294.46 154.703C287.396 151.319 280.362 160.287 278.064 166.049C276.268 170.567 274.117 177.295 273.466 179.485C273.308 179.081 273.161 178.676 273.022 178.292C271.363 173.403 270.045 168.406 269.076 163.336H269.629C269.418 163.315 269.215 163.244 269.037 163.128C269.037 162.951 268.968 162.763 268.928 162.586C270.378 160.672 274.818 157.989 275.864 157.258Z" fill="white"/>
<path d="M47.4969 117.421C52.4296 112.025 57.3624 107.25 58.3489 99.5847C59.0592 93.5272 57.3624 86.2366 49.9238 86.2958C39.9202 86.3846 36.8915 100.621 37.4933 108.533C37.8583 113.377 38.756 119.888 39.348 123.874C37.661 119.868 36.3883 116.494 35.6287 114.265C35.6287 114.265 35.6287 114.265 35.6287 114.215C35.2439 113.13 34.9775 112.321 34.8197 111.838C34.4054 108.533 34.9874 103.097 35.0466 101.656C35.3722 94.3264 36.1022 87.4797 31.8699 81.0375C28.5156 75.9469 22.4878 71.4778 16.8645 76.2823C9.25818 82.7837 16.095 95.6286 21.6394 101.301C25.5856 105.297 31.3964 110.516 34.139 112.933C34.8888 115.143 36.6152 120.026 39.2197 126.034C36.3686 124.367 32.3139 120.282 31.1596 119.296C25.6744 114.442 20.8008 109.578 13.1255 108.829C7.05817 108.237 -0.202842 110.121 0.00433385 117.52C0.290433 127.524 14.5757 130.266 22.478 129.517C28.1901 128.964 36.2107 127.632 39.6637 127.031C42.3547 133.197 45.4698 139.17 48.9866 144.907C49.197 145.242 49.4141 145.571 49.6377 145.893C46.461 145.025 41.4197 142.016 40.0681 141.326C33.5569 137.981 27.6376 134.42 20.0116 135.623C13.9838 136.551 7.41333 140.161 9.43575 147.275C12.1685 156.903 26.7004 156.045 34.1686 153.371C39.565 151.398 46.9937 148.172 50.2 146.742C52.1139 149.524 54.5606 152.592 57.3229 156.055C60.0853 159.518 63.183 163.424 66.2907 167.716V167.775C64.1893 168.693 56.3166 163.967 54.5803 163.069C48.0592 159.725 42.1399 156.163 34.5237 157.367C28.4959 158.294 21.9255 161.905 23.938 169.018C26.6807 178.647 41.2125 177.789 48.6709 175.115C55.6359 172.619 65.9947 167.913 66.2907 167.775C66.2907 167.982 66.2907 168.13 66.2907 168.13C66.3004 168.019 66.3236 167.91 66.3597 167.805C69.9963 172.798 73.2733 178.043 76.166 183.501C73.4037 184.122 66.1131 182.08 64.4063 181.715C57.2341 180.196 50.5946 178.351 43.5507 181.478C37.9767 183.945 32.5802 189.163 36.3982 195.497C41.5677 204.06 55.3597 199.443 61.861 194.885C67.0108 191.285 74.1041 185.503 76.2844 183.718C79.681 190.148 82.3291 196.947 84.1768 203.981C81.1481 204.337 74.479 202.472 72.8512 202.127C65.679 200.598 59.0395 198.763 51.9955 201.88C46.3229 204.406 40.9264 209.634 44.7543 215.948C49.9238 224.521 63.7158 219.895 70.2171 215.347C75.071 211.953 81.6611 206.616 84.2163 204.494C86.6401 214.181 87.4172 224.206 86.5149 234.15L87.5015 234.239C88.3999 224.246 87.623 214.173 85.2028 204.435C86.949 202.581 95.1966 201.357 97.0414 200.972C104.204 199.424 111.011 198.398 116.171 192.656C120.245 188.118 123.077 181.163 116.96 176.94C108.742 171.238 98.0477 181.103 93.9733 187.911C90.5894 193.563 86.2387 202.285 85.2226 204.327C85.2226 204.159 85.1338 203.991 85.0943 203.824L85.3311 203.626C85.2545 203.682 85.1718 203.728 85.0845 203.764C83.2204 196.638 80.5424 189.749 77.1032 183.234C78.8889 181.113 86.1696 178.509 87.7876 177.808C94.5159 174.908 100.998 172.57 104.944 165.97C108.061 160.731 109.452 153.352 102.675 150.392C93.4997 146.387 84.9167 158.146 82.2432 165.614C80.1418 171.475 77.7248 180.186 76.9651 182.988C73.9754 177.383 70.5895 172 66.8333 166.877C68.6091 164.322 74.1436 160.514 75.436 159.508C81.1974 154.979 86.8602 151.073 88.9813 143.654C90.6585 137.794 90.1159 130.306 82.8055 129.181C72.94 127.652 67.6324 141.217 66.9516 149.119C66.4682 154.654 66.3301 162.458 66.2907 166.127C63.4494 162.25 60.6377 158.719 58.0826 155.512C55.3794 152.128 52.9821 149.109 51.1077 146.396L51.7785 146.091C51.5239 146.187 51.2506 146.224 50.9794 146.199C50.941 146.157 50.9079 146.111 50.8807 146.061C52.2323 143.644 58.9211 139.737 60.3911 138.751C66.4682 134.657 72.4073 131.164 75.0611 123.952C77.1526 118.221 77.1526 110.723 69.9508 109.065C60.1938 106.816 53.9391 119.917 52.6861 127.81C51.6996 133.946 50.9301 142.924 50.713 145.844C50.3973 145.38 50.1014 144.917 49.8251 144.473C46.3729 138.845 43.3107 132.988 40.6601 126.942L41.3704 126.823C41.1008 126.849 40.8287 126.819 40.5713 126.735L40.2852 126.083C41.6072 123.213 46.4018 118.615 47.4969 117.421Z" fill="#407BFF"/>
<path opacity="0.5" d="M47.4969 117.421C52.4296 112.025 57.3624 107.25 58.3489 99.5847C59.0592 93.5272 57.3624 86.2366 49.9238 86.2958C39.9202 86.3846 36.8915 100.621 37.4933 108.533C37.8583 113.377 38.756 119.888 39.348 123.874C37.661 119.868 36.3883 116.494 35.6287 114.265C35.6287 114.265 35.6287 114.265 35.6287 114.215C35.2439 113.13 34.9775 112.321 34.8197 111.838C34.4054 108.533 34.9874 103.097 35.0466 101.656C35.3722 94.3264 36.1022 87.4797 31.8699 81.0375C28.5156 75.9469 22.4878 71.4778 16.8645 76.2823C9.25818 82.7837 16.095 95.6286 21.6394 101.301C25.5856 105.297 31.3964 110.516 34.139 112.933C34.8888 115.143 36.6152 120.026 39.2197 126.034C36.3686 124.367 32.3139 120.282 31.1596 119.296C25.6744 114.442 20.8008 109.578 13.1255 108.829C7.05817 108.237 -0.202842 110.121 0.00433385 117.52C0.290433 127.524 14.5757 130.266 22.478 129.517C28.1901 128.964 36.2107 127.632 39.6637 127.031C42.3547 133.197 45.4698 139.17 48.9866 144.907C49.197 145.242 49.4141 145.571 49.6377 145.893C46.461 145.025 41.4197 142.016 40.0681 141.326C33.5569 137.981 27.6376 134.42 20.0116 135.623C13.9838 136.551 7.41333 140.161 9.43575 147.275C12.1685 156.903 26.7004 156.045 34.1686 153.371C39.565 151.398 46.9937 148.172 50.2 146.742C52.1139 149.524 54.5606 152.592 57.3229 156.055C60.0853 159.518 63.183 163.424 66.2907 167.716V167.775C64.1893 168.693 56.3166 163.967 54.5803 163.069C48.0592 159.725 42.1399 156.163 34.5237 157.367C28.4959 158.294 21.9255 161.905 23.938 169.018C26.6807 178.647 41.2125 177.789 48.6709 175.115C55.6359 172.619 65.9947 167.913 66.2907 167.775C66.2907 167.982 66.2907 168.13 66.2907 168.13C66.3004 168.019 66.3236 167.91 66.3597 167.805C69.9963 172.798 73.2733 178.043 76.166 183.501C73.4037 184.122 66.1131 182.08 64.4063 181.715C57.2341 180.196 50.5946 178.351 43.5507 181.478C37.9767 183.945 32.5802 189.163 36.3982 195.497C41.5677 204.06 55.3597 199.443 61.861 194.885C67.0108 191.285 74.1041 185.503 76.2844 183.718C79.681 190.148 82.3291 196.947 84.1768 203.981C81.1481 204.337 74.479 202.472 72.8512 202.127C65.679 200.598 59.0395 198.763 51.9955 201.88C46.3229 204.406 40.9264 209.634 44.7543 215.948C49.9238 224.521 63.7158 219.895 70.2171 215.347C75.071 211.953 81.6611 206.616 84.2163 204.494C86.6401 214.181 87.4172 224.206 86.5149 234.15L87.5015 234.239C88.3999 224.246 87.623 214.173 85.2028 204.435C86.949 202.581 95.1966 201.357 97.0414 200.972C104.204 199.424 111.011 198.398 116.171 192.656C120.245 188.118 123.077 181.163 116.96 176.94C108.742 171.238 98.0477 181.103 93.9733 187.911C90.5894 193.563 86.2387 202.285 85.2226 204.327C85.2226 204.159 85.1338 203.991 85.0943 203.824L85.3311 203.626C85.2545 203.682 85.1718 203.728 85.0845 203.764C83.2204 196.638 80.5424 189.749 77.1032 183.234C78.8889 181.113 86.1696 178.509 87.7876 177.808C94.5159 174.908 100.998 172.57 104.944 165.97C108.061 160.731 109.452 153.352 102.675 150.392C93.4997 146.387 84.9167 158.146 82.2432 165.614C80.1418 171.475 77.7248 180.186 76.9651 182.988C73.9754 177.383 70.5895 172 66.8333 166.877C68.6091 164.322 74.1436 160.514 75.436 159.508C81.1974 154.979 86.8602 151.073 88.9813 143.654C90.6585 137.794 90.1159 130.306 82.8055 129.181C72.94 127.652 67.6324 141.217 66.9516 149.119C66.4682 154.654 66.3301 162.458 66.2907 166.127C63.4494 162.25 60.6377 158.719 58.0826 155.512C55.3794 152.128 52.9821 149.109 51.1077 146.396L51.7785 146.091C51.5239 146.187 51.2506 146.224 50.9794 146.199C50.941 146.157 50.9079 146.111 50.8807 146.061C52.2323 143.644 58.9211 139.737 60.3911 138.751C66.4682 134.657 72.4073 131.164 75.0611 123.952C77.1526 118.221 77.1526 110.723 69.9508 109.065C60.1938 106.816 53.9391 119.917 52.6861 127.81C51.6996 133.946 50.9301 142.924 50.713 145.844C50.3973 145.38 50.1014 144.917 49.8251 144.473C46.3729 138.845 43.3107 132.988 40.6601 126.942L41.3704 126.823C41.1008 126.849 40.8287 126.819 40.5713 126.735L40.2852 126.083C41.6072 123.213 46.4018 118.615 47.4969 117.421Z" fill="white"/>
<path d="M166.761 278.16C194.358 278.16 216.73 270.943 216.73 262.04C216.73 253.137 194.358 245.919 166.761 245.919C139.164 245.919 116.792 253.137 116.792 262.04C116.792 270.943 139.164 278.16 166.761 278.16Z" fill="#407BFF"/>
<path opacity="0.5" d="M166.761 278.16C194.358 278.16 216.73 270.943 216.73 262.04C216.73 253.137 194.358 245.919 166.761 245.919C139.164 245.919 116.792 253.137 116.792 262.04C116.792 270.943 139.164 278.16 166.761 278.16Z" fill="white"/>
<path d="M281.625 90.1629H283.282C284.95 90.1629 287.564 89.1763 285.423 88.2687C283.282 87.3611 276.88 87.075 276.169 87.7853C275.459 88.4956 269.52 90.6365 269.52 90.6365V90.7351C265.455 90.4983 254.85 89.8669 249.651 89.4131C245.311 89.0985 240.951 89.1943 236.628 89.6992L231.538 87.1539L225.293 98.4795C225.293 98.4795 228.697 102.159 231.528 102.159C234.359 102.159 242.281 101.311 250.203 100.453C258.125 99.5943 272.006 95.6481 272.006 95.6481V95.5593C275.116 96.1326 278.266 96.4624 281.428 96.5459C287.84 96.7827 287.84 95.8356 288.334 94.8786C288.596 94.4103 288.761 93.8934 288.817 93.3593L281.625 90.1629Z" fill="white" stroke="#263238" stroke-linecap="round" stroke-linejoin="round"/>
<path d="M281.625 90.163C281.625 90.163 277.412 92.2545 276.554 92.7477C275.606 93.093 274.603 93.2634 273.594 93.2509" fill="white"/>
<path d="M281.625 90.163C281.625 90.163 277.412 92.2545 276.554 92.7477C275.606 93.093 274.603 93.2634 273.594 93.2509" stroke="#263238" stroke-linecap="round" stroke-linejoin="round"/>
<path d="M140.548 245.624L135.892 256.101C133.563 261.339 133.563 270.356 138.851 269.774C144.139 269.192 144.09 254.641 144.958 251.148C145.826 247.656 146.122 246.502 146.122 246.502L140.548 245.624Z" fill="#407BFF" stroke="#263238" stroke-linecap="round" stroke-linejoin="round"/>
<path d="M143.547 261.27C139.601 268.176 138.279 268.077 136.464 265.216C135.537 263.776 135.26 260.747 135.211 257.995C133.632 263.253 134.155 270.297 138.802 269.784C141.436 269.478 142.788 265.522 143.547 261.27Z" fill="white" stroke="#263238" stroke-linecap="round" stroke-linejoin="round"/>
<path d="M188.258 245.624C188.258 245.624 183.897 251.73 184.48 254.641C185.062 257.551 187.972 256.683 191.168 259.011C194.365 261.339 194.365 262.503 197.857 264.822C201.35 267.14 206.588 267.15 204.842 262.79C203.096 258.429 196.683 252.056 196.407 250.862C196.08 249.775 195.691 248.708 195.243 247.666L188.258 245.624Z" fill="#407BFF" stroke="#263238" stroke-linecap="round" stroke-linejoin="round"/>
<path d="M191.188 256.229C189.172 254.69 187.03 253.324 184.785 252.145C184.484 252.94 184.379 253.796 184.479 254.641C185.062 257.551 187.972 256.683 191.168 259.011C194.365 261.339 194.365 262.503 197.857 264.822C201.349 267.14 206.588 267.15 204.842 262.79C199.445 266.361 196.358 260.037 191.188 256.229Z" fill="white" stroke="#263238" stroke-linecap="round" stroke-linejoin="round"/>
<path d="M169.346 146.998C169.346 146.998 167.313 161.796 164.107 172.599C160.901 183.402 158.296 192.971 157.132 196.168C155.968 199.364 148.697 210.137 147.267 218.276C145.836 226.415 141.16 244.459 140.578 245.624C139.996 246.788 143.537 250.862 146.398 250.862C149.259 250.862 169.671 213.038 172.582 208.095C175.492 203.153 187.587 172.451 189.915 169.245C191.158 167.426 192.943 166.045 195.016 165.299C195.016 165.299 198.469 187.989 198.469 194.431C198.469 200.874 195.272 200.538 192.944 208.105C190.616 215.672 188.287 244.765 188.287 245.594C188.287 246.423 189.747 248.218 191.78 249.086C193.167 249.62 194.661 249.82 196.14 249.668C196.14 249.668 204.871 223.199 208.364 215.05C211.856 206.901 216.256 196.434 216.513 190.318C216.769 184.201 219.413 158.61 213.02 142.608C212.991 142.638 189.718 152.819 169.346 146.998Z" fill="#263238" stroke="#263238" stroke-linecap="round" stroke-linejoin="round"/>
<path d="M185.644 66.1997C185.644 66.1997 175.778 72.119 169.79 78.0975C164.068 83.8195 164.689 93.0931 165.547 99.6043C166.406 106.116 169.494 132.447 169.494 134.134C169.494 135.821 168.931 149.139 168.931 149.139C174.642 152.325 181.078 153.983 187.617 153.953C198.656 153.953 214.253 145.173 214.253 145.173C214.253 145.173 210.574 124.229 210.574 118.28C210.574 112.331 213.119 85.4473 213.119 85.4473C213.119 85.4473 217.371 93.6554 219.354 95.6384L225.017 101.301L235.158 87.4303C235.158 87.4303 222.698 74.98 216.749 69.8795C210.801 64.7791 208.995 62.293 200.274 62.6876C195.213 62.8783 190.24 64.0721 185.644 66.1997V66.1997Z" fill="#407BFF" stroke="#263238" stroke-linecap="round" stroke-linejoin="round"/>
<path d="M212.961 75.266L213.099 85.4571L216.385 77.9297" stroke="#263238" stroke-linecap="round" stroke-linejoin="round"/>
<path d="M208.768 103.807C208.768 103.807 198.489 119.029 193.546 122.463" stroke="#263238" stroke-linecap="round" stroke-linejoin="round"/>
<path d="M194.611 89.2751C200.649 90.7845 202.158 84.3423 202.158 76.4499C202.075 71.8159 201.372 67.2138 200.067 62.7665C195.077 62.9773 190.177 64.1638 185.644 66.2589C185.644 66.2589 184.825 66.7521 183.532 67.5808C183.009 69.3754 183.054 71.2881 183.661 73.0562C185.545 79.0347 188.564 87.7163 194.611 89.2751Z" fill="white" stroke="#263238" stroke-linecap="round" stroke-linejoin="round"/>
<path d="M177.504 114.797C181.062 118.224 184.36 121.91 187.37 125.827C191.425 131.342 199.554 137.508 199.554 137.508C202.428 136.878 205.342 136.446 208.275 136.215C210.889 136.215 220.469 144.334 220.469 144.334C220.469 144.334 219.877 146.604 217.844 146.594C215.812 146.584 207.387 145.291 206.519 145.291C205.651 145.291 201.586 146.574 198.38 145.291C195.174 144.009 191.711 140.428 191.711 140.428C191.711 140.428 176.025 131.332 171.092 126.794C168.221 124.236 166.031 121.005 164.719 117.392L164.433 113.179L177.504 114.797Z" fill="white" stroke="#263238" stroke-linecap="round" stroke-linejoin="round"/>
<path d="M169.79 78.0974C168.34 78.8379 167.064 79.8764 166.044 81.1447C165.024 82.413 164.283 83.8826 163.87 85.4571C162.46 90.8338 163.594 97.6212 163.594 100.739C163.594 103.856 164.719 115.744 164.719 115.744C167.125 117.134 169.835 117.913 172.611 118.013C175.518 117.861 178.34 116.983 180.819 115.458L181.105 92.2445" fill="#407BFF"/>
<path d="M169.79 78.0974C168.34 78.8379 167.064 79.8764 166.044 81.1447C165.024 82.413 164.283 83.8826 163.87 85.4571C162.46 90.8338 163.594 97.6212 163.594 100.739C163.594 103.856 164.719 115.744 164.719 115.744C167.125 117.134 169.835 117.913 172.611 118.013C175.518 117.861 178.34 116.983 180.819 115.458L181.105 92.2445" stroke="#263238" stroke-linecap="round" stroke-linejoin="round"/>
<path d="M185.722 68.2714C186.709 72.3453 188.029 76.3312 189.669 80.1889C192.244 86.0293 196.446 86.7297 197.847 83.4544C199.248 80.179 199.485 73.6481 199.485 73.6481C199.485 73.6481 195.539 75.7494 192.007 73.1745C188.475 70.5996 185.722 68.2714 185.722 68.2714Z" fill="white" stroke="#263238" stroke-linecap="round" stroke-linejoin="round"/>
<path d="M204.743 54.2032C204.743 54.2032 208.255 52.3288 208.956 49.7637C209.656 47.1987 208.255 46.0247 208.255 46.0247C208.255 46.0247 212.695 43.6866 211.057 39.7108C209.419 35.735 198.656 29.4309 189.777 30.1314C180.898 30.8319 181.599 37.1458 181.599 37.1458C181.599 37.1458 177.159 38.3099 177.159 42.0785C177.159 45.8471 177.86 51.6579 180.435 55.1602C183.009 58.6624 185.367 54.4597 186.739 52.3584C188.11 50.257 188.376 47.9189 191.879 49.7933C195.381 51.6678 203.096 51.8947 203.096 51.8947L204.743 54.2032Z" fill="#263238" stroke="#263238" stroke-linecap="round" stroke-linejoin="round"/>
<path d="M208.167 40.9341C207.724 40.3162 207.196 39.7647 206.598 39.2964" stroke="white" stroke-width="0.75" stroke-linecap="round" stroke-linejoin="round"/>
<path d="M184.548 39.8291C184.548 39.8291 195.943 48.5107 201.399 48.0076C205.226 47.6623 208.936 45.7287 208.916 43.0749" stroke="white" stroke-width="0.75" stroke-linecap="round" stroke-linejoin="round"/>
<path d="M183.059 41.0723C183.059 41.0723 187.271 44.0319 185.535 46.7745C183.799 49.5171 180.079 49.2508 180.079 49.2508" stroke="white" stroke-width="0.75" stroke-linecap="round" stroke-linejoin="round"/>
<path d="M182.782 51.8651C182.782 51.8651 182.556 55.3673 181.855 54.9037C181.155 54.44 179.517 51.1646 179.043 49.0633C178.57 46.9619 176.478 49.9906 176.942 54.9037C177.08 56.2926 177.65 57.6032 178.572 58.651C179.494 59.6988 180.722 60.4308 182.082 60.744C182.082 60.744 186.522 71.7243 190.961 74.9898C195.4 78.2553 198.676 75.927 200.777 72.188C202.879 68.449 205.453 49.0633 205.453 49.0633C201.823 49.989 198 49.8243 194.463 48.5897C191.22 47.3195 188.217 45.5045 185.584 43.2229C185.584 43.2229 188.85 47.4256 186.512 49.2902C185.353 50.2645 184.104 51.1267 182.782 51.8651V51.8651Z" fill="white" stroke="#263238" stroke-linecap="round" stroke-linejoin="round"/>
<path d="M197.502 57.9423C197.502 57.9423 199.376 63.7826 198.202 64.4831C197.028 65.1835 194.937 64.4831 194.937 64.4831" stroke="#263238" stroke-linecap="round" stroke-linejoin="round"/>
<path d="M191.435 66.8113C191.435 66.8113 193.062 69.8499 197.739 68.449" stroke="#263238" stroke-linecap="round" stroke-linejoin="round"/>
<path d="M193.062 57.8238C193.062 58.8104 192.697 59.57 192.244 59.57C191.79 59.57 191.435 58.7906 191.435 57.8238C191.435 56.857 191.8 56.0677 192.244 56.0677C192.687 56.0677 193.062 56.857 193.062 57.8238Z" fill="#263238"/>
<path d="M200.895 57.4686C200.895 58.4551 200.53 59.2247 200.077 59.2247C199.623 59.2247 199.258 58.4354 199.258 57.4686C199.258 56.5018 199.623 55.7224 200.077 55.7224C200.53 55.7224 200.895 56.5018 200.895 57.4686Z" fill="#263238"/>
<path d="M188.86 53.9664C189.395 53.342 190.095 52.88 190.879 52.6324C191.664 52.3848 192.502 52.3616 193.299 52.5655" stroke="#263238" stroke-linecap="round" stroke-linejoin="round"/>
<path d="M198.656 53.0293C198.656 53.0293 201.921 51.8651 202.395 55.3674" stroke="#263238" stroke-linecap="round" stroke-linejoin="round"/>
<path d="M93.4109 322.486C121.008 322.486 143.38 315.269 143.38 306.366C143.38 297.463 121.008 290.245 93.4109 290.245C65.8139 290.245 43.4421 297.463 43.4421 306.366C43.4421 315.269 65.8139 322.486 93.4109 322.486Z" fill="#407BFF"/>
<path opacity="0.5" d="M93.4109 322.486C121.008 322.486 143.38 315.269 143.38 306.366C143.38 297.463 121.008 290.245 93.4109 290.245C65.8139 290.245 43.4421 297.463 43.4421 306.366C43.4421 315.269 65.8139 322.486 93.4109 322.486Z" fill="white"/>
<path d="M138.013 64.2562C137.936 65.6395 137.734 67.013 137.411 68.3603C136.738 69.9973 135.923 71.572 134.974 73.0661L142.867 82.7935C142.867 82.7935 145.146 78.2356 146.359 77.624C147.532 77.2159 148.767 77.0124 150.009 77.0222C148.811 73.4423 147.177 70.023 145.146 66.841C141.969 61.9773 139.236 61.9773 138.013 64.2562Z" fill="white" stroke="#263238" stroke-linecap="round" stroke-linejoin="round"/>
<path d="M158.987 46.4786C158.987 46.4786 161.562 46.4786 163.999 42.0786C166.435 37.6785 162.321 32.9628 152.604 31.5915C142.886 30.2202 130.9 33.2588 127.378 41.9207C123.856 50.5826 129.963 61.6517 133.761 64.4042C137.559 67.1567 140.292 65.6275 141.653 64.71C143.015 63.7925 142.867 61.5235 143.32 61.3656C143.774 61.2078 145.294 63.6445 147.73 61.8293C150.167 60.014 148.036 56.5118 150.315 54.8346C152.594 53.1575 154.567 53.0095 154.419 50.2768C154.417 49.0975 154.261 47.9234 153.955 46.7844L158.987 46.4786Z" fill="#263238" stroke="#263238" stroke-linecap="round" stroke-linejoin="round"/>
<path d="M130.249 51.8849C129.749 52.5735 129.412 53.366 129.262 54.2033" stroke="white" stroke-width="0.75" stroke-linecap="round" stroke-linejoin="round"/>
<path d="M157.527 37.1064C157.527 37.1064 161.246 36.6131 158.513 40.066C155.781 43.519 151.608 43.7755 144.879 43.7755C140.41 43.7755 135.152 46.6562 132.054 49.754" stroke="white" stroke-width="0.75" stroke-linecap="round" stroke-linejoin="round"/>
<path d="M146.625 49.0042C146.625 49.0042 134.728 50.4939 131.008 56.1863" stroke="white" stroke-width="0.75" stroke-linecap="round" stroke-linejoin="round"/>
<path d="M134.53 69.2678C134.53 69.2678 137.727 72.3064 141.821 76.5584C145.915 80.8105 151.095 86.4239 151.095 86.4239C151.095 86.4239 144.86 87.9432 144.406 88.1011C143.952 88.2589 130.13 72.7503 130.13 72.7503L134.53 69.2678Z" fill="white" stroke="#263238" stroke-linecap="round" stroke-linejoin="round"/>
<path d="M66.2314 269.814C66.2314 269.814 57.8852 272.201 56.4646 274.253C55.0439 276.305 58.0431 284.652 57.7274 289.703C57.4117 294.754 56.7408 296.609 58.2009 298.049C59.661 299.489 65.452 302.784 68.7669 301.837C72.0817 300.89 68.4512 297.112 68.2933 295.06C68.1355 293.008 71.253 279.275 71.5095 278.495C71.766 277.716 68.1059 271.343 66.2314 269.814Z" fill="#407BFF" stroke="#263238" stroke-linecap="round" stroke-linejoin="round"/>
<path d="M65.2941 296.618C64.8206 295.356 67.504 282.274 65.452 276.749C64.6957 274.525 63.1231 272.67 61.052 271.56C59.0789 272.359 57.1058 273.326 56.4645 274.234C55.0538 276.276 58.043 284.632 57.7273 289.683C57.4116 294.734 56.7408 296.589 58.2008 298.029C59.6609 299.47 65.452 302.765 68.7668 301.818C69.1339 301.728 69.4729 301.548 69.7534 301.295C68.4906 300.18 65.6592 297.595 65.2941 296.618Z" fill="white" stroke="#263238" stroke-linecap="round" stroke-linejoin="round"/>
<path d="M68.9444 301.749C66.9713 300.989 64.3175 299.233 63.7157 297.566C62.9363 295.356 64.8206 284.79 63.252 278.17C62.2654 274.224 60.2923 272.971 58.7336 272.596C57.8686 272.973 57.0947 273.531 56.4645 274.234C55.0538 276.276 58.043 284.632 57.7273 289.683C57.4116 294.734 56.7408 296.589 58.2008 298.029C59.6609 299.47 65.452 302.765 68.7668 301.818L68.9444 301.749Z" fill="white" stroke="#263238" stroke-linecap="round" stroke-linejoin="round"/>
<path d="M120.531 171.632C120.531 171.632 119.614 197.894 117.729 208.085C115.845 218.276 110.015 227.895 108.13 231.289C106.246 234.683 79.8162 267.525 77.1723 271.304C74.5283 275.082 71.5095 278.476 71.5095 278.476L66.2314 269.794C66.2314 269.794 76.7974 249.412 80.1911 240.346C83.5849 231.279 95.2952 209.023 95.2952 209.023C95.2952 209.023 95.088 187.999 95.8477 185.345C96.6073 182.692 93.5786 173.645 95.4728 166.473C97.367 159.3 104.934 155.917 104.934 155.917" fill="#263238"/>
<path d="M120.531 171.632C120.531 171.632 119.614 197.894 117.729 208.085C115.845 218.276 110.015 227.895 108.13 231.289C106.246 234.683 79.8162 267.525 77.1723 271.304C74.5283 275.082 71.5095 278.476 71.5095 278.476L66.2314 269.794C66.2314 269.794 76.7974 249.412 80.1911 240.346C83.5849 231.279 95.2952 209.023 95.2952 209.023C95.2952 209.023 95.088 187.999 95.8477 185.345C96.6073 182.692 93.5786 173.645 95.4728 166.473C97.367 159.3 104.934 155.917 104.934 155.917" stroke="#263238" stroke-linecap="round" stroke-linejoin="round"/>
<path d="M131.383 294.813C131.383 294.813 132.192 295.346 140.262 295.888C148.332 296.431 151.026 294.004 150.759 296.421C150.493 298.838 145.106 303.416 140.805 305.3C136.503 307.184 128.7 307.727 125.464 309.335C122.228 310.943 119.012 310.953 119.012 307.184C119.012 303.416 122.238 296.155 122.238 296.155C122.238 296.155 129.233 297.773 131.383 294.813Z" fill="#407BFF" stroke="#263238" stroke-linecap="round" stroke-linejoin="round"/>
<path d="M146.182 299.657C141.614 302.883 134.619 303.958 127.891 306.375C125.034 307.5 121.853 307.479 119.012 306.316C119.012 306.622 119.012 306.918 119.012 307.184C119.012 310.953 122.238 310.953 125.464 309.335C128.69 307.717 136.503 307.184 140.805 305.33C145.106 303.475 150.493 298.878 150.759 296.451C150.828 295.8 150.68 295.464 150.286 295.405C149.229 297.093 147.831 298.541 146.182 299.657Z" fill="white" stroke="#263238" stroke-linecap="round" stroke-linejoin="round"/>
<path d="M138.477 157.801C138.477 157.801 141.229 197.48 143.873 211.824C146.517 226.169 136.967 254.552 135.468 263.234C133.968 271.915 132.192 295.948 132.192 295.948C132.192 295.948 130.683 299.726 128.414 300.476C126.145 301.226 122.001 301.61 122.001 298.966C122.001 296.323 121.123 279.087 121.123 274.559C121.123 270.031 121.873 230.658 121.873 223.101C121.873 215.544 112.816 178.183 112.432 170.261C112.047 162.339 112.432 156.676 116.585 155.167C120.738 153.657 138.477 157.801 138.477 157.801Z" fill="#263238" stroke="#263238" stroke-linecap="round" stroke-linejoin="round"/>
<path d="M143.972 117.796C143.972 117.796 140.193 138.741 140.026 144.966C139.858 151.191 141.347 159.508 137.766 161.205C134.692 162.629 131.206 162.896 127.95 161.954C125.869 161.205 124.359 161.767 124.556 156.676C124.754 151.586 140.765 115.152 143.972 117.796Z" fill="white" stroke="#263238" stroke-linecap="round" stroke-linejoin="round"/>
<path d="M119.732 79.1038C119.732 79.1038 97.6531 95.2437 91.9903 99.1998C86.3275 103.156 85.4791 108.829 86.3275 112.222C87.176 115.616 98.7778 143.082 98.7778 143.082L105.289 132.328C105.289 132.328 100.475 113.357 100.761 110.811C101.047 108.266 109.255 104.014 109.255 104.014L119.732 79.1038Z" fill="#407BFF" stroke="#263238" stroke-linecap="round" stroke-linejoin="round"/>
<path d="M199.939 138.968L203.51 139.264C203.51 139.264 209.38 134.124 211.402 132.407C213.425 130.691 222.866 136.126 222.866 136.126C222.866 136.126 224.454 136.482 222.728 137.251C221.001 138.021 216.197 138.553 215.97 139.017C215.743 139.481 209.765 145.597 207.673 146.643C205.582 147.689 196.476 144.759 196.476 144.759L199.939 138.968Z" fill="white" stroke="#263238" stroke-linecap="round" stroke-linejoin="round"/>
<path d="M129.203 72.7603C129.203 72.7603 138.93 81.2742 144.85 86.572C150.769 91.8697 173.055 118.753 184.401 127.218C195.746 135.682 199.939 138.948 199.939 138.948L198.321 144.561C198.321 144.561 196.436 146.169 185.93 141.947C175.423 137.725 165.35 131.421 157.882 126.212C150.414 121.003 145.057 116.504 145.057 116.504C145.057 116.504 133.307 143.417 130.584 154.2C127.861 164.983 124.961 178.509 123.747 181.547C122.534 184.586 120.255 186.865 117.364 186.865C114.474 186.865 110.074 184.744 101.866 178.972C93.6577 173.201 88.8038 169.561 88.054 168.337C87.3043 167.114 100.662 132.94 103.543 117.895C106.424 102.85 108.88 82.1818 129.203 72.7603Z" fill="#407BFF" stroke="#263238" stroke-linecap="round" stroke-linejoin="round"/>
<path d="M133.406 111.423L145.008 116.524L124.655 118.655" stroke="#263238" stroke-linecap="round" stroke-linejoin="round"/>
<path d="M142.926 86.6804C140.89 86.1909 138.762 86.2498 136.757 86.8512C134.751 87.4526 132.942 88.5749 131.511 90.1037" stroke="#263238" stroke-linecap="round" stroke-linejoin="round"/>
<path d="M133.968 143.654C133.968 143.654 126.421 161.767 121.32 168.377C116.22 174.987 113.023 178.943 113.023 178.943C113.023 178.943 123.402 181.399 121.518 184.606C121.518 184.606 123.027 183.471 126.046 173.28C129.065 163.089 133.968 143.654 133.968 143.654Z" fill="#407BFF" stroke="#263238" stroke-linecap="round" stroke-linejoin="round"/>
<path d="M145.007 59.2445C145.007 59.2445 144.396 54.2328 141.209 53.3252C138.023 52.4175 137.411 60.9216 138.93 63.8122C139.392 64.6599 140.043 65.3888 140.834 65.9418C141.625 66.4948 142.534 66.8566 143.488 66.9988C143.488 66.9988 146.981 75.3548 149.871 77.6338C152.762 79.9127 153.817 77.7916 155.485 76.2723C157.152 74.7531 158.987 64.7198 158.987 64.7198C158.987 64.7198 163.239 63.8122 162.933 62.1351C162.627 60.4579 159.589 58.0409 160.042 56.5216C160.496 55.0023 161.562 53.631 161.562 52.4175C161.209 50.0105 160.546 47.6593 159.589 45.4229C158.987 44.3673 152.15 44.3673 149.871 45.5808C147.592 46.7942 151.844 48.0077 151.233 49.9808C150.621 51.9539 146.981 52.7234 146.675 53.927C146.369 55.1306 148.046 61.3656 145.007 59.2445Z" fill="white" stroke="#263238" stroke-linecap="round" stroke-linejoin="round"/>
<path d="M160.565 53.3746C160.565 53.3746 159.677 51.0069 157.32 53.6607Z" fill="white"/>
<path d="M160.565 53.3746C160.565 53.3746 159.677 51.0069 157.32 53.6607" stroke="#263238" stroke-linecap="round" stroke-linejoin="round"/>
<path d="M152.564 66.2985C152.893 66.8956 153.375 67.3937 153.962 67.7408C154.549 68.0878 155.217 68.2712 155.899 68.2716" fill="white"/>
<path d="M152.564 66.2985C152.893 66.8956 153.375 67.3937 153.962 67.7408C154.549 68.0878 155.217 68.2712 155.899 68.2716" stroke="#263238" stroke-linecap="round" stroke-linejoin="round"/>
<path d="M157.843 59.0078C158.295 59.0078 158.661 58.2084 158.661 57.2222C158.661 56.236 158.295 55.4365 157.843 55.4365C157.39 55.4365 157.024 56.236 157.024 57.2222C157.024 58.2084 157.39 59.0078 157.843 59.0078Z" fill="#263238"/>
<path d="M117.858 205.826L108.111 188.029L100.899 185.484" stroke="white" stroke-width="0.75" stroke-linecap="round" stroke-linejoin="round"/>
<path d="M277.985 297.506C305.582 297.506 327.954 290.289 327.954 281.386C327.954 272.483 305.582 265.266 277.985 265.266C250.388 265.266 228.016 272.483 228.016 281.386C228.016 290.289 250.388 297.506 277.985 297.506Z" fill="#407BFF"/>
<path opacity="0.5" d="M277.985 297.506C305.582 297.506 327.954 290.289 327.954 281.386C327.954 272.483 305.582 265.266 277.985 265.266C250.388 265.266 228.016 272.483 228.016 281.386C228.016 290.289 250.388 297.506 277.985 297.506Z" fill="white"/>
<path d="M254.89 40.6283C247.116 43.2328 239.884 48.353 237.359 55.0714C234.034 63.8615 250.519 66.5844 254.89 73.1943C259.26 79.8042 251.595 84.7369 252.147 94.6222C252.7 104.507 271.375 99.0222 280.165 108.907C288.955 118.793 280.718 122.098 291.698 130.888C302.678 139.678 309.831 140.753 316.431 130.335C323.031 119.917 327.964 107.26 318.078 96.7926C308.193 86.3253 290.603 83.6123 291.698 75.9172C292.793 68.2221 301.041 57.7844 291.155 48.9942C285.127 43.8579 277.834 40.4278 270.033 39.0597C265.604 38.2605 260.109 38.8722 254.89 40.6283Z" fill="#263238" stroke="#263238" stroke-linecap="round" stroke-linejoin="round"/>
<path d="M253.213 53.3645C253.213 53.3645 246.307 52.8318 246.553 48.0372C246.8 43.2425 263.058 41.3878 269.185 41.3878" stroke="white" stroke-width="0.75" stroke-linecap="round" stroke-linejoin="round"/>
<path d="M251.614 50.1681C257.514 50.1607 263.205 52.3439 267.587 56.2946C275.035 62.9439 285.413 65.3413 292.339 63.2004" stroke="white" stroke-width="0.75" stroke-linecap="round" stroke-linejoin="round"/>
<path d="M250.815 56.2947C250.815 56.2947 238.572 57.0938 240.95 61.0794C243.327 65.0651 248.97 64.8086 248.97 64.8086" stroke="white" stroke-width="0.75" stroke-linecap="round" stroke-linejoin="round"/>
<path d="M261.795 87.9926C261.795 87.9926 255.018 91.4356 253.844 93.4581C252.67 95.4805 243.416 117.135 243.416 117.135C243.416 117.135 236.027 122.344 228.46 128.905C225.905 130.932 222.999 132.47 219.887 133.443C219.887 133.443 212.488 135.12 210.643 135.801C208.798 136.482 205.937 142.351 205.434 144.68C204.931 147.008 207.111 148.034 208.966 148.202C210.82 148.369 216.187 141.986 216.69 141.483C216.908 141.327 217.154 141.217 217.416 141.16C217.677 141.102 217.947 141.098 218.21 141.148C218.21 141.148 214.007 145.686 214.007 146.189C214.007 146.692 214.51 148.034 215.852 147.028C217.193 146.021 218.377 144.334 220.725 142.154C223.073 139.974 226.447 136.777 227.631 135.603C228.815 134.429 239.233 129.684 243.603 127.03C246.401 125.442 248.948 123.447 251.16 121.111C252.147 119.937 261.075 104.133 261.075 104.133L261.795 87.9926Z" fill="white" stroke="#263238" stroke-linecap="round" stroke-linejoin="round"/>
<path d="M205.848 145.656C205.848 145.656 209.054 139.658 210.169 138.543" stroke="#263238" stroke-linecap="round" stroke-linejoin="round"/>
<path d="M206.825 147.482C206.825 147.482 211.422 139.678 212.261 139.264" stroke="#263238" stroke-linecap="round" stroke-linejoin="round"/>
<path d="M208.216 148.024C208.216 148.024 213.238 140.072 214.352 139.52" stroke="#263238" stroke-linecap="round" stroke-linejoin="round"/>
<path d="M245.675 111.877C248.198 113.831 250.834 115.637 253.568 117.283C256.527 112.252 261.056 104.211 261.056 104.211L261.796 87.9926C261.796 87.9926 255.018 91.4356 253.844 93.4581C253.035 94.8294 248.487 105.326 245.675 111.877Z" fill="#407BFF" stroke="#263238" stroke-linecap="round" stroke-linejoin="round"/>
<path d="M284.259 208.648C284.259 208.648 295.013 245.969 298.377 254.364C301.741 262.76 302.076 276.216 301.741 280.251C301.406 284.286 298.209 290.847 297.203 293.363C296.197 295.878 300.222 295.888 302.412 294.349C304.602 292.81 310.985 290.482 312.494 285.47C314.004 280.459 312.494 274.372 312.83 272.014C313.165 269.656 315.859 269.666 313.165 265.631C310.472 261.596 306.447 257.896 305.944 255.765C305.441 253.634 302.915 243.828 304.257 234.249C305.598 224.669 302.076 214.074 301.238 211.055C300.966 209.763 300.511 208.518 299.886 207.355C299.886 207.355 288.965 209.634 284.259 208.648Z" fill="white" stroke="#263238" stroke-linecap="round" stroke-linejoin="round"/>
<path d="M313.165 265.581C312.297 264.279 311.291 263.016 310.314 261.823V265.769C310.314 269.301 309.979 278.88 307.285 281.909C305.312 284.129 302.53 283.537 301.179 283.073C300.064 286.567 298.746 289.993 297.232 293.333C296.246 295.859 300.251 295.859 302.441 294.32C304.632 292.781 311.015 290.452 312.524 285.441C314.033 280.429 312.524 274.342 312.859 271.984C313.195 269.626 315.858 269.616 313.165 265.581Z" fill="#407BFF" stroke="#263238" stroke-linecap="round" stroke-linejoin="round"/>
<path d="M261.056 204.228C261.056 204.228 258.708 232.838 256.863 243.562C255.018 254.285 252.828 264.743 251.141 267.091C249.454 269.439 241.394 275.832 239.884 277.016C238.375 278.199 239.884 279.699 240.871 280.202C241.857 280.705 247.934 281.386 252.305 277.686C256.675 273.987 257.346 271.767 259.023 271.126C260.7 270.485 262.052 270.287 262.555 266.252C263.058 262.217 260.197 260.205 261.717 256.002C263.395 251.178 265.372 246.463 267.636 241.884C271 234.821 274.364 227.422 274.364 222.045C274.364 216.668 273.634 210.956 273.634 209.634C273.753 208.163 273.981 206.702 274.315 205.264L261.026 203.291L261.056 204.228Z" fill="white" stroke="#263238" stroke-linecap="round" stroke-linejoin="round"/>
<path d="M262.131 262.336C261.745 262.841 261.414 263.387 261.144 263.963C260 266.469 254.308 273.296 251.348 273.069C249.643 272.861 247.98 272.395 246.415 271.688C243.712 274.016 240.752 276.345 239.904 277.016C238.385 278.19 239.904 279.699 240.891 280.202C241.877 280.705 247.954 281.386 252.325 277.686C256.695 273.987 257.366 271.767 259.043 271.126C260.72 270.485 262.072 270.287 262.575 266.252C262.712 264.93 262.56 263.594 262.131 262.336V262.336Z" fill="#407BFF" stroke="#263238" stroke-linecap="round" stroke-linejoin="round"/>
<path d="M268.958 84.7172C268.958 84.7172 264.39 86.858 262.378 87.6768C260.365 88.4957 259.191 93.458 260.03 96.4867C260.868 99.5154 259.714 110.417 260.888 114.62C262.062 118.822 269.629 123.36 271.316 125.205C272.448 126.598 273.302 128.196 273.831 129.911L263.581 147.728C259.714 154.456 243.239 191.768 243.239 191.768C243.239 191.768 247.954 204.04 272.993 209.249C298.032 214.458 324.432 205.718 328.131 203.33C330.952 201.382 333.593 199.187 336.024 196.77C336.024 196.77 325.26 170.379 317.526 155.759C309.791 141.138 298.367 127.149 298.367 127.149L297.696 115.379C297.696 115.379 295.723 98.4006 294.164 95.0365C292.606 91.6724 284.753 87.4795 280.55 86.4634C276.347 85.4472 272.322 84.5495 268.958 84.7172Z" fill="#263238" stroke="#263238" stroke-linecap="round" stroke-linejoin="round"/>
<path d="M265.347 109.618C265.347 109.618 272.973 112.163 278.912 111.739" stroke="white" stroke-width="0.75" stroke-linecap="round" stroke-linejoin="round"/>
<path d="M276.367 131.697C276.367 131.697 265.742 157.929 263.226 165.565" stroke="white" stroke-width="0.75" stroke-linecap="round" stroke-linejoin="round"/>
<path d="M279.751 133.778L277.215 147.758" stroke="white" stroke-width="0.75" stroke-linecap="round" stroke-linejoin="round"/>
<path d="M293.365 135.051C293.365 135.051 297.183 160.05 298.032 169.797" stroke="white" stroke-width="0.75" stroke-linecap="round" stroke-linejoin="round"/>
<path d="M295.861 135.89L305.608 157.081" stroke="white" stroke-width="0.75" stroke-linecap="round" stroke-linejoin="round"/>
<path d="M280.54 86.5621C276.337 85.5755 272.302 84.589 268.938 84.7172C268.938 84.7172 266.432 85.8912 263.917 87.0356C263.448 88.5851 263.118 90.1731 262.93 91.7809C262.427 95.6383 264.272 101.696 264.272 101.696L279.908 103.876C279.908 103.876 280.412 99.3379 281.418 94.4643C281.856 92.0857 282.751 89.8143 284.052 87.7755C282.916 87.2759 281.742 86.8701 280.54 86.5621Z" fill="#407BFF" stroke="#263238" stroke-linecap="round" stroke-linejoin="round"/>
<path d="M293.503 118.506C294.201 118.807 294.96 118.938 295.718 118.888C296.476 118.838 297.211 118.609 297.864 118.22L297.706 115.478C297.706 115.478 295.733 98.4992 294.174 95.1351C293.276 93.162 290.11 90.8436 286.805 89.0974C285.367 93.3748 284.621 97.8541 284.595 102.367C284.595 110.269 288.294 116.149 293.503 118.506Z" fill="#407BFF" stroke="#263238" stroke-linecap="round" stroke-linejoin="round"/>
<path d="M266.945 84.3422C265.784 87.9903 265.104 91.7745 264.923 95.5988C264.923 100.65 266.107 99.9692 267.784 99.1306C269.329 98.136 270.741 96.9492 271.987 95.5988C271.987 95.5988 276.022 101.153 277.028 100.532C278.034 99.91 279.721 89.936 278.883 85.7333C278.044 81.5306 275.183 80.1888 272.657 80.1888C270.132 80.1888 268.119 81.8561 266.945 84.3422Z" fill="white" stroke="#263238" stroke-linecap="round" stroke-linejoin="round"/>
<path d="M264.42 83.7108C264.42 83.7108 267.448 88.4166 267.952 90.4292C268.455 92.4418 270.813 96.3485 271.987 95.6382C273.16 94.9279 274.68 87.7458 274.68 84.5494C274.68 81.3529 271.987 74.8022 271.987 74.8022C271.987 74.8022 265.426 83.8785 264.42 83.7108Z" fill="white" stroke="#263238" stroke-linecap="round" stroke-linejoin="round"/>
<path d="M250.134 64.8776C250.134 64.8776 249.148 61.691 247.609 64.7098C246.07 67.7287 250.47 71.2704 250.47 71.2704L250.134 64.8776Z" fill="white" stroke="#263238" stroke-linecap="round" stroke-linejoin="round"/>
<path d="M276.692 63.2006C275.89 63.3353 275.135 63.6751 274.502 64.1871C273.516 65.2624 272.657 66.1602 272.657 66.1602C269.479 63.0534 266.621 59.636 264.124 55.9593C261.756 52.2104 258.204 52.0131 254.169 52.5063C252.359 53.5797 250.988 55.2615 250.302 57.2516C249.128 61.7898 250.135 71.3692 250.47 73.5495C250.805 75.7297 258.875 86.1576 263.413 85.4867C267.952 84.8159 272.825 73.8849 272.825 73.8849C272.825 73.8849 279.553 71.3692 280.224 68.8436C280.895 66.318 279.05 62.8651 276.692 63.2006Z" fill="white" stroke="#263238" stroke-linecap="round" stroke-linejoin="round"/>
<path d="M257.366 66.5844C257.366 66.5844 258.204 67.0875 257.366 68.2615C256.527 69.4355 254.505 70.9548 255.343 71.6256C255.998 72.0718 256.748 72.3589 257.534 72.4642" stroke="#263238" stroke-linecap="round" stroke-linejoin="round"/>
<path d="M258.836 75.4633C258.836 75.4633 262.536 77.1404 264.883 74.2893" stroke="#263238" stroke-linecap="round" stroke-linejoin="round"/>
<path d="M262.476 66.2686C262.476 67.3834 262.062 68.2417 261.549 68.2417C261.036 68.2417 260.622 67.344 260.622 66.2686C260.622 65.1933 261.036 64.2462 261.549 64.2462C262.062 64.2462 262.476 65.1538 262.476 66.2686Z" fill="#263238"/>
<path d="M254.436 67.709C254.948 67.709 255.363 66.8079 255.363 65.6964C255.363 64.5849 254.948 63.6838 254.436 63.6838C253.924 63.6838 253.509 64.5849 253.509 65.6964C253.509 66.8079 253.924 67.709 254.436 67.709Z" fill="#263238"/>
<path d="M260.72 61.6516C260.72 61.6516 262.91 59.4615 265.426 62.6382" stroke="#263238" stroke-linecap="round" stroke-linejoin="round"/>
<path d="M256.685 61.6516C256.685 61.6516 254.337 58.6229 252.66 61.6516" stroke="#263238" stroke-linecap="round" stroke-linejoin="round"/>
<path d="M287.623 90.2616C287.623 90.2616 292.161 89.7584 294.174 92.4517C296.187 95.145 309.209 114.698 309.209 114.698L300.518 122.107L289.3 110.101" fill="#407BFF"/>
<path d="M287.623 90.2616C287.623 90.2616 292.161 89.7584 294.174 92.4517C296.187 95.145 309.209 114.698 309.209 114.698L300.518 122.107L289.3 110.101" stroke="#263238" stroke-linecap="round" stroke-linejoin="round"/>
<path d="M316.056 124.722C316.243 123.597 312.711 119.069 309.239 114.698C307.293 115.126 305.483 116.025 303.968 117.317C302.452 118.609 301.277 120.254 300.547 122.107C302.52 124.771 304.118 127.04 304.118 127.04C304.118 127.04 300.764 136.284 299.077 143.002C297.903 147.708 293.858 154.042 291.53 157.436C290.77 158.314 289.399 159.734 288.413 159.951C286.972 160.277 286.647 159.636 285.048 161.076C283.45 162.516 281.033 164.766 279.908 165.565C278.784 166.364 280.54 167.074 281.526 167.212C282.513 167.351 285.058 165.121 285.058 165.121H286.824L281.684 173.309C281.684 173.309 280.885 174.592 282.326 174.592C283.766 174.592 286.824 170.103 286.824 170.103H288.265C288.265 170.103 284.575 175.233 284.575 175.874C284.575 176.516 285.7 176.861 286.341 176.516C286.982 176.17 290.514 171.386 290.514 171.386L288.107 176.841C288.107 176.841 288.422 177.64 289.547 177.315C290.672 176.989 292.921 172.027 292.921 172.027C292.921 172.027 291.796 176.2 292.753 176.358C293.71 176.516 294.845 171.218 294.845 171.218L296.443 161.431L298.031 159.221C300.606 156.084 306.299 149.139 309.14 144.877C312.83 139.342 315.691 126.764 316.056 124.722Z" fill="white" stroke="#263238" stroke-linecap="round" stroke-linejoin="round"/>
<path d="M232.455 158.65L233.787 160.139" stroke="#263238" stroke-linecap="round" stroke-linejoin="round"/>
<path d="M225.461 150.777L230.877 156.864" stroke="#263238" stroke-linecap="round" stroke-linejoin="round"/>
<path d="M236.392 139.323L242.636 140.369" stroke="#263238" stroke-linecap="round" stroke-linejoin="round"/>
<path d="M217.134 121.634L221.298 113.831" stroke="#263238" stroke-linecap="round" stroke-linejoin="round"/>
<path d="M167.234 144.226L176.025 142.973" stroke="#263238" stroke-linecap="round" stroke-linejoin="round"/>
<path d="M161.463 145.055L163.683 144.729" stroke="#263238" stroke-linecap="round" stroke-linejoin="round"/>
<path d="M202.227 167.903L201.527 170.547" stroke="white" stroke-linecap="round" stroke-linejoin="round"/>
<path d="M205.69 154.94L203.135 164.5" stroke="white" stroke-linecap="round" stroke-linejoin="round"/>
<path d="M185.92 149.218L173.43 156.499" stroke="white" stroke-linecap="round" stroke-linejoin="round"/>
</svg>
