<svg width="382" height="304" viewBox="0 0 382 304" fill="none" xmlns="http://www.w3.org/2000/svg">
<path d="M381.001 288.572H9.87964V303.797H381.001V288.572Z" fill="#407BFF"/>
<path opacity="0.5" d="M381.001 288.572H9.87964V303.797H381.001V288.572Z" fill="white"/>
<path d="M102.298 125.269C100.482 125.859 98.7003 126.548 96.9598 127.334C97.9114 126.629 98.863 125.916 99.8146 125.183C104.058 121.78 108.094 118.126 111.9 114.24C107.437 118.583 102.666 122.6 97.6259 126.258C98.3141 125.049 98.9244 123.796 99.453 122.509C100.357 120.139 100.576 117.751 98.3111 116.485C95.5324 114.925 92.1543 117.256 93.0488 121.243C93.5858 123.469 94.635 125.538 96.1129 127.286C92.8279 129.559 89.398 131.616 85.8452 133.443L85.5026 133.614C86.2579 132.313 86.9224 130.962 87.4915 129.57C88.3955 127.21 88.6143 124.812 86.3496 123.556C83.5709 121.986 80.1927 124.326 81.0872 128.314C81.6189 130.511 82.6513 132.557 84.1038 134.29C79.8311 136.393 75.4062 138.182 71.0194 140.123L70.3818 140.408C71.2411 139.487 72.0359 138.508 72.7608 137.478C74.1977 135.394 74.959 133.129 73.0558 131.359C70.7149 129.189 66.8895 130.683 66.8229 134.794C66.8238 137.064 67.355 139.303 68.374 141.331C64.269 143.237 60.3667 145.551 56.7265 148.24L56.6123 148.335C57.104 147.555 57.552 146.748 57.954 145.918C59.0293 143.625 59.429 141.265 57.2689 139.828C56.8285 139.523 56.3246 139.322 55.7951 139.241C55.2657 139.159 54.7246 139.199 54.213 139.358C53.7014 139.517 53.2325 139.79 52.842 140.156C52.4515 140.523 52.1495 140.974 51.959 141.474C51.6714 141.026 51.2796 140.654 50.8171 140.389C48.6379 139.133 46.4968 140.494 44.6698 142.416C44.194 142.921 43.7182 143.454 43.309 143.996C44.7236 140.06 46.5045 136.265 48.6284 132.662C50.6438 133.552 52.8202 134.018 55.0231 134.033C59.3624 134.033 61.1989 130.417 59.0674 128.171C57.3355 126.353 54.8994 127.048 52.5965 128.38C51.8351 128.822 51.0982 129.305 50.3888 129.827C52.5975 126.504 55.1042 123.389 57.8779 120.52C59.6635 121.995 61.7429 123.072 63.9776 123.679C68.1932 124.717 70.8481 121.662 69.316 118.969C68.079 116.78 65.5097 116.866 62.9879 117.599C61.7871 117.965 60.6084 118.4 59.4575 118.902C60.609 117.789 61.7984 116.714 62.9975 115.648C64.5866 114.297 66.2234 112.993 67.8791 111.718C69.6702 113.146 71.7421 114.18 73.9598 114.753C78.1754 115.791 80.8208 112.736 79.2982 110.043C78.0612 107.854 75.4919 107.94 72.9702 108.673C72.3706 108.844 71.7807 109.053 71.1907 109.272C73.3889 107.702 75.6251 106.17 77.8518 104.648L79.9263 103.23C81.7859 104.79 83.9708 105.915 86.321 106.522C90.5366 107.559 93.182 104.505 91.6594 101.812C90.4224 99.6231 87.8531 99.7088 85.3314 100.442C84.333 100.741 83.3514 101.093 82.3909 101.498V101.498C82.8191 101.193 83.2474 100.889 83.6661 100.546C84.4559 99.9847 85.2267 99.4043 85.9975 98.8143C86.9491 98.1006 87.8436 97.3013 88.7761 96.5495C89.2995 96.1308 89.8133 95.6835 90.3177 95.2268C92.1859 96.802 94.3844 97.937 96.7505 98.5478C100.966 99.5851 103.611 96.5305 102.089 93.8374C100.852 91.6488 98.2825 91.7344 95.7608 92.4672C94.3465 92.9038 92.9609 93.4282 91.6119 94.0373V94.0373C93.3342 92.4386 94.9995 90.7733 96.5697 89.0414L96.8837 88.6798C97.5593 87.9281 98.2349 87.1573 98.882 86.377C99.5291 85.5967 100.357 84.5404 101.061 83.5983C103.962 79.8087 106.343 75.6482 108.141 71.2276C106.254 75.5927 103.796 79.6885 100.833 83.408C97.8998 87.1429 94.6283 90.5992 91.0599 93.7328L90.6698 94.0658C91.4911 92.6607 92.216 91.2014 92.8394 89.698C93.791 87.3381 93.9623 84.9401 91.6975 83.684C88.9188 82.1138 85.5407 84.4547 86.4352 88.4419C87.0064 90.8042 88.154 92.9881 89.7753 94.7986L88.9379 95.5218L87.9863 96.3401C87.4249 96.7874 86.8634 97.2156 86.2925 97.6438L85.3409 98.3385C84.532 98.938 83.7041 99.5185 82.8762 100.089L81.6963 100.898L80.345 101.85C81.1288 100.499 81.8218 99.0966 82.4195 97.6533C83.3235 95.2839 83.5423 92.8954 81.2776 91.6298C78.4989 90.0691 75.1208 92.4101 76.0152 96.3877C76.5697 98.677 77.6626 100.801 79.2031 102.583L78.2039 103.23L74.4927 105.656L73.7695 106.132L71.7045 107.512L70.81 108.111C69.8584 108.768 68.9069 109.434 67.9553 110.119C68.7556 108.748 69.4614 107.324 70.0678 105.856C70.9718 103.496 71.1907 101.098 68.9259 99.842C66.1472 98.2719 62.7691 100.613 63.6636 104.6C64.2283 106.919 65.3447 109.067 66.918 110.861C65.3003 112.051 63.7112 113.269 62.1601 114.544C61.0277 115.496 59.9048 116.447 58.82 117.475C59.2972 116.595 59.7199 115.686 60.0856 114.753C61.0372 112.384 61.2085 109.996 58.9437 108.739C56.165 107.169 52.7869 109.51 53.6814 113.497C54.2172 115.694 55.2491 117.738 56.6979 119.473C53.616 122.539 50.8372 125.894 48.4 129.494C48.6782 128.455 48.8912 127.4 49.0376 126.334C49.3421 123.822 48.9805 121.462 46.4778 120.777C43.3946 119.93 40.6826 123.013 42.5192 126.686C43.5782 128.707 45.0892 130.456 46.9346 131.796C44.5472 135.717 42.5458 139.86 40.9586 144.167C40.9259 143.268 40.8369 142.372 40.6921 141.484C40.2734 138.981 39.2552 136.821 36.6574 136.868C33.4695 136.935 31.7471 140.675 34.5448 143.663C36.0469 145.222 37.8769 146.428 39.9023 147.193C38.8226 150.523 37.9392 153.913 37.2569 157.347C37.1522 157.889 37.0665 158.432 36.9619 158.974C36.8477 159.079 36.7335 159.183 36.6288 159.298C36.5146 158.831 36.3814 158.346 36.2291 157.899C35.4298 155.501 34.0881 153.512 31.5378 153.969C28.388 154.511 27.2556 158.46 30.491 161.001C32.1404 162.253 34.0384 163.139 36.0578 163.599L36.172 163.875C35.8295 166.454 35.563 169.051 35.4012 171.659C35.2775 173.562 35.2109 175.551 35.1729 177.502C32.4513 177.502 30.5291 180.49 32.4037 183.725C33.1966 185.065 34.21 186.262 35.4012 187.265C35.6296 190.928 35.9912 194.592 36.4766 198.227C36.0912 197.872 35.6203 197.623 35.1099 197.505C34.5994 197.386 34.067 197.402 33.5647 197.552C31.8518 198.018 31.081 199.398 30.7955 201.092C30.1951 201.728 29.8555 202.567 29.8439 203.442C28.5688 201.539 27.3698 199.636 26.1993 197.618C27.9828 196.252 29.4608 194.527 30.5386 192.556C32.5941 188.749 30.2817 185.409 27.2937 186.218C24.8671 186.875 24.3247 189.358 24.4389 192.013C24.4756 193.02 24.5709 194.024 24.7244 195.02C24.2962 194.288 23.8775 193.545 23.4683 192.813C22.4215 190.909 21.5651 189.006 20.5374 187.103C20.29 186.637 20.0711 186.151 19.8617 185.676C21.8696 184.67 23.6432 183.254 25.067 181.517C27.798 178.149 26.1518 174.447 23.0686 174.685C20.5659 174.885 19.5667 177.216 19.148 179.842C18.9728 180.986 18.871 182.14 18.8435 183.297L17.949 181.232C16.0468 176.546 14.479 171.732 13.2577 166.825C15.5251 166.017 17.5854 164.717 19.2908 163.018C22.3454 159.926 21.0798 156.091 17.9871 156.015C15.4749 155.957 14.2473 158.175 13.5622 160.773C13.2257 162.152 12.9715 163.55 12.8009 164.96C12.1443 162.105 11.5734 159.298 11.0976 156.443C10.774 154.673 10.5647 152.874 10.3363 151.085C12.7782 150.602 15.0785 149.57 17.0641 148.069C20.4898 145.404 19.7285 141.408 16.6739 140.96C14.1902 140.57 12.6867 142.616 11.678 145.081C11.0838 146.635 10.5848 148.224 10.184 149.839C9.99372 147.764 9.77485 145.68 9.67969 143.596C9.40847 139.292 9.42754 134.975 9.73679 130.674C9.29747 134.973 9.14806 139.296 9.28954 143.615C9.28954 145.604 9.46082 147.583 9.58453 149.572C9.03868 148.221 8.40286 146.908 7.68134 145.642C6.37766 143.463 4.65528 141.836 2.24775 142.787C-0.702191 144.005 -0.959121 148.097 2.74258 149.886C4.92308 150.885 7.31349 151.339 9.70824 151.209C9.87953 152.979 10.0223 154.758 10.2982 156.519C10.6693 159.326 11.1451 162.114 11.6971 164.883C11.0949 163.82 10.4209 162.8 9.67969 161.829C8.10956 159.84 6.17783 158.432 3.97013 159.716C1.201 161.305 1.47696 165.426 5.37849 166.691C7.59139 167.38 9.93563 167.537 12.2204 167.148C13.303 172.111 14.7307 176.992 16.4931 181.755L17.0641 183.183C16.5604 182.516 16.017 181.88 15.4368 181.279C13.6764 179.452 11.6305 178.244 9.49889 179.757C6.90104 181.612 7.5957 185.657 11.6019 186.551C13.8232 187.003 16.1186 186.938 18.3106 186.361C18.501 186.846 18.7103 187.312 18.9482 187.807C19.8998 189.768 20.7467 191.775 21.7459 193.698L22.6118 195.344C22.1195 194.911 21.605 194.505 21.0703 194.126C18.9958 192.67 16.75 191.871 14.9515 193.745C12.7533 196.058 14.1807 199.902 18.2916 200.026C20.3948 200.081 22.4852 199.682 24.4199 198.855C25.5903 200.987 26.8084 203.09 28.1216 205.155C28.6069 205.945 29.0732 206.725 29.6251 207.505C28.8782 206.804 28.0868 206.153 27.2556 205.554C25.1907 204.099 22.9354 203.299 21.1464 205.174C18.9387 207.486 20.3756 211.331 24.4865 211.454C26.8359 211.481 29.1582 210.95 31.2618 209.903C31.9343 210.855 32.6385 211.806 33.3744 212.758C31.8423 214.538 32.3371 217.516 35.4488 218.877C36.961 219.504 38.5713 219.862 40.2068 219.933L40.7968 220.38L40.9015 220.456C42.8659 227.807 45.197 235.054 47.8862 242.172C49.0344 245.211 50.2461 248.221 51.5212 251.202H40.1021V296.241H74.9875V251.193H56.3458C54.7567 247.72 53.2341 244.208 51.8067 240.659C49.4753 234.825 47.3628 228.916 45.5167 222.912C45.8287 223.005 46.1466 223.078 46.4683 223.13C46.8912 223.214 47.3243 223.233 47.7529 223.188L47.2581 220.057H47.1915H46.925C46.7538 220.057 46.5254 219.971 46.3255 219.943C45.8883 219.819 45.4619 219.66 45.0504 219.467L44.5556 219.238C46.3895 218.599 48.0919 217.632 49.58 216.384C52.8915 213.529 51.9495 209.627 48.8758 209.294C46.3731 209.018 44.9648 211.131 44.1178 213.634C43.8609 214.347 43.6516 215.089 43.4612 215.813C43.29 215.147 43.0996 214.48 42.9379 213.814C42.4335 211.845 41.9863 209.856 41.5295 207.867C43.5179 207.234 45.3636 206.219 46.9631 204.879C50.2747 202.024 49.3326 198.132 46.2589 197.799C43.7562 197.523 42.3479 199.636 41.501 202.138C41.2416 202.866 41.0193 203.606 40.8349 204.355C40.5494 202.9 40.2639 201.453 40.0165 199.997C39.8262 198.912 39.6644 197.837 39.5026 196.752C39.436 195.211 39.417 193.669 39.436 192.118C39.436 191.271 39.436 190.424 39.5121 189.568C41.3762 190.165 43.3338 190.417 45.2883 190.31C49.6181 190.024 51.2262 186.313 48.9615 184.21C47.1154 182.488 44.7269 183.344 42.5097 184.81C41.5138 185.483 40.5604 186.217 39.6549 187.008C39.9182 183.386 40.4654 179.791 41.2916 176.255C41.7848 174.173 42.3948 172.121 43.1187 170.108C45.1076 170.797 47.2119 171.091 49.3135 170.974C53.6433 170.698 55.2515 166.986 52.9867 164.874C51.1406 163.161 48.7521 164.008 46.5349 165.483C45.7475 166.014 44.9884 166.586 44.2606 167.196C45.0931 165.225 46.0663 163.317 47.1725 161.486C49.3866 157.806 52.1531 154.487 55.3752 151.647C57.0305 153.18 58.9883 154.35 61.1228 155.082C65.2432 156.433 68.117 153.578 66.8324 150.781C65.7666 148.506 63.2258 148.402 60.628 148.944C59.6395 149.158 58.6641 149.428 57.7066 149.753L57.7637 149.696C61.3143 146.925 65.1409 144.527 69.1828 142.54C70.6042 144.411 72.4161 145.951 74.4927 147.051C78.3467 149.039 81.6392 146.679 80.7827 143.71C80.0881 141.293 77.6044 140.789 74.94 140.856C73.9007 140.916 72.8652 141.03 71.8378 141.198C76.1199 139.171 80.5068 137.259 84.7223 135.022L84.808 134.975C86.7015 136.605 88.9449 137.777 91.3645 138.401C95.58 139.447 98.2349 136.383 96.7124 133.69C95.4658 131.502 92.906 131.597 90.3748 132.32C89.6611 132.529 88.9474 132.786 88.2623 133.053C91.08 131.411 93.8115 129.626 96.446 127.705L96.6743 127.943C96.6691 127.908 96.6691 127.873 96.6743 127.838C98.5814 129.485 100.841 130.673 103.278 131.311C107.494 132.348 110.139 129.294 108.617 126.601C107.389 124.441 104.858 124.536 102.298 125.269ZM35.7629 211.492C34.9064 210.474 34.0881 209.427 33.2792 208.362C33.479 208.19 33.6884 208 33.8977 207.791C35.0836 208.161 36.3112 208.382 37.5519 208.447C37.5519 208.514 37.5519 208.581 37.5519 208.647L38.1323 208.523C38.4273 210.027 38.7509 211.521 39.0839 213.015C38.695 212.511 38.1896 212.11 37.6111 211.844C37.0326 211.579 36.3983 211.458 35.7629 211.492V211.492ZM38.8746 175.665C38.5796 176.778 38.3226 177.911 38.0943 179.043C38.0513 178.971 38.0002 178.904 37.942 178.843C37.942 176.521 37.9801 174.206 38.0562 171.897C38.1228 170.279 38.237 168.671 38.3797 167.053C39.1586 167.855 40.0198 168.573 40.949 169.194C40.1306 171.308 39.4379 173.469 38.8746 175.665V175.665ZM42.7761 165.007C42.7761 164.588 42.8713 164.16 42.8998 163.741C42.8998 163.523 42.8998 163.313 42.8998 163.104C43.2424 162.999 43.585 162.876 43.937 162.733C43.5374 163.485 43.1472 164.236 42.7761 165.007ZM47.7339 156.957C47.5651 156.582 47.3232 156.246 47.0225 155.966C46.7219 155.687 46.3684 155.47 45.983 155.329C43.642 154.378 41.7293 156.091 40.2163 158.279L40.1497 158.384H39.9974C39.8379 158.348 39.6755 158.326 39.5121 158.317C39.5121 158.184 39.5121 158.051 39.5787 157.918C40.1826 154.484 40.9929 151.091 42.0053 147.755C44.1898 148.03 46.4076 147.859 48.5237 147.25C49.8179 146.918 50.9514 146.135 51.7211 145.043C52.144 146.958 52.9394 148.772 54.062 150.381C51.7278 152.355 49.6069 154.569 47.7339 156.985V156.957Z" fill="#407BFF"/>
<path opacity="0.5" d="M102.298 125.269C100.482 125.859 98.7003 126.548 96.9598 127.334C97.9114 126.629 98.863 125.916 99.8146 125.183C104.058 121.78 108.094 118.126 111.9 114.24C107.437 118.583 102.666 122.6 97.6259 126.258C98.3141 125.049 98.9244 123.796 99.453 122.509C100.357 120.139 100.576 117.751 98.3111 116.485C95.5324 114.925 92.1543 117.256 93.0488 121.243C93.5858 123.469 94.635 125.538 96.1129 127.286C92.8279 129.559 89.398 131.616 85.8452 133.443L85.5026 133.614C86.2579 132.313 86.9224 130.962 87.4915 129.57C88.3955 127.21 88.6143 124.812 86.3496 123.556C83.5709 121.986 80.1927 124.326 81.0872 128.314C81.6189 130.511 82.6513 132.557 84.1038 134.29C79.8311 136.393 75.4062 138.182 71.0194 140.123L70.3818 140.408C71.2411 139.487 72.0359 138.508 72.7608 137.478C74.1977 135.394 74.959 133.129 73.0558 131.359C70.7149 129.189 66.8895 130.683 66.8229 134.794C66.8238 137.064 67.355 139.303 68.374 141.331C64.269 143.237 60.3667 145.551 56.7265 148.24L56.6123 148.335C57.104 147.555 57.552 146.748 57.954 145.918C59.0293 143.625 59.429 141.265 57.2689 139.828C56.8285 139.523 56.3246 139.322 55.7951 139.241C55.2657 139.159 54.7246 139.199 54.213 139.358C53.7014 139.517 53.2325 139.79 52.842 140.156C52.4515 140.523 52.1495 140.974 51.959 141.474C51.6714 141.026 51.2796 140.654 50.8171 140.389C48.6379 139.133 46.4968 140.494 44.6698 142.416C44.194 142.921 43.7182 143.454 43.309 143.996C44.7236 140.06 46.5045 136.265 48.6284 132.662C50.6438 133.552 52.8202 134.018 55.0231 134.033C59.3624 134.033 61.1989 130.417 59.0674 128.171C57.3355 126.353 54.8994 127.048 52.5965 128.38C51.8351 128.822 51.0982 129.305 50.3888 129.827C52.5975 126.504 55.1042 123.389 57.8779 120.52C59.6635 121.995 61.7429 123.072 63.9776 123.679C68.1932 124.717 70.8481 121.662 69.316 118.969C68.079 116.78 65.5097 116.866 62.9879 117.599C61.7871 117.965 60.6084 118.4 59.4575 118.902C60.609 117.789 61.7984 116.714 62.9975 115.648C64.5866 114.297 66.2234 112.993 67.8791 111.718C69.6702 113.146 71.7421 114.18 73.9598 114.753C78.1754 115.791 80.8208 112.736 79.2982 110.043C78.0612 107.854 75.4919 107.94 72.9702 108.673C72.3706 108.844 71.7807 109.053 71.1907 109.272C73.3889 107.702 75.6251 106.17 77.8518 104.648L79.9263 103.23C81.7859 104.79 83.9708 105.915 86.321 106.522C90.5366 107.559 93.182 104.505 91.6594 101.812C90.4224 99.6231 87.8531 99.7088 85.3314 100.442C84.333 100.741 83.3514 101.093 82.3909 101.498V101.498C82.8191 101.193 83.2474 100.889 83.6661 100.546C84.4559 99.9847 85.2267 99.4043 85.9975 98.8143C86.9491 98.1006 87.8436 97.3013 88.7761 96.5495C89.2995 96.1308 89.8133 95.6835 90.3177 95.2268C92.1859 96.802 94.3844 97.937 96.7505 98.5478C100.966 99.5851 103.611 96.5305 102.089 93.8374C100.852 91.6488 98.2825 91.7344 95.7608 92.4672C94.3465 92.9038 92.9609 93.4282 91.6119 94.0373V94.0373C93.3342 92.4386 94.9995 90.7733 96.5697 89.0414L96.8837 88.6798C97.5593 87.9281 98.2349 87.1573 98.882 86.377C99.5291 85.5967 100.357 84.5404 101.061 83.5983C103.962 79.8087 106.343 75.6482 108.141 71.2276C106.254 75.5927 103.796 79.6885 100.833 83.408C97.8998 87.1429 94.6283 90.5992 91.0599 93.7328L90.6698 94.0658C91.4911 92.6607 92.216 91.2014 92.8394 89.698C93.791 87.3381 93.9623 84.9401 91.6975 83.684C88.9188 82.1138 85.5407 84.4547 86.4352 88.4419C87.0064 90.8042 88.154 92.9881 89.7753 94.7986L88.9379 95.5218L87.9863 96.3401C87.4249 96.7874 86.8634 97.2156 86.2925 97.6438L85.3409 98.3385C84.532 98.938 83.7041 99.5185 82.8762 100.089L81.6963 100.898L80.345 101.85C81.1288 100.499 81.8218 99.0966 82.4195 97.6533C83.3235 95.2839 83.5423 92.8954 81.2776 91.6298C78.4989 90.0691 75.1208 92.4101 76.0152 96.3877C76.5697 98.677 77.6626 100.801 79.2031 102.583L78.2039 103.23L74.4927 105.656L73.7695 106.132L71.7045 107.512L70.81 108.111C69.8584 108.768 68.9069 109.434 67.9553 110.119C68.7556 108.748 69.4614 107.324 70.0678 105.856C70.9718 103.496 71.1907 101.098 68.9259 99.842C66.1472 98.2719 62.7691 100.613 63.6636 104.6C64.2283 106.919 65.3447 109.067 66.918 110.861C65.3003 112.051 63.7112 113.269 62.1601 114.544C61.0277 115.496 59.9048 116.447 58.82 117.475C59.2972 116.595 59.7199 115.686 60.0856 114.753C61.0372 112.384 61.2085 109.996 58.9437 108.739C56.165 107.169 52.7869 109.51 53.6814 113.497C54.2172 115.694 55.2491 117.738 56.6979 119.473C53.616 122.539 50.8372 125.894 48.4 129.494C48.6782 128.455 48.8912 127.4 49.0376 126.334C49.3421 123.822 48.9805 121.462 46.4778 120.777C43.3946 119.93 40.6826 123.013 42.5192 126.686C43.5782 128.707 45.0892 130.456 46.9346 131.796C44.5472 135.717 42.5458 139.86 40.9586 144.167C40.9259 143.268 40.8369 142.372 40.6921 141.484C40.2734 138.981 39.2552 136.821 36.6574 136.868C33.4695 136.935 31.7471 140.675 34.5448 143.663C36.0469 145.222 37.8769 146.428 39.9023 147.193C38.8226 150.523 37.9392 153.913 37.2569 157.347C37.1522 157.889 37.0665 158.432 36.9619 158.974C36.8477 159.079 36.7335 159.183 36.6288 159.298C36.5146 158.831 36.3814 158.346 36.2291 157.899C35.4298 155.501 34.0881 153.512 31.5378 153.969C28.388 154.511 27.2556 158.46 30.491 161.001C32.1404 162.253 34.0384 163.139 36.0578 163.599L36.172 163.875C35.8295 166.454 35.563 169.051 35.4012 171.659C35.2775 173.562 35.2109 175.551 35.1729 177.502C32.4513 177.502 30.5291 180.49 32.4037 183.725C33.1966 185.065 34.21 186.262 35.4012 187.265C35.6296 190.928 35.9912 194.592 36.4766 198.227C36.0912 197.872 35.6203 197.623 35.1099 197.505C34.5994 197.386 34.067 197.402 33.5647 197.552C31.8518 198.018 31.081 199.398 30.7955 201.092C30.1951 201.728 29.8555 202.567 29.8439 203.442C28.5688 201.539 27.3698 199.636 26.1993 197.618C27.9828 196.252 29.4608 194.527 30.5386 192.556C32.5941 188.749 30.2817 185.409 27.2937 186.218C24.8671 186.875 24.3247 189.358 24.4389 192.013C24.4756 193.02 24.5709 194.024 24.7244 195.02C24.2962 194.288 23.8775 193.545 23.4683 192.813C22.4215 190.909 21.5651 189.006 20.5374 187.103C20.29 186.637 20.0711 186.151 19.8617 185.676C21.8696 184.67 23.6432 183.254 25.067 181.517C27.798 178.149 26.1518 174.447 23.0686 174.685C20.5659 174.885 19.5667 177.216 19.148 179.842C18.9728 180.986 18.871 182.14 18.8435 183.297L17.949 181.232C16.0468 176.546 14.479 171.732 13.2577 166.825C15.5251 166.017 17.5854 164.717 19.2908 163.018C22.3454 159.926 21.0798 156.091 17.9871 156.015C15.4749 155.957 14.2473 158.175 13.5622 160.773C13.2257 162.152 12.9715 163.55 12.8009 164.96C12.1443 162.105 11.5734 159.298 11.0976 156.443C10.774 154.673 10.5647 152.874 10.3363 151.085C12.7782 150.602 15.0785 149.57 17.0641 148.069C20.4898 145.404 19.7285 141.408 16.6739 140.96C14.1902 140.57 12.6867 142.616 11.678 145.081C11.0838 146.635 10.5848 148.224 10.184 149.839C9.99372 147.764 9.77485 145.68 9.67969 143.596C9.40847 139.292 9.42754 134.975 9.73679 130.674C9.29747 134.973 9.14806 139.296 9.28954 143.615C9.28954 145.604 9.46082 147.583 9.58453 149.572C9.03868 148.221 8.40286 146.908 7.68134 145.642C6.37766 143.463 4.65528 141.836 2.24775 142.787C-0.702191 144.005 -0.959121 148.097 2.74258 149.886C4.92308 150.885 7.31349 151.339 9.70824 151.209C9.87953 152.979 10.0223 154.758 10.2982 156.519C10.6693 159.326 11.1451 162.114 11.6971 164.883C11.0949 163.82 10.4209 162.8 9.67969 161.829C8.10956 159.84 6.17783 158.432 3.97013 159.716C1.201 161.305 1.47696 165.426 5.37849 166.691C7.59139 167.38 9.93563 167.537 12.2204 167.148C13.303 172.111 14.7307 176.992 16.4931 181.755L17.0641 183.183C16.5604 182.516 16.017 181.88 15.4368 181.279C13.6764 179.452 11.6305 178.244 9.49889 179.757C6.90104 181.612 7.5957 185.657 11.6019 186.551C13.8232 187.003 16.1186 186.938 18.3106 186.361C18.501 186.846 18.7103 187.312 18.9482 187.807C19.8998 189.768 20.7467 191.775 21.7459 193.698L22.6118 195.344C22.1195 194.911 21.605 194.505 21.0703 194.126C18.9958 192.67 16.75 191.871 14.9515 193.745C12.7533 196.058 14.1807 199.902 18.2916 200.026C20.3948 200.081 22.4852 199.682 24.4199 198.855C25.5903 200.987 26.8084 203.09 28.1216 205.155C28.6069 205.945 29.0732 206.725 29.6251 207.505C28.8782 206.804 28.0868 206.153 27.2556 205.554C25.1907 204.099 22.9354 203.299 21.1464 205.174C18.9387 207.486 20.3756 211.331 24.4865 211.454C26.8359 211.481 29.1582 210.95 31.2618 209.903C31.9343 210.855 32.6385 211.806 33.3744 212.758C31.8423 214.538 32.3371 217.516 35.4488 218.877C36.961 219.504 38.5713 219.862 40.2068 219.933L40.7968 220.38L40.9015 220.456C42.8659 227.807 45.197 235.054 47.8862 242.172C49.0344 245.211 50.2461 248.221 51.5212 251.202H40.1021V296.241H74.9875V251.193H56.3458C54.7567 247.72 53.2341 244.208 51.8067 240.659C49.4753 234.825 47.3628 228.916 45.5167 222.912C45.8287 223.005 46.1466 223.078 46.4683 223.13C46.8912 223.214 47.3243 223.233 47.7529 223.188L47.2581 220.057H47.1915H46.925C46.7538 220.057 46.5254 219.971 46.3255 219.943C45.8883 219.819 45.4619 219.66 45.0504 219.467L44.5556 219.238C46.3895 218.599 48.0919 217.632 49.58 216.384C52.8915 213.529 51.9495 209.627 48.8758 209.294C46.3731 209.018 44.9648 211.131 44.1178 213.634C43.8609 214.347 43.6516 215.089 43.4612 215.813C43.29 215.147 43.0996 214.48 42.9379 213.814C42.4335 211.845 41.9863 209.856 41.5295 207.867C43.5179 207.234 45.3636 206.219 46.9631 204.879C50.2747 202.024 49.3326 198.132 46.2589 197.799C43.7562 197.523 42.3479 199.636 41.501 202.138C41.2416 202.866 41.0193 203.606 40.8349 204.355C40.5494 202.9 40.2639 201.453 40.0165 199.997C39.8262 198.912 39.6644 197.837 39.5026 196.752C39.436 195.211 39.417 193.669 39.436 192.118C39.436 191.271 39.436 190.424 39.5121 189.568C41.3762 190.165 43.3338 190.417 45.2883 190.31C49.6181 190.024 51.2262 186.313 48.9615 184.21C47.1154 182.488 44.7269 183.344 42.5097 184.81C41.5138 185.483 40.5604 186.217 39.6549 187.008C39.9182 183.386 40.4654 179.791 41.2916 176.255C41.7848 174.173 42.3948 172.121 43.1187 170.108C45.1076 170.797 47.2119 171.091 49.3135 170.974C53.6433 170.698 55.2515 166.986 52.9867 164.874C51.1406 163.161 48.7521 164.008 46.5349 165.483C45.7475 166.014 44.9884 166.586 44.2606 167.196C45.0931 165.225 46.0663 163.317 47.1725 161.486C49.3866 157.806 52.1531 154.487 55.3752 151.647C57.0305 153.18 58.9883 154.35 61.1228 155.082C65.2432 156.433 68.117 153.578 66.8324 150.781C65.7666 148.506 63.2258 148.402 60.628 148.944C59.6395 149.158 58.6641 149.428 57.7066 149.753L57.7637 149.696C61.3143 146.925 65.1409 144.527 69.1828 142.54C70.6042 144.411 72.4161 145.951 74.4927 147.051C78.3467 149.039 81.6392 146.679 80.7827 143.71C80.0881 141.293 77.6044 140.789 74.94 140.856C73.9007 140.916 72.8652 141.03 71.8378 141.198C76.1199 139.171 80.5068 137.259 84.7223 135.022L84.808 134.975C86.7015 136.605 88.9449 137.777 91.3645 138.401C95.58 139.447 98.2349 136.383 96.7124 133.69C95.4658 131.502 92.906 131.597 90.3748 132.32C89.6611 132.529 88.9474 132.786 88.2623 133.053C91.08 131.411 93.8115 129.626 96.446 127.705L96.6743 127.943C96.6691 127.908 96.6691 127.873 96.6743 127.838C98.5814 129.485 100.841 130.673 103.278 131.311C107.494 132.348 110.139 129.294 108.617 126.601C107.389 124.441 104.858 124.536 102.298 125.269ZM35.7629 211.492C34.9064 210.474 34.0881 209.427 33.2792 208.362C33.479 208.19 33.6884 208 33.8977 207.791C35.0836 208.161 36.3112 208.382 37.5519 208.447C37.5519 208.514 37.5519 208.581 37.5519 208.647L38.1323 208.523C38.4273 210.027 38.7509 211.521 39.0839 213.015C38.695 212.511 38.1896 212.11 37.6111 211.844C37.0326 211.579 36.3983 211.458 35.7629 211.492V211.492ZM38.8746 175.665C38.5796 176.778 38.3226 177.911 38.0943 179.043C38.0513 178.971 38.0002 178.904 37.942 178.843C37.942 176.521 37.9801 174.206 38.0562 171.897C38.1228 170.279 38.237 168.671 38.3797 167.053C39.1586 167.855 40.0198 168.573 40.949 169.194C40.1306 171.308 39.4379 173.469 38.8746 175.665V175.665ZM42.7761 165.007C42.7761 164.588 42.8713 164.16 42.8998 163.741C42.8998 163.523 42.8998 163.313 42.8998 163.104C43.2424 162.999 43.585 162.876 43.937 162.733C43.5374 163.485 43.1472 164.236 42.7761 165.007ZM47.7339 156.957C47.5651 156.582 47.3232 156.246 47.0225 155.966C46.7219 155.687 46.3684 155.47 45.983 155.329C43.642 154.378 41.7293 156.091 40.2163 158.279L40.1497 158.384H39.9974C39.8379 158.348 39.6755 158.326 39.5121 158.317C39.5121 158.184 39.5121 158.051 39.5787 157.918C40.1826 154.484 40.9929 151.091 42.0053 147.755C44.1898 148.03 46.4076 147.859 48.5237 147.25C49.8179 146.918 50.9514 146.135 51.7211 145.043C52.144 146.958 52.9394 148.772 54.062 150.381C51.7278 152.355 49.6069 154.569 47.7339 156.985V156.957Z" fill="white"/>
<path d="M372.798 298.135C372.798 300.419 320.537 302.265 256.076 302.265C191.615 302.265 139.344 300.419 139.344 298.135C139.344 295.851 191.605 294.015 256.076 294.015C320.546 294.015 372.798 295.861 372.798 298.135Z" fill="#407BFF"/>
<path opacity="0.3" d="M372.798 298.135C372.798 300.419 320.537 302.265 256.076 302.265C191.615 302.265 139.344 300.419 139.344 298.135C139.344 295.851 191.605 294.015 256.076 294.015C320.546 294.015 372.798 295.861 372.798 298.135Z" fill="#2E353A"/>
<path d="M247.673 261.08C247.673 261.08 253.383 285.479 250.88 289.495C247.654 294.738 213.254 297.897 213.254 297.897H289.105C289.105 297.897 298.621 295.233 295.767 287.591C293.549 281.672 282.939 261.08 282.939 261.08H247.673Z" fill="white" stroke="#2E353A" stroke-linecap="round" stroke-linejoin="round"/>
<path d="M246.017 261.08C246.017 261.08 252.069 285.688 249.224 289.495C246.379 293.301 213.254 296.203 213.254 296.203H289.457C289.457 296.203 295.871 293.615 294.092 287.591C292.312 281.568 281.274 261.08 281.274 261.08H246.017Z" fill="white" stroke="#2E353A" stroke-linecap="round" stroke-linejoin="round"/>
<g style="mix-blend-mode:multiply">
<path d="M281.274 261.08H246.065C246.065 261.08 249.643 275.658 249.995 284.108H292.817C289.305 275.982 281.274 261.08 281.274 261.08Z" fill="#407BFF"/>
</g>
<path d="M289.105 296.327H213.254V297.897H289.105V296.327Z" fill="white" stroke="#2E353A" stroke-linecap="round" stroke-linejoin="round"/>
<path d="M372.589 91.8296H159.86C155.403 91.8296 151.791 95.4424 151.791 99.8991V255.418C151.791 259.875 155.403 263.487 159.86 263.487H372.589C377.045 263.487 380.658 259.875 380.658 255.418V99.8991C380.658 95.4424 377.045 91.8296 372.589 91.8296Z" fill="#407BFF" stroke="#2E353A" stroke-linecap="round" stroke-linejoin="round"/>
<path d="M367.193 91.8296H154.465C150.008 91.8296 146.395 95.4424 146.395 99.8991V255.418C146.395 259.875 150.008 263.487 154.465 263.487H367.193C371.65 263.487 375.263 259.875 375.263 255.418V99.8991C375.263 95.4424 371.65 91.8296 367.193 91.8296Z" fill="#2E353A" stroke="#2E353A" stroke-linecap="round" stroke-linejoin="round"/>
<path d="M146.395 236.795H375.263V255.399C375.263 257.539 374.413 259.591 372.899 261.105C371.386 262.618 369.333 263.468 367.193 263.468H154.465C152.324 263.468 150.272 262.618 148.759 261.105C147.245 259.591 146.395 257.539 146.395 255.399V236.795Z" fill="white" stroke="#2E353A" stroke-linecap="round" stroke-linejoin="round"/>
<path d="M363.758 102.506H157.909V223.777H363.758V102.506Z" fill="#407BFF" stroke="#2E353A" stroke-linecap="round" stroke-linejoin="round"/>
<path d="M265.049 250.137C265.049 249.301 264.801 248.483 264.337 247.788C263.872 247.093 263.211 246.552 262.439 246.232C261.666 245.913 260.816 245.83 259.996 245.993C259.177 246.157 258.424 246.561 257.833 247.152C257.243 247.744 256.841 248.498 256.679 249.318C256.517 250.138 256.602 250.988 256.923 251.76C257.245 252.532 257.788 253.191 258.484 253.654C259.18 254.117 259.998 254.364 260.834 254.362C261.388 254.362 261.937 254.252 262.449 254.04C262.961 253.827 263.426 253.516 263.818 253.124C264.21 252.731 264.52 252.265 264.731 251.753C264.942 251.24 265.051 250.691 265.049 250.137V250.137Z" fill="#2E353A" stroke="#2E353A" stroke-linecap="round" stroke-linejoin="round"/>
<path d="M361.826 111.052H159.527V121.681H361.826V111.052Z" fill="#2E353A" stroke="#2E353A" stroke-linecap="round" stroke-linejoin="round"/>
<path d="M192.899 121.691L190.482 115.125H159.527V121.691V130.398V218.61H361.826V121.691H192.899Z" fill="white" stroke="#2E353A" stroke-linecap="round" stroke-linejoin="round"/>
<path d="M304.769 298.83C304.769 298.83 306.072 301.979 313.257 303.074C320.441 304.168 368.896 298.497 368.896 298.497C368.896 298.497 371.942 297.735 372.16 296.213C372.379 294.69 364.319 290.227 349.408 288.372C336.431 286.882 323.286 288.373 310.973 292.73C301.723 296.108 304.769 298.83 304.769 298.83Z" fill="white" stroke="#2E353A" stroke-linecap="round" stroke-linejoin="round"/>
<g style="mix-blend-mode:multiply">
<path d="M360.532 293.491C357.297 293.491 349.979 293.834 344.022 294.348C338.065 294.861 328.197 298.601 322.754 300.466C317.311 302.331 308.632 301.837 308.632 301.837C310.116 302.44 311.67 302.856 313.257 303.074C320.441 304.159 368.896 298.497 368.896 298.497C369.959 298.231 370.939 297.708 371.751 296.974C368.678 294.747 363.177 293.491 360.532 293.491Z" fill="#407BFF"/>
</g>
<path d="M369.962 295.918C370.386 296.14 370.79 296.398 371.171 296.689" stroke="#2E353A" stroke-linecap="round" stroke-linejoin="round"/>
<path d="M310.107 302.312C315.156 302.462 320.185 301.612 324.904 299.81C334.914 295.869 345.551 293.764 356.307 293.596C362.559 293.548 366.384 294.405 368.678 295.271" stroke="#2E353A" stroke-linecap="round" stroke-linejoin="round"/>
<path d="M350.312 172.258H287.24V210.645H350.017" stroke="#2E353A" stroke-width="0.5" stroke-linecap="round" stroke-linejoin="round"/>
<path d="M287.526 183.202H350.597" stroke="#2E353A" stroke-width="0.5" stroke-linecap="round" stroke-linejoin="round"/>
<path d="M287.526 194.116H350.597" stroke="#2E353A" stroke-width="0.5" stroke-linecap="round" stroke-linejoin="round"/>
<path d="M287.526 205.031H350.597" stroke="#2E353A" stroke-width="0.5" stroke-linecap="round" stroke-linejoin="round"/>
<path d="M285.509 172.515H282.92" stroke="#2E353A" stroke-width="0.5" stroke-linecap="round" stroke-linejoin="round"/>
<path d="M285.509 177.92H282.92" stroke="#2E353A" stroke-width="0.5" stroke-linecap="round" stroke-linejoin="round"/>
<path d="M285.509 183.335H282.92" stroke="#2E353A" stroke-width="0.5" stroke-linecap="round" stroke-linejoin="round"/>
<path d="M285.509 188.749H282.92" stroke="#2E353A" stroke-width="0.5" stroke-linecap="round" stroke-linejoin="round"/>
<path d="M285.509 194.154H282.92" stroke="#2E353A" stroke-width="0.5" stroke-linecap="round" stroke-linejoin="round"/>
<path d="M285.509 199.569H282.92" stroke="#2E353A" stroke-width="0.5" stroke-linecap="round" stroke-linejoin="round"/>
<path d="M285.509 204.984H282.92" stroke="#2E353A" stroke-width="0.5" stroke-linecap="round" stroke-linejoin="round"/>
<path d="M285.509 210.389H282.92" stroke="#2E353A" stroke-width="0.5" stroke-linecap="round" stroke-linejoin="round"/>
<path d="M292.436 187.626H289.534V210.493H292.436V187.626Z" fill="#2E353A" stroke="#2E353A" stroke-linecap="round" stroke-linejoin="round"/>
<path d="M297.584 176.683H294.682V210.493H297.584V176.683Z" fill="#407BFF" stroke="#2E353A" stroke-linecap="round" stroke-linejoin="round"/>
<path d="M302.742 187.626H299.84V210.493H302.742V187.626Z" fill="white" stroke="#2E353A" stroke-linecap="round" stroke-linejoin="round"/>
<path d="M314.332 180.223H311.43V210.493H314.332V180.223Z" fill="#2E353A" stroke="#2E353A" stroke-linecap="round" stroke-linejoin="round"/>
<path d="M319.48 184.734H316.578V210.493H319.48V184.734Z" fill="#407BFF" stroke="#2E353A" stroke-linecap="round" stroke-linejoin="round"/>
<path d="M324.638 197.609H321.736V210.493H324.638V197.609Z" fill="white" stroke="#2E353A" stroke-linecap="round" stroke-linejoin="round"/>
<path d="M336.229 187.626H333.326V210.493H336.229V187.626Z" fill="#2E353A" stroke="#2E353A" stroke-linecap="round" stroke-linejoin="round"/>
<path d="M341.377 176.683H338.474V210.493H341.377V176.683Z" fill="#407BFF" stroke="#2E353A" stroke-linecap="round" stroke-linejoin="round"/>
<path d="M346.534 187.626H343.632V210.493H346.534V187.626Z" fill="white" stroke="#2E353A" stroke-linecap="round" stroke-linejoin="round"/>
<path opacity="0.4" d="M268.932 136.126L301.115 160.211V126.582L268.932 1V136.126Z" fill="#407BFF" stroke="white" stroke-linecap="round" stroke-linejoin="round"/>
<path opacity="0.4" d="M301.115 160.211H196.439L26.5896 136.126H268.932L301.115 160.211Z" fill="#407BFF" stroke="white" stroke-linecap="round" stroke-linejoin="round"/>
<path d="M268.932 1H26.5896V122.804H268.932V1Z" fill="black" stroke="#2E353A" stroke-linecap="round" stroke-linejoin="round"/>
<path d="M35.9343 7.3186H82.2484" stroke="white" stroke-width="2" stroke-linecap="round" stroke-linejoin="round"/>
<path d="M262.766 6.74765C262.766 6.11863 262.579 5.50376 262.229 4.98088C261.88 4.458 261.383 4.05064 260.801 3.81036C260.22 3.57008 259.58 3.5077 258.964 3.63111C258.347 3.75452 257.781 4.05818 257.336 4.50362C256.892 4.94907 256.59 5.51628 256.469 6.13344C256.347 6.7506 256.412 7.38995 256.654 7.97054C256.896 8.55114 257.304 9.04687 257.828 9.39496C258.352 9.74305 258.968 9.92785 259.597 9.92597C260.014 9.92597 260.427 9.84369 260.812 9.68385C261.197 9.52401 261.546 9.28974 261.841 8.99448C262.135 8.69922 262.368 8.34877 262.527 7.96322C262.686 7.57766 262.767 7.16458 262.766 6.74765V6.74765Z" fill="white"/>
<path d="M249.186 6.74761C249.184 6.12129 248.997 5.50957 248.648 4.98971C248.298 4.46986 247.803 4.06519 247.223 3.82681C246.644 3.58843 246.007 3.52703 245.393 3.65037C244.779 3.77371 244.216 4.07626 243.773 4.5198C243.331 4.96334 243.03 5.52798 242.909 6.14241C242.787 6.75684 242.851 7.39349 243.091 7.97196C243.331 8.55042 243.737 9.04477 244.258 9.39254C244.779 9.74032 245.391 9.92592 246.017 9.92593C246.434 9.92593 246.847 9.84365 247.232 9.68381C247.617 9.52397 247.967 9.2897 248.261 8.99444C248.556 8.69918 248.789 8.34873 248.948 7.96318C249.106 7.57762 249.187 7.16454 249.186 6.74761V6.74761Z" fill="white"/>
<path d="M268.932 14.3223H26.5896V136.126H268.932V14.3223Z" fill="white" stroke="#2E353A" stroke-linecap="round" stroke-linejoin="round"/>
<path d="M257.513 27.0165H43.7183V124.707H256.875" stroke="#2E353A" stroke-width="0.5" stroke-linecap="round" stroke-linejoin="round"/>
<path d="M44.356 54.8602H258.141" stroke="#2E353A" stroke-width="0.5" stroke-linecap="round" stroke-linejoin="round"/>
<path d="M44.356 82.6467H258.141" stroke="#2E353A" stroke-width="0.5" stroke-linecap="round" stroke-linejoin="round"/>
<path d="M44.356 110.433H258.141" stroke="#2E353A" stroke-width="0.5" stroke-linecap="round" stroke-linejoin="round"/>
<path d="M39.912 27.6446H34.2024" stroke="#2E353A" stroke-width="0.5" stroke-linecap="round" stroke-linejoin="round"/>
<path d="M39.912 41.4236H34.2024" stroke="#2E353A" stroke-width="0.5" stroke-linecap="round" stroke-linejoin="round"/>
<path d="M39.912 55.2027H34.2024" stroke="#2E353A" stroke-width="0.5" stroke-linecap="round" stroke-linejoin="round"/>
<path d="M39.912 68.9723H34.2024" stroke="#2E353A" stroke-width="0.5" stroke-linecap="round" stroke-linejoin="round"/>
<path d="M39.912 82.7514H34.2024" stroke="#2E353A" stroke-width="0.5" stroke-linecap="round" stroke-linejoin="round"/>
<path d="M39.912 96.5209H34.2024" stroke="#2E353A" stroke-width="0.5" stroke-linecap="round" stroke-linejoin="round"/>
<path d="M39.912 110.3H34.2024" stroke="#2E353A" stroke-width="0.5" stroke-linecap="round" stroke-linejoin="round"/>
<path d="M39.912 124.079H34.2024" stroke="#2E353A" stroke-width="0.5" stroke-linecap="round" stroke-linejoin="round"/>
<path d="M45.3074 55.3741C45.3074 55.3741 64.0157 56.1924 67.8221 53.6612C71.6284 51.13 76.7099 46.0485 79.8787 46.6765C83.3144 47.5652 86.7031 48.626 90.0322 49.8548C90.0322 49.8548 97.645 45.4109 99.5482 45.4109C101.451 45.4109 107.789 48.5797 112.87 48.5797H127.458L133.168 53.0236L143.95 49.8548L156.006 54.9268L163.619 53.6612L174.401 59.3708H179.482L189.626 63.8052H202.948L210.561 68.2491L222.618 68.8867L232.134 78.4026L239.746 77.1275L247.997 80.3058L255.609 79.6682" stroke="#407BFF" stroke-width="3" stroke-linecap="round" stroke-linejoin="round"/>
<path d="M44.9839 58.7331H68.4597L82.4196 60.6363L93.8387 61.2739L103.983 68.2491L118.58 63.8051L136.337 70.1523L156.006 66.9834L162.981 70.1523L178.844 52.386H194.708L204.223 42.242L214.367 46.6765L220.715 40.9669L228.965 45.4108L234.037 39.0637L237.206 39.7013L245.456 37.1605L249.262 39.7013L255.61 38.4357" stroke="#2E353A" stroke-width="3" stroke-linecap="round" stroke-linejoin="round"/>
<path d="M45.6213 120.901H70.3628L89.3946 110.119L103.354 116.466H113.498L118.58 118.37L129.999 112.66L145.225 103.144L150.297 110.119L159.813 108.854L164.885 110.119L177.579 110.757L191.529 99.3376L198.514 107.578L207.392 106.95L212.464 110.119L220.077 108.216L230.23 112.022L244.19 110.119L251.803 111.385L256.237 110.119" stroke="#407BFF" stroke-width="3" stroke-linecap="round" stroke-linejoin="round"/>
<path opacity="0.4" d="M197.077 145.014L253.535 169.089V211.597L197.077 273.156V145.014Z" fill="#407BFF" stroke="white" stroke-linecap="round" stroke-linejoin="round"/>
<path d="M197.077 145.014H72.2661V266.818H197.077V145.014Z" fill="black" stroke="#2E353A" stroke-linecap="round" stroke-linejoin="round"/>
<path d="M197.077 158.336H72.2661V273.165H197.077V158.336Z" fill="white" stroke="#2E353A" stroke-linecap="round" stroke-linejoin="round"/>
<path d="M133.777 215.28L84.2941 215.232C84.2098 208.579 85.5116 201.982 88.1165 195.859C90.7214 189.737 94.5725 184.224 99.4245 179.671L133.777 215.28Z" fill="black" stroke="white" stroke-miterlimit="10"/>
<path d="M133.777 215.28L120.93 263.04C110.366 260.304 101.022 254.109 94.3877 245.445C87.7531 236.78 84.2099 226.144 84.3227 215.232L133.777 215.28Z" fill="black" stroke="white" stroke-miterlimit="10"/>
<path d="M135.994 216.669L159.261 173.019C169.952 178.757 178.162 188.222 182.332 199.617C186.501 211.011 186.339 223.54 181.876 234.823C177.412 246.106 168.959 255.355 158.123 260.814C147.287 266.272 134.823 267.559 123.1 264.43L135.994 216.669Z" fill="#407BFF" stroke="white" stroke-miterlimit="10"/>
<path d="M133.777 215.28L131.236 165.883C140.207 165.283 149.163 167.264 157.044 171.592L133.777 215.28Z" fill="black" stroke="white" stroke-miterlimit="10"/>
<path d="M133.777 215.28L99.4531 179.671C107.899 171.186 119.27 166.253 131.236 165.883L133.777 215.28Z" fill="black" stroke="white" stroke-miterlimit="10"/>
<path d="M191.996 151.961C191.996 151.334 191.81 150.721 191.462 150.2C191.113 149.679 190.618 149.273 190.039 149.033C189.46 148.793 188.823 148.731 188.209 148.853C187.594 148.975 187.029 149.277 186.586 149.72C186.143 150.163 185.841 150.728 185.719 151.343C185.597 151.957 185.659 152.594 185.899 153.173C186.139 153.752 186.545 154.247 187.066 154.596C187.587 154.944 188.2 155.13 188.827 155.13C189.243 155.13 189.655 155.048 190.039 154.888C190.424 154.729 190.773 154.496 191.067 154.201C191.362 153.907 191.595 153.558 191.754 153.173C191.914 152.789 191.996 152.377 191.996 151.961V151.961Z" fill="white"/>
<path d="M178.426 151.961C178.428 151.332 178.243 150.716 177.895 150.192C177.547 149.668 177.051 149.26 176.47 149.018C175.89 148.776 175.25 148.711 174.633 148.833C174.016 148.954 173.449 149.256 173.003 149.7C172.558 150.145 172.254 150.711 172.131 151.328C172.007 151.945 172.07 152.584 172.31 153.165C172.55 153.747 172.958 154.244 173.481 154.593C174.004 154.943 174.618 155.13 175.247 155.13C176.089 155.13 176.896 154.796 177.491 154.202C178.087 153.608 178.423 152.802 178.426 151.961Z" fill="white"/>
<g style="mix-blend-mode:multiply" opacity="0.73">
<path d="M197.077 158.336H72.2661V173.058H197.077V158.336Z" fill="#407BFF"/>
<path d="M197.077 158.336H72.2661V173.058H197.077V158.336Z" stroke="white" stroke-linecap="round" stroke-linejoin="round"/>
</g>
</svg>
