<svg width="381" height="323" viewBox="0 0 381 323" fill="none" xmlns="http://www.w3.org/2000/svg">
<path d="M351.239 268.361C351.158 268.361 352.422 262.849 352.538 262.508C353.919 258.591 358.901 251.824 363.552 251.949C364.326 251.991 365.081 252.195 365.77 252.548C366.46 252.901 367.066 253.396 367.551 254C368.036 254.604 368.387 255.304 368.583 256.053C368.779 256.803 368.814 257.585 368.687 258.349C368.266 261.603 365.264 264.318 362.566 265.86C359.394 267.671 351.248 268.361 351.239 268.361Z" fill="#263238"/>
<path d="M351.758 245.935C351.677 245.935 353.757 240.665 353.927 240.351C355.889 236.676 361.831 230.742 366.41 231.576C367.168 231.734 367.883 232.051 368.51 232.504C369.138 232.957 369.662 233.538 370.05 234.208C370.438 234.877 370.681 235.621 370.763 236.391C370.844 237.16 370.763 237.939 370.524 238.675C369.627 241.839 366.231 244.053 363.354 245.173C359.922 246.491 351.767 245.935 351.758 245.935Z" fill="#263238"/>
<path d="M357.601 221.009C357.512 221.009 359.591 215.739 359.761 215.425C361.724 211.759 367.674 205.825 372.254 206.65C373.011 206.809 373.727 207.127 374.354 207.581C374.981 208.035 375.505 208.617 375.892 209.288C376.279 209.958 376.521 210.703 376.601 211.473C376.681 212.243 376.599 213.022 376.358 213.758C375.462 216.913 372.065 219.136 369.189 220.256C365.765 221.565 357.601 221.009 357.601 221.009Z" fill="#263238"/>
<path d="M361.966 197.239C361.876 197.239 363.955 191.968 364.125 191.646C366.088 187.98 372.038 182.046 376.618 182.88C377.375 183.038 378.091 183.354 378.718 183.808C379.345 184.261 379.87 184.842 380.258 185.511C380.646 186.181 380.889 186.925 380.97 187.695C381.052 188.464 380.97 189.242 380.731 189.979C379.835 193.143 376.43 195.356 373.562 196.477C370.13 197.785 361.966 197.239 361.966 197.239Z" fill="#263238"/>
<path d="M360.11 176.579C360.021 176.579 360.639 170.968 360.72 170.618C361.616 166.558 365.81 159.262 370.452 158.859C371.224 158.813 371.997 158.93 372.721 159.202C373.445 159.474 374.103 159.896 374.654 160.44C375.204 160.983 375.634 161.636 375.915 162.357C376.196 163.078 376.323 163.849 376.286 164.622C376.286 167.912 373.598 170.95 371.07 172.788C368.131 174.921 360.11 176.579 360.11 176.579Z" fill="#263238"/>
<path d="M348.98 267.751C349.061 267.751 348.165 262.176 348.084 261.835C346.964 257.829 342.438 250.748 337.787 250.569C337.013 250.56 336.246 250.715 335.535 251.022C334.824 251.33 334.187 251.784 333.663 252.355C333.14 252.926 332.743 253.601 332.497 254.335C332.252 255.07 332.165 255.848 332.24 256.619C332.446 259.899 335.269 262.803 337.859 264.515C340.888 266.532 348.971 267.751 348.98 267.751Z" fill="#263238"/>
<path d="M351.436 242.816C351.525 242.816 349.787 237.438 349.643 237.098C347.923 233.306 342.375 226.996 337.751 227.525C336.985 227.635 336.25 227.904 335.595 228.316C334.94 228.729 334.379 229.274 333.949 229.918C333.519 230.561 333.229 231.288 333.098 232.051C332.967 232.814 332.998 233.596 333.19 234.346C333.889 237.555 337.124 240.002 339.938 241.302C343.254 242.834 351.427 242.816 351.436 242.816Z" fill="#263238"/>
<path d="M356.992 219.315C357.072 219.315 355.343 213.937 355.199 213.605C353.488 209.814 347.941 203.504 343.316 204.033C342.55 204.141 341.816 204.41 341.16 204.821C340.505 205.232 339.943 205.777 339.512 206.419C339.081 207.062 338.79 207.788 338.658 208.55C338.526 209.313 338.556 210.095 338.746 210.845C339.454 214.063 342.68 216.501 345.503 217.809C348.81 219.333 356.983 219.315 356.992 219.315Z" fill="#263238"/>
<path d="M361.052 197.445C361.141 197.445 359.403 192.067 359.259 191.726C357.539 187.944 352.001 181.634 347.368 182.163C346.602 182.271 345.867 182.539 345.212 182.951C344.557 183.362 343.996 183.907 343.565 184.55C343.135 185.192 342.845 185.919 342.714 186.681C342.583 187.444 342.615 188.225 342.806 188.975C343.505 192.192 346.74 194.63 349.563 195.93C352.87 197.463 361.052 197.445 361.052 197.445Z" fill="#263238"/>
<path d="M359.94 177.251C360.03 177.251 357.718 172.079 357.53 171.766C355.406 168.18 349.204 162.525 344.661 163.564C343.911 163.756 343.21 164.104 342.604 164.586C341.998 165.067 341.5 165.671 341.143 166.358C340.787 167.045 340.579 167.799 340.533 168.572C340.487 169.345 340.605 170.118 340.879 170.842C341.928 173.953 345.405 176.032 348.353 177.009C351.812 178.165 359.94 177.251 359.94 177.251Z" fill="#263238"/>
<path d="M355.047 159.378C355.119 159.378 355.451 153.758 355.433 153.4C355.191 149.241 352.296 141.353 347.788 140.179C347.035 140.005 346.253 139.991 345.493 140.14C344.734 140.288 344.014 140.594 343.381 141.039C342.748 141.484 342.215 142.057 341.818 142.721C341.421 143.385 341.168 144.125 341.076 144.894C340.574 148.147 342.707 151.589 344.867 153.857C347.403 156.438 355.038 159.369 355.047 159.378Z" fill="#263238"/>
<path d="M350.504 298.477C350.504 298.477 350.208 296.102 349.849 291.979C349.491 287.856 349.079 281.958 348.89 274.868C348.792 271.283 348.756 267.483 348.828 263.414C348.828 261.37 348.935 259.326 349.016 257.139C349.088 256.082 349.168 255.015 349.24 253.931C349.312 252.846 349.491 251.735 349.607 250.623C350.221 246.098 351.08 241.61 352.179 237.179C353.282 232.652 354.536 228.108 355.764 223.572C356.992 219.037 358.202 214.502 359.151 209.993C360.118 205.591 360.768 201.125 361.096 196.629C361.327 192.421 361.183 188.201 360.666 184.018C360.242 180.227 359.592 176.465 358.721 172.752C357.933 169.319 357.01 166.217 356.167 163.484C355.325 160.75 354.456 158.402 353.739 156.475C352.278 152.62 351.283 150.487 351.283 150.487C351.283 150.487 352.323 152.602 353.864 156.421C354.635 158.33 355.522 160.669 356.454 163.385C357.386 166.101 358.354 169.193 359.214 172.626C360.182 176.314 360.933 180.055 361.464 183.83C362.08 188.055 362.32 192.326 362.18 196.593C361.941 201.151 361.381 205.685 360.505 210.164C359.608 214.735 358.533 219.324 357.395 223.895C356.257 228.466 355.065 233.047 354.07 237.528C353.082 241.912 352.334 246.346 351.83 250.811C351.74 251.896 351.579 252.927 351.543 254.02C351.507 255.114 351.436 256.18 351.382 257.238C351.382 259.282 351.319 261.397 351.337 263.396C351.337 267.42 351.471 271.22 351.651 274.725C351.982 281.743 352.547 287.578 352.968 291.647C353.389 295.717 353.748 298.011 353.748 298.011C353.779 298.224 353.768 298.44 353.715 298.648C353.663 298.857 353.57 299.053 353.442 299.225C353.314 299.397 353.153 299.542 352.968 299.653C352.784 299.763 352.58 299.835 352.368 299.867C352.155 299.898 351.939 299.887 351.73 299.834C351.522 299.782 351.326 299.689 351.154 299.561C350.982 299.433 350.837 299.272 350.727 299.087C350.616 298.903 350.544 298.699 350.513 298.486V298.477H350.504Z" fill="#263238"/>
<path d="M340.538 289.218H362.879V293.843H360.935L356.902 319.083H346.524L342.483 293.843H340.538V289.218Z" fill="#263238" stroke="#263238" stroke-linecap="round" stroke-linejoin="round"/>
<path d="M193.327 306.096C193.327 306.096 192.556 310.64 193.121 311.662C193.686 312.684 194.591 314.028 194.591 314.028H201.706L202.092 311.832C203.073 312.922 204.277 313.787 205.622 314.369C207.513 315.041 209.341 314.369 211.555 314.539C213.428 314.683 217.828 314.539 217.828 314.539L217.703 312.164L204.861 306.41L200.263 302.824C200.263 302.824 196.231 306.463 193.327 306.096Z" fill="#263238" stroke="#263238" stroke-linecap="round" stroke-linejoin="round"/>
<path d="M140.329 306.095C140.329 306.095 141.547 309.797 141.099 310.81C140.651 311.823 139.916 314.028 139.916 314.028H132.81L132.183 311.832C131.317 312.926 130.202 313.796 128.93 314.368C127.137 315.04 125.202 314.368 123.015 314.538C121.16 314.682 116.742 314.538 116.742 314.538L116.616 312.163L128.831 306.409L133.679 303.72C133.679 303.72 137.461 306.463 140.329 306.095Z" fill="#263238" stroke="#263238" stroke-linecap="round" stroke-linejoin="round"/>
<path d="M197.163 131.35C197.163 131.35 200.102 169.408 201.124 187.603C202.146 205.798 202.621 214.053 202.737 226.862C202.854 239.67 203.418 264.982 203.418 274.492C203.428 284.2 202.796 293.898 201.527 303.523L192.933 308.103C192.933 308.103 190.155 283.688 189.035 274.94C188.022 267.025 184.321 234.821 182.645 224.863C180.969 214.905 173.334 180.28 173.334 180.28C173.334 180.28 163.145 216.608 160.51 231.119C157.876 245.63 147.964 278.355 145.84 286.314C143.716 294.273 140.329 306.078 140.329 306.078C139.134 306.428 137.88 306.526 136.646 306.364C136.092 306.321 135.557 306.142 135.088 305.843C134.62 305.545 134.231 305.136 133.957 304.652C133.957 304.652 136.458 280.828 137.488 269.248C138.77 254.907 139.173 235.869 140.732 227.901C142.291 219.933 142.238 204.669 144.048 194.424C145.079 188.607 150.321 132.955 150.321 132.955C150.321 132.955 179.392 144.723 197.163 131.35Z" fill="#263238" stroke="#263238" stroke-linecap="round" stroke-linejoin="round"/>
<path d="M201.527 303.523L194.832 308.953" stroke="white" stroke-width="0.5" stroke-linecap="round" stroke-linejoin="round"/>
<path d="M133.688 303.702L139.002 307.78" stroke="white" stroke-width="0.5" stroke-linecap="round" stroke-linejoin="round"/>
<path d="M177.725 144.158L177.188 166.351L180.952 162.596" stroke="white" stroke-width="0.5" stroke-linecap="round" stroke-linejoin="round"/>
<path d="M175.377 179.635L186.068 166.333" stroke="white" stroke-width="0.5" stroke-linecap="round" stroke-linejoin="round"/>
<path d="M189.034 167.301L180.117 176.049" stroke="white" stroke-width="0.5" stroke-linecap="round" stroke-linejoin="round"/>
<path d="M169.015 168.279C166.257 162.171 161.543 157.157 155.617 154.027" stroke="white" stroke-width="0.5" stroke-linecap="round" stroke-linejoin="round"/>
<path d="M182.609 138.153L182.098 140.752L177.94 141.72L178.415 138.485" stroke="white" stroke-width="0.5" stroke-linecap="round" stroke-linejoin="round"/>
<path d="M177.94 141.72C177.94 141.72 170.152 141.397 166.2 140.098L167.034 137.508" stroke="white" stroke-width="0.5" stroke-linecap="round" stroke-linejoin="round"/>
<path d="M163.432 136.863L162.643 140.098C162.643 140.098 156.469 139.776 155.474 138.808" stroke="white" stroke-width="0.5" stroke-linecap="round" stroke-linejoin="round"/>
<path d="M182.098 140.725C184.218 140.662 186.294 140.11 188.165 139.112L190.988 137.49L189.894 135.222" stroke="white" stroke-width="0.5" stroke-linecap="round" stroke-linejoin="round"/>
<path d="M200.998 56.8763C200.998 56.8763 206.626 61.7612 208.31 64.988C209.995 68.2147 232.112 113.317 232.022 116.4C231.933 119.484 228.662 125.364 222.891 125.364C217.119 125.364 195.244 90.2102 195.244 90.2102L200.998 56.8763Z" fill="white"/>
<g style="mix-blend-mode:multiply" opacity="0.5">
<path d="M201.688 62.2892L202.064 62.4953C202.727 62.8807 204.215 63.7502 205.846 64.8347C207.689 66.2486 209.369 67.8629 210.856 69.6479C210.856 69.6479 208.83 64.27 205.864 61.6976C204.214 60.2801 202.68 58.7335 201.276 57.0726L201.688 62.2892Z" fill="#407BFF"/>
</g>
<path d="M200.998 56.8763C200.998 56.8763 206.626 61.7612 208.31 64.988C209.995 68.2147 232.112 113.317 232.022 116.4C231.933 119.484 228.662 125.364 222.891 125.364C217.119 125.364 195.244 90.2102 195.244 90.2102L200.998 56.8763Z" stroke="#263238" stroke-linecap="round" stroke-linejoin="round"/>
<path opacity="0.5" d="M215.095 104.04C214.351 103.144 208.822 94.2433 208.257 90.918C207.693 87.5927 209.153 83.3352 209.153 81.1124C209.153 78.8895 205.641 84.9934 205.452 84.2584C205.264 83.5235 203.051 75.5642 203.051 75.5642L196.267 84.3391L195.254 90.2279C195.254 90.2279 203.821 103.986 211.654 114.285C217.228 112.492 225.643 109.759 227.453 108.665C230.258 107.007 215.839 104.972 215.095 104.04Z" fill="#407BFF"/>
<path d="M173.979 50.7815L201.034 56.8764C201.034 56.8764 202.916 70.7424 202.701 78.2355C202.486 85.7287 196.912 132.068 196.912 132.068C196.912 132.068 182.573 146.696 150.383 132.964C150.383 132.964 149.263 130.804 148.842 114.653C148.439 98.7252 136.466 69.1469 137.425 65.7768C139.397 58.8662 163.073 52.2246 166.183 52.0363C168.806 51.7869 171.41 51.3678 173.979 50.7815Z" fill="white" stroke="#263238" stroke-linecap="round" stroke-linejoin="round"/>
<g style="mix-blend-mode:multiply" opacity="0.5">
<path d="M176.425 131.987L151.647 122.271L155.93 75.197L184.114 88.3907L201.007 80.79L188.927 129.917L176.425 131.987Z" fill="#407BFF"/>
</g>
<g style="mix-blend-mode:multiply" opacity="0.5">
<path d="M183.756 58.9103C184.912 58.9103 195.603 61.0525 201.679 62.2895C201.33 59.1165 201.025 56.9116 201.025 56.9116L173.97 50.8167C171.402 51.4059 168.797 51.8281 166.174 52.0805C163.064 52.2687 139.388 58.9103 137.416 65.8209C137.103 66.9413 138.196 70.9209 139.818 76.3257C142.184 70.2218 144.299 65.1935 145.025 64.4854C146.656 62.8541 162.948 58.6235 162.948 58.6235L183.756 58.9103Z" fill="#407BFF"/>
</g>
<path d="M181.327 64.6203L177.608 72.938L185.763 130.571L179.786 138.638L174.113 132.059L175.699 73.673L168.19 64.9071L172.993 55.8185L181.327 64.6203Z" fill="#263238"/>
<path d="M210.139 83.2458L188.461 95.2743L160.581 80.6824L156.163 121.868L183.774 135.178L204.681 122.594L210.139 83.2458Z" fill="#407BFF" stroke="#263238" stroke-linecap="round" stroke-linejoin="round"/>
<path d="M187.637 104.524L188.461 97.9091" stroke="#263238" stroke-width="0.5" stroke-linecap="round" stroke-linejoin="round"/>
<path d="M183.774 135.178L187.179 108.154" stroke="#263238" stroke-width="0.5" stroke-linecap="round" stroke-linejoin="round"/>
<path d="M176.498 48.4684C176.498 48.4684 181.382 48.4684 183.506 51.6951C185.63 54.9219 189.707 67.6764 189.707 67.6764L175.01 63.5444L166.102 72.7495C166.102 72.7495 157.938 60.6493 161.263 52.9679C164.588 45.2865 176.498 48.4684 176.498 48.4684Z" fill="white" stroke="#263238" stroke-linecap="round" stroke-linejoin="round"/>
<g style="mix-blend-mode:multiply" opacity="0.5">
<path d="M184.993 54.6796C184.573 53.6489 184.075 52.6512 183.506 51.6949C181.382 48.4233 176.498 48.4681 176.498 48.4681C176.498 48.4681 164.606 45.2862 161.263 52.9497C160.188 55.4325 160.367 58.3813 160.985 61.2316C161.568 59.7079 162.885 56.6515 164.57 54.9574C166.846 52.6808 167.115 54.6616 167.115 54.6616L179.858 53.6488C181.546 54.1017 183.261 54.446 184.993 54.6796V54.6796Z" fill="#407BFF"/>
</g>
<path d="M178.594 41.0474C178.594 41.0474 179.419 58.0056 177.277 61.3488C175.135 64.6921 172.697 63.4104 170.914 61.3488C169.131 59.2873 167.114 54.6803 167.114 54.6803L164.937 42.1319C164.937 42.1319 177.626 44.4713 178.594 41.0474Z" fill="white" stroke="#263238" stroke-linecap="round" stroke-linejoin="round"/>
<g style="mix-blend-mode:multiply" opacity="0.5">
<path d="M173.997 54.6805C175.843 54.1516 177.482 53.0691 178.693 51.5792C178.693 50.6202 178.693 49.6701 178.693 48.7469C176.605 46.3537 171.811 41.8363 166.47 43.2883C166.013 43.4138 165.573 43.5572 165.17 43.7006L167.106 54.6805C167.106 54.6805 169.131 59.3234 170.906 61.349L169.113 53.345C169.739 53.9767 170.519 54.4327 171.376 54.6672C172.234 54.9016 173.138 54.9062 173.997 54.6805Z" fill="#407BFF"/>
</g>
<path d="M186.068 25.6217C186.068 25.6217 188.523 25.4424 188.577 29.5385C188.631 33.6347 186.22 37.0765 184.562 35.6514C182.904 34.2263 185.611 23.7573 186.068 25.6217Z" fill="white" stroke="#263238" stroke-linecap="round" stroke-linejoin="round"/>
<path d="M169.212 4.41405C158.037 7.04921 155.043 14.2735 155.133 20.8166C155.133 23.3173 156.289 27.6465 157.822 32.2087L157.624 31.7964C157.624 31.7964 154.264 25.9345 153.771 29.457C153.278 32.9795 156.603 36.6275 157.705 37.8017C158.011 38.0835 158.405 38.2501 158.821 38.273C159.236 38.2959 159.646 38.1737 159.981 37.9272C162.204 43.305 164.686 48.1182 166.308 49.4269C169.821 52.2682 174.759 53.7292 178.684 50.3232C182.609 46.9172 186.489 27.4941 186.489 27.4941C187.421 7.84693 180.387 1.79682 169.212 4.41405Z" fill="white"/>
<g style="mix-blend-mode:multiply" opacity="0.5">
<path d="M163.261 25.101C163.261 25.101 167.159 21.8474 171.067 21.8474C174.974 21.8474 183.111 25.4326 184.079 28.3546C184.67 30.1472 183.971 35.9284 183.317 40.3204C185.199 34.1358 186.525 27.521 186.525 27.521C187.421 7.88281 180.378 1.81478 169.212 4.44994C158.046 7.0851 155.043 14.3094 155.133 20.8525C155.133 23.3532 156.289 27.6824 157.822 32.2446L157.624 31.8323C157.624 31.8323 154.264 25.9704 153.771 29.4929C153.278 33.0154 156.603 36.6634 157.705 37.8376C158.011 38.1194 158.405 38.286 158.821 38.3089C159.236 38.3318 159.646 38.2095 159.981 37.9631C162.204 43.3409 164.686 48.1541 166.308 49.4627C166.308 49.4627 162.571 41.0464 161.272 37.4701C159.972 33.8938 160.331 27.6734 163.261 25.101Z" fill="#407BFF"/>
</g>
<path d="M169.212 4.41405C158.037 7.04921 155.043 14.2735 155.133 20.8166C155.133 23.3173 156.289 27.6465 157.822 32.2087L157.624 31.7964C157.624 31.7964 154.264 25.9345 153.771 29.457C153.278 32.9795 156.603 36.6275 157.705 37.8017C158.011 38.0835 158.405 38.2501 158.821 38.273C159.236 38.2959 159.646 38.1737 159.981 37.9272C162.204 43.305 164.686 48.1182 166.308 49.4269C169.821 52.2682 174.759 53.7292 178.684 50.3232C182.609 46.9172 186.489 27.4941 186.489 27.4941C187.421 7.84693 180.387 1.79682 169.212 4.41405Z" stroke="#263238" stroke-linecap="round" stroke-linejoin="round"/>
<path d="M182.349 33.2129C181.79 34.0544 180.922 34.6425 179.933 34.8503C178.944 35.0582 177.913 34.8692 177.062 34.3241" stroke="#263238" stroke-linecap="round" stroke-linejoin="round"/>
<path d="M170.421 34.3967C169.862 35.2383 168.994 35.8263 168.005 36.0342C167.016 36.242 165.985 36.053 165.134 35.508" stroke="#263238" stroke-linecap="round" stroke-linejoin="round"/>
<path d="M170.995 31.6891C169.55 30.9642 167.987 30.5058 166.38 30.3359C164.247 30.2463 162.15 31.9848 162.15 31.9848" stroke="#263238" stroke-linecap="round" stroke-linejoin="round"/>
<path d="M176.139 40.7426C176.063 41.2871 175.777 41.7801 175.341 42.1153C174.905 42.4506 174.355 42.6012 173.809 42.5349C173.239 42.5522 172.675 42.4115 172.18 42.1284C171.685 41.8453 171.278 41.4308 171.004 40.9308" stroke="#263238" stroke-linecap="round" stroke-linejoin="round"/>
<path d="M178.021 45.0715C178.021 45.0715 172.788 46.6308 169.427 45.2777C169.866 46.067 170.467 46.755 171.189 47.2969C171.912 47.8388 172.74 48.2226 173.621 48.4231C175.61 48.9519 178.021 45.0715 178.021 45.0715Z" fill="#263238"/>
<path d="M183.003 29.3326C183.003 29.3326 181.041 29.1624 179.186 29.1803C177.483 29.1803 175.789 31.3938 175.789 31.3938L175.189 34.0822" stroke="#263238" stroke-linecap="round" stroke-linejoin="round"/>
<path d="M166.855 19.661C170.919 23.065 175.36 25.9912 180.091 28.3821C187.798 32.2363 193.712 24.7969 190.101 21.1399C186.489 17.483 194.806 25.1554 196.114 20.5663C197.423 15.9772 185.45 0.228977 173.424 0.0048986C161.397 -0.219179 158.485 7.31881 158.485 7.31881C158.485 7.31881 157.069 3.43778 156.002 5.57996C155.382 6.74583 155.027 8.03437 154.963 9.35344C154.963 9.35344 152.525 11.1461 151.45 12.2127C150.375 13.2793 151.755 14.4086 151.755 14.4086C151.755 14.4086 149.604 19.7865 150.751 23.9364L156.925 32.8996C157.67 32.8754 158.4 32.6802 159.057 32.3289C159.714 31.9776 160.282 31.4798 160.716 30.8739C162.329 28.7586 161.146 22.1617 161.146 22.1617C161.146 22.1617 161.245 29.2605 163.136 27.7009C165.027 26.1414 162.24 19.2039 162.24 19.2039L166.855 19.661Z" fill="#263238"/>
<path d="M161.487 12.3293C161.487 12.3293 166.989 16.4703 170.968 20.2527C174.947 24.0352 181.014 25.4872 182.815 24.6536" stroke="white" stroke-width="0.5" stroke-miterlimit="10" stroke-linecap="round"/>
<path d="M178.486 17.537C178.486 17.537 170.6 15.7444 168.745 12.3205C166.89 8.89658 161.146 9.29993 161.146 9.29993C162.581 7.97646 164.331 7.04397 166.23 6.59195C168.129 6.13992 170.112 6.18351 171.989 6.71855" stroke="white" stroke-width="0.5" stroke-miterlimit="10" stroke-linecap="round"/>
<path d="M158.493 14.0229C158.493 14.0229 164.659 23.3177 160.77 26.1769" stroke="white" stroke-width="0.5" stroke-miterlimit="10" stroke-linecap="round"/>
<path d="M137.425 65.7852C137.425 65.7852 120.694 111.407 121.465 116.499C122.235 121.59 131.018 119.564 133.787 118.874C136.556 118.184 147.229 101.243 147.301 97.5953C147.99 97.1639 148.58 96.5908 149.031 95.9139C149.482 95.2371 149.784 94.472 149.917 93.6694C150.572 90.7295 151.02 80.2248 146.772 72.3462" fill="white"/>
<g style="mix-blend-mode:multiply" opacity="0.5">
<path d="M137.425 65.7852C137.425 65.7852 120.694 111.407 121.465 116.499C121.895 119.286 124.727 119.931 127.648 119.842C129.691 114.078 130.489 103.547 132.021 98.3303C133.715 92.4953 139.235 77.3924 142.596 69.4511L137.425 65.7852Z" fill="#407BFF"/>
</g>
<path d="M137.425 65.7852C137.425 65.7852 120.694 111.407 121.465 116.499C122.235 121.59 131.018 119.564 133.787 118.874C136.556 118.184 147.229 101.243 147.301 97.5953C147.99 97.1639 148.58 96.5908 149.031 95.9139C149.482 95.2371 149.784 94.472 149.917 93.6694C150.572 90.7295 151.02 80.2248 146.772 72.3462" stroke="#263238" stroke-linecap="round" stroke-linejoin="round"/>
<path d="M150.07 112.33C150.07 112.33 128.562 111.022 125.802 110.798C123.042 110.574 119.735 114.383 122.334 119.653C124.933 124.923 129.064 125.228 134.136 124.269C139.208 123.31 150.41 116.471 150.41 116.471L150.07 112.33Z" fill="white"/>
<path opacity="0.5" d="M150.07 112.33C150.07 112.33 128.562 111.022 125.802 110.798C123.042 110.574 119.735 114.383 122.334 119.653C124.933 124.923 129.064 125.228 134.136 124.269C139.208 123.31 150.41 116.471 150.41 116.471L150.07 112.33Z" fill="#407BFF" stroke="#263238" stroke-linecap="round" stroke-linejoin="round"/>
<path d="M150.07 112.33C150.07 112.33 128.562 111.022 125.802 110.798C123.042 110.574 119.735 114.383 122.334 119.653C124.933 124.923 129.064 125.228 134.136 124.269C139.208 123.31 150.41 116.471 150.41 116.471L150.07 112.33Z" stroke="#263238" stroke-linecap="round" stroke-linejoin="round"/>
<path d="M153.502 107.087C153.502 107.087 156.28 104.138 157.015 104.201C157.75 104.264 163.145 103.968 163.602 105.232C164.059 106.496 163.333 105.94 162.589 106.361C161.845 106.783 158.153 107.258 158.153 107.258C158.153 107.258 161.334 107.518 162.293 108.082C163.252 108.647 167.312 112.393 167.294 113.128C167.276 113.863 166.783 114.025 165.797 114.025C164.811 114.025 165.537 114.733 165.268 115.441C165 116.149 163.055 115.997 163.055 115.997C163.055 115.997 163.225 118.453 161.755 118.327C160.286 118.202 157.651 116.283 157.651 116.283C157.651 116.283 152.211 118.273 150.258 118.121C148.975 118.063 147.7 118.351 146.566 118.954C148.209 114.644 150.552 110.634 153.502 107.087Z" fill="white"/>
<g style="mix-blend-mode:multiply" opacity="0.5">
<path d="M153.502 107.087C150.56 110.61 148.216 114.591 146.566 118.874C147.7 118.27 148.975 117.982 150.258 118.04C150.9 118.051 151.541 117.982 152.167 117.834C152.556 116.12 152.787 114.374 152.857 112.618C152.857 110.009 157.015 104.201 157.015 104.201C156.271 104.138 153.502 107.087 153.502 107.087Z" fill="#407BFF"/>
</g>
<path d="M153.502 107.087C153.502 107.087 156.28 104.138 157.015 104.201C157.75 104.264 163.145 103.968 163.602 105.232C164.059 106.496 163.333 105.94 162.589 106.361C161.845 106.783 158.153 107.258 158.153 107.258C158.153 107.258 161.334 107.518 162.293 108.082C163.252 108.647 167.312 112.393 167.294 113.128C167.276 113.863 166.783 114.025 165.797 114.025C164.811 114.025 165.537 114.733 165.268 115.441C165 116.149 163.055 115.997 163.055 115.997C163.055 115.997 163.225 118.453 161.755 118.327C160.286 118.202 157.651 116.283 157.651 116.283C157.651 116.283 152.211 118.273 150.258 118.121C148.975 118.063 147.7 118.351 146.566 118.954C148.209 114.644 150.552 110.634 153.502 107.087Z" stroke="#263238" stroke-linecap="round" stroke-linejoin="round"/>
<path d="M165.798 113.944L161.003 110.135L157.096 109.57" stroke="#263238" stroke-linecap="round" stroke-linejoin="round"/>
<path d="M163.046 115.916L157.732 113.039L155.294 112.6" stroke="#263238" stroke-linecap="round" stroke-linejoin="round"/>
<path d="M212.398 103.457C212.398 103.457 209.619 100.518 208.885 100.571C208.15 100.625 202.755 100.347 202.298 101.602C201.841 102.857 202.567 102.31 203.311 102.74C204.76 103.16 206.245 103.445 207.747 103.592C207.747 103.592 204.565 103.852 203.606 104.425C202.647 104.999 198.588 108.737 198.606 109.463C198.624 110.189 199.117 110.359 200.102 110.359C201.088 110.359 200.362 111.067 200.631 111.775C200.9 112.483 202.845 112.322 202.845 112.322C202.845 112.322 202.674 114.778 204.144 114.661C205.614 114.545 208.248 112.618 208.248 112.618C208.248 112.618 213.688 114.608 215.642 114.41C216.926 114.351 218.202 114.642 219.334 115.253C217.684 110.967 215.341 106.982 212.398 103.457V103.457Z" fill="white" stroke="#263238" stroke-linecap="round" stroke-linejoin="round"/>
<path d="M200.102 110.313L204.887 106.513L208.795 105.948" stroke="#263238" stroke-linecap="round" stroke-linejoin="round"/>
<path d="M202.844 112.285L208.158 109.418L210.596 108.97" stroke="#263238" stroke-linecap="round" stroke-linejoin="round"/>
<path d="M215.597 107.921C215.597 107.921 224.818 106.863 227.982 109.238C231.145 111.614 230.616 117.664 230.616 117.664" stroke="#263238" stroke-linecap="round" stroke-linejoin="round"/>
<path d="M142.748 302.958C142.748 302.958 143.734 300.995 146.879 301.39C150.025 301.784 151.996 305.521 149.828 306.695C147.659 307.869 142.748 302.958 142.748 302.958Z" fill="#407BFF" stroke="#263238" stroke-linecap="round" stroke-linejoin="round"/>
<path d="M147.399 211.678C147.399 211.678 154.801 213.166 158.359 215.532C161.916 217.898 162.499 218.49 163.386 223.231C164.273 227.973 161.02 240.7 161.02 247.217C161.02 253.733 156.28 293.412 156.28 296.684C156.28 299.956 159.541 306.75 159.246 309.116C159.12 310.817 159.321 312.527 159.837 314.153C159.837 314.153 161.907 315.632 159.246 315.946C156.584 316.259 156.28 316.537 153.914 315.354C151.548 314.171 150.329 308.246 148.286 306.472C146.243 304.697 145.033 302.627 145.033 301.139C145.033 299.651 149.764 294.04 149.764 294.04C149.764 294.04 149.173 285.749 148.868 278.641C148.564 271.533 145.284 255.839 145.284 249.063C145.284 242.287 149.764 226.261 149.764 226.261C149.764 226.261 138.267 227.668 133.786 224.71C129.305 221.752 134.378 208.72 147.399 211.678Z" fill="white" stroke="#263238" stroke-linecap="round" stroke-linejoin="round"/>
<path d="M148.286 306.436C148.286 306.436 142.909 301.82 142.748 302.994C142.587 304.169 142.551 313.428 142.945 314.405C143.34 315.381 153.959 316.376 159.47 317.362C164.982 318.348 162.813 314.799 161.63 314.01C160.447 313.221 148.286 306.436 148.286 306.436Z" fill="#407BFF" stroke="#263238" stroke-linecap="round" stroke-linejoin="round"/>
<path opacity="0.2" d="M148.286 306.436C148.286 306.436 142.909 301.82 142.748 302.994C142.587 304.169 142.551 313.428 142.945 314.405C143.34 315.381 153.959 316.376 159.47 317.362C164.982 318.348 162.813 314.799 161.63 314.01C160.447 313.221 148.286 306.436 148.286 306.436Z" fill="black"/>
<path d="M149.827 311.653C150.904 310.362 152.162 309.236 153.564 308.309C155.229 307.127 157.097 306.261 159.075 305.755L161.629 310.667C159.868 311.082 158.156 311.683 156.521 312.459C155.281 313.211 154.155 314.138 153.179 315.211C153.179 315.211 150.221 313.23 149.827 311.653Z" fill="#263238" stroke="#263238" stroke-linecap="round" stroke-linejoin="round"/>
<path d="M155.142 306.149C154.893 306.18 154.654 306.262 154.438 306.389C154.222 306.516 154.034 306.686 153.887 306.889C153.739 307.091 153.634 307.321 153.579 307.566C153.523 307.81 153.518 308.063 153.564 308.309C153.762 310.281 153.959 316.573 154.747 316.771C155.536 316.968 165.367 318.563 168.906 318.733C172.446 318.904 176.38 318.931 176.38 317.165C176.38 315.399 175.789 314.61 175.009 314.61C174.23 314.61 172.446 314.019 170.089 312.648C167.733 311.276 162.024 305.961 160.232 305.764C158.439 305.567 156.127 304.375 155.142 306.149Z" fill="#407BFF" stroke="#263238" stroke-linecap="round" stroke-linejoin="round"/>
<path opacity="0.2" d="M155.142 306.149C154.893 306.18 154.654 306.262 154.438 306.389C154.222 306.516 154.034 306.686 153.887 306.889C153.739 307.091 153.634 307.321 153.579 307.566C153.523 307.81 153.518 308.063 153.564 308.309C153.762 310.281 153.959 316.573 154.747 316.771C155.536 316.968 165.367 318.563 168.906 318.733C172.446 318.904 176.38 318.931 176.38 317.165C176.38 315.399 175.789 314.61 175.009 314.61C174.23 314.61 172.446 314.019 170.089 312.648C167.733 311.276 162.024 305.961 160.232 305.764C158.439 305.567 156.127 304.375 155.142 306.149Z" fill="black"/>
<path d="M72.6773 314.61C72.6773 313.724 72.4146 312.858 71.9222 312.121C71.4299 311.384 70.7301 310.809 69.9113 310.47C69.0925 310.131 68.1916 310.042 67.3224 310.215C66.4532 310.388 65.6549 310.815 65.0282 311.441C64.4016 312.068 63.9748 312.867 63.8019 313.736C63.629 314.605 63.7178 315.506 64.0569 316.325C64.396 317.144 64.9703 317.844 65.7072 318.337C66.4441 318.829 67.3104 319.092 68.1966 319.092C69.385 319.092 70.5247 318.62 71.365 317.779C72.2053 316.939 72.6773 315.799 72.6773 314.61V314.61Z" fill="#263238" stroke="#263238" stroke-linecap="round" stroke-linejoin="round"/>
<path d="M68.1974 316.841C69.4347 316.841 70.4378 315.838 70.4378 314.601C70.4378 313.364 69.4347 312.361 68.1974 312.361C66.9601 312.361 65.957 313.364 65.957 314.601C65.957 315.838 66.9601 316.841 68.1974 316.841Z" fill="white" stroke="#263238" stroke-linecap="round" stroke-linejoin="round"/>
<path d="M120.694 314.61C120.694 313.724 120.431 312.858 119.939 312.121C119.446 311.384 118.747 310.809 117.928 310.47C117.109 310.131 116.208 310.042 115.339 310.215C114.47 310.388 113.671 310.815 113.045 311.441C112.418 312.068 111.991 312.867 111.819 313.736C111.646 314.605 111.734 315.506 112.074 316.325C112.413 317.144 112.987 317.844 113.724 318.337C114.461 318.829 115.327 319.092 116.213 319.092C117.402 319.092 118.541 318.62 119.382 317.779C120.222 316.939 120.694 315.799 120.694 314.61V314.61Z" fill="#263238" stroke="#263238" stroke-linecap="round" stroke-linejoin="round"/>
<path d="M118.453 314.61C118.453 314.167 118.322 313.734 118.076 313.365C117.83 312.997 117.48 312.709 117.07 312.54C116.661 312.37 116.211 312.326 115.776 312.412C115.341 312.499 114.942 312.712 114.629 313.026C114.316 313.339 114.102 313.738 114.016 314.173C113.929 314.607 113.974 315.058 114.143 315.467C114.313 315.876 114.6 316.226 114.968 316.473C115.337 316.719 115.77 316.85 116.213 316.85C116.807 316.85 117.377 316.614 117.797 316.194C118.217 315.774 118.453 315.204 118.453 314.61V314.61Z" fill="white" stroke="#263238" stroke-linecap="round" stroke-linejoin="round"/>
<path d="M136.385 314.61C136.385 313.724 136.123 312.858 135.63 312.121C135.138 311.384 134.438 310.809 133.619 310.47C132.801 310.131 131.9 310.042 131.03 310.215C130.161 310.388 129.363 310.815 128.736 311.441C128.11 312.068 127.683 312.867 127.51 313.736C127.337 314.605 127.426 315.506 127.765 316.325C128.104 317.144 128.678 317.844 129.415 318.337C130.152 318.829 131.018 319.092 131.905 319.092C133.093 319.092 134.233 318.62 135.073 317.779C135.913 316.939 136.385 315.799 136.385 314.61V314.61Z" fill="#263238" stroke="#263238" stroke-linecap="round" stroke-linejoin="round"/>
<path d="M134.145 314.61C134.147 314.164 134.016 313.728 133.77 313.357C133.523 312.986 133.172 312.696 132.761 312.525C132.349 312.353 131.896 312.308 131.459 312.395C131.022 312.481 130.62 312.696 130.305 313.011C129.99 313.326 129.776 313.727 129.689 314.165C129.603 314.602 129.648 315.055 129.819 315.466C129.991 315.877 130.28 316.229 130.652 316.475C131.023 316.722 131.459 316.852 131.905 316.85C132.499 316.85 133.069 316.614 133.489 316.194C133.909 315.774 134.145 315.204 134.145 314.61V314.61Z" fill="white" stroke="#263238" stroke-linecap="round" stroke-linejoin="round"/>
<path d="M109.259 237.671H99.7773V309.474H109.259V237.671Z" fill="#263238" stroke="#263238" stroke-linecap="round" stroke-linejoin="round"/>
<path d="M111.794 275.191H97.2588V309.475H111.794V275.191Z" fill="#263238" stroke="#263238" stroke-linecap="round" stroke-linejoin="round"/>
<path d="M67.2741 308.122H134.244C135.194 308.122 136.106 308.499 136.778 309.171C137.451 309.844 137.828 310.755 137.828 311.706V312.181H63.6895V311.706C63.6895 310.755 64.0671 309.844 64.7394 309.171C65.4116 308.499 66.3234 308.122 67.2741 308.122Z" fill="#263238" stroke="#263238" stroke-linecap="round" stroke-linejoin="round"/>
<path d="M94.84 209.903H82.6523V229.55H94.84V209.903Z" fill="#263238" stroke="#263238" stroke-linecap="round" stroke-linejoin="round"/>
<path d="M144.003 226.835H65.0336C61.4058 226.835 58.4648 229.776 58.4648 233.405V235.17C58.4648 238.799 61.4058 241.74 65.0336 241.74H144.003C147.63 241.74 150.571 238.799 150.571 235.17V233.405C150.571 229.776 147.63 226.835 144.003 226.835Z" fill="#407BFF" stroke="#263238" stroke-linecap="round" stroke-linejoin="round"/>
<path opacity="0.1" d="M144.003 226.835H65.0336C61.4058 226.835 58.4648 229.776 58.4648 233.405V235.17C58.4648 238.799 61.4058 241.74 65.0336 241.74H144.003C147.63 241.74 150.571 238.799 150.571 235.17V233.405C150.571 229.776 147.63 226.835 144.003 226.835Z" fill="black"/>
<path d="M150.571 234.283C150.571 232.307 149.787 230.413 148.39 229.016C146.994 227.619 145.099 226.834 143.124 226.834H102.493C101.492 226.799 100.495 226.967 99.5611 227.325C98.6267 227.684 97.7742 228.228 97.0543 228.923C96.3344 229.619 95.7619 230.452 95.3709 231.374C94.9798 232.295 94.7783 233.286 94.7783 234.287C94.7783 235.288 94.9798 236.279 95.3709 237.2C95.7619 238.122 96.3344 238.955 97.0543 239.651C97.7742 240.346 98.6267 240.89 99.5611 241.249C100.495 241.607 101.492 241.775 102.493 241.74H143.124C145.1 241.737 146.994 240.951 148.391 239.552C149.787 238.154 150.571 236.259 150.571 234.283V234.283Z" fill="#407BFF" stroke="#263238" stroke-miterlimit="10"/>
<path opacity="0.1" d="M150.571 234.516C150.571 233.538 150.379 232.569 150.004 231.666C149.63 230.762 149.082 229.941 148.39 229.249C147.699 228.558 146.878 228.009 145.974 227.635C145.071 227.26 144.102 227.068 143.124 227.068H102.493C101.492 227.033 100.495 227.2 99.5611 227.559C98.6267 227.918 97.7742 228.461 97.0543 229.157C96.3344 229.852 95.7619 230.686 95.3709 231.607C94.9798 232.529 94.7783 233.519 94.7783 234.521C94.7783 235.522 94.9798 236.512 95.3709 237.434C95.7619 238.355 96.3344 239.189 97.0543 239.884C97.7742 240.58 98.6267 241.123 99.5611 241.482C100.495 241.841 101.492 242.008 102.493 241.973H143.124C144.103 241.973 145.072 241.78 145.976 241.406C146.88 241.031 147.702 240.481 148.393 239.789C149.085 239.096 149.633 238.274 150.007 237.369C150.381 236.464 150.573 235.495 150.571 234.516V234.516Z" fill="black"/>
<path d="M112.754 209.912H65.2576C64.1471 209.913 63.0478 209.691 62.0246 209.259C61.0013 208.828 60.0748 208.196 59.2997 207.4C58.5246 206.605 57.9165 205.663 57.5115 204.628C57.1064 203.594 56.9125 202.49 56.9413 201.379L58.1152 155.067C58.1667 152.896 59.0659 150.832 60.6202 149.316C62.1745 147.799 64.2605 146.952 66.4315 146.955H105.62C107.609 146.952 109.532 147.662 111.042 148.956C112.551 150.25 113.547 152.043 113.847 154.009L120.971 200.358C121.149 201.541 121.07 202.748 120.739 203.898C120.407 205.047 119.832 206.112 119.052 207.019C118.272 207.926 117.306 208.654 116.219 209.153C115.132 209.652 113.95 209.911 112.754 209.912V209.912Z" fill="#407BFF" stroke="#263238" stroke-linecap="round" stroke-linejoin="round"/>
<path opacity="0.1" d="M112.754 209.912H65.2576C64.1471 209.913 63.0478 209.691 62.0246 209.259C61.0013 208.828 60.0748 208.196 59.2997 207.4C58.5246 206.605 57.9165 205.663 57.5115 204.628C57.1064 203.594 56.9125 202.49 56.9413 201.379L58.1152 155.067C58.1667 152.896 59.0659 150.832 60.6202 149.316C62.1745 147.799 64.2605 146.952 66.4315 146.955H105.62C107.609 146.952 109.532 147.662 111.042 148.956C112.551 150.25 113.547 152.043 113.847 154.009L120.971 200.358C121.149 201.541 121.07 202.748 120.739 203.898C120.407 205.047 119.832 206.112 119.052 207.019C118.272 207.926 117.306 208.654 116.219 209.153C115.132 209.652 113.95 209.911 112.754 209.912V209.912Z" fill="black"/>
<path d="M97.2416 239.365L76.415 253.079" stroke="#263238" stroke-linecap="round" stroke-linejoin="round"/>
<path d="M75.6264 250.972L72.0418 253.384C71.7611 253.575 71.5262 253.826 71.354 254.119C71.1818 254.412 71.0765 254.739 71.0456 255.078C71.0148 255.416 71.0592 255.757 71.1756 256.076C71.2921 256.395 71.4777 256.685 71.7191 256.924L72.0238 257.211C72.4265 257.607 72.9617 257.84 73.526 257.865C74.0903 257.89 74.6438 257.705 75.0797 257.345L78.3596 254.656C78.6031 254.455 78.8023 254.205 78.9448 253.923C79.0873 253.641 79.1699 253.332 79.1876 253.017C79.2053 252.701 79.1576 252.385 79.0475 252.089C78.9374 251.793 78.7673 251.523 78.5478 251.295V251.295C78.1766 250.906 77.6802 250.661 77.1458 250.602C76.6115 250.543 76.0735 250.674 75.6264 250.972V250.972Z" fill="#263238" stroke="#263238" stroke-linecap="round" stroke-linejoin="round"/>
<path d="M100.494 308.122H121.043C121.994 308.122 122.905 308.499 123.578 309.171C124.25 309.844 124.628 310.755 124.628 311.706V312.181H100.494V308.122Z" fill="#263238" stroke="#263238" stroke-linecap="round" stroke-linejoin="round"/>
<path d="M116.948 186.044C121.001 186.044 124.287 184.174 124.287 181.867C124.287 179.56 121.001 177.69 116.948 177.69C112.894 177.69 109.608 179.56 109.608 181.867C109.608 184.174 112.894 186.044 116.948 186.044Z" fill="white" stroke="#263238" stroke-linecap="round" stroke-linejoin="round"/>
<path d="M137.371 216.124C137.371 216.124 149.209 216.715 151.879 222.936C152.429 225.066 152.73 227.252 152.776 229.452C152.776 232.706 163.727 295.483 164.022 296.675C164.318 297.867 170.833 307.037 171.72 309.107C172.607 311.178 173.513 312.961 173.513 312.961C173.513 312.961 176.201 314.145 175.887 315.032C175.574 315.919 169.372 316.215 166.711 316.215C164.049 316.215 161.083 309.708 159.309 309.107C157.534 308.507 155.455 306.418 155.455 305.262C155.455 304.106 156.351 295.492 156.351 295.492C155.216 288.466 153.23 281.603 150.437 275.056C146.476 266.03 141.547 252.846 140.955 246.634C140.364 240.423 140.364 234.489 140.364 234.489L132.89 233.297C132.89 233.297 131.994 217.898 137.371 216.124Z" fill="white" stroke="#263238" stroke-linecap="round" stroke-linejoin="round"/>
<path d="M161.433 312.047C161.433 312.047 163.798 302.412 169.892 306.15L172.446 310.47C172.446 310.47 166.747 310.47 164.972 315.982C164.106 315.665 163.33 315.141 162.713 314.455C162.096 313.769 161.656 312.942 161.433 312.047V312.047Z" fill="#263238" stroke="#263238" stroke-linecap="round" stroke-linejoin="round"/>
<path d="M112.871 198.143L112.584 198.188C109.895 187.235 106.266 176.04 106.266 176.04C106.266 176.04 88.4593 180.746 78.1894 177.555C78.1894 177.555 72.9649 203.288 72.9649 210.011C72.9649 215.389 71.8536 220.856 75.9222 224.011C76.3157 224.59 76.8214 225.085 77.4094 225.465C77.9975 225.845 78.6558 226.104 79.3455 226.225C90.4488 228.313 109.582 227.587 112.772 228.224C115.962 228.86 132.891 233.297 132.891 233.297C132.891 233.297 133.903 223.957 136.771 217.898C139.639 211.839 152.731 212.87 152.731 212.87L112.871 198.143Z" fill="#263238" stroke="#263238" stroke-linecap="round" stroke-linejoin="round"/>
<path d="M108.757 126.385C108.757 126.385 106.301 123.301 103.649 126.698C100.996 130.095 103.102 141.891 104.41 146.605C105.719 151.32 127.818 170.878 129.897 172.33C131.976 173.782 159.067 179.903 161.433 178.783C163.799 177.663 164.48 171.989 163.135 168.924C161.791 165.858 136.475 159.351 136.475 159.351L108.757 126.385Z" fill="white"/>
<g style="mix-blend-mode:multiply" opacity="0.5">
<path d="M129.897 172.348C131.977 173.791 159.067 179.922 161.433 178.801C162.795 178.156 163.593 175.987 163.772 173.683C159.587 171.998 154.622 170.86 152.319 170.994C148.977 171.182 151.217 174.302 145.858 173.423C140.499 172.545 134.387 169.838 128.831 166.665C123.275 163.492 113.301 154.117 113.301 154.117L121.124 155.013L112.207 152.261L119.959 149.348L113.301 148.954C113.727 147.899 113.926 146.766 113.883 145.629C113.883 143.325 109.492 134.774 109.492 134.774L104.832 147.583C108.085 153.427 127.935 170.976 129.897 172.348Z" fill="#407BFF"/>
</g>
<path d="M108.757 126.385C108.757 126.385 106.301 123.301 103.649 126.698C100.996 130.095 103.102 141.891 104.41 146.605C105.719 151.32 127.818 170.878 129.897 172.33C131.976 173.782 159.067 179.903 161.433 178.783C163.799 177.663 164.48 171.989 163.135 168.924C161.791 165.858 136.475 159.351 136.475 159.351L108.757 126.385Z" stroke="#263238" stroke-linecap="round" stroke-linejoin="round"/>
<path d="M117.459 151.15L111.374 153.508L121.608 156.914" stroke="#263238" stroke-width="0.5" stroke-linecap="round" stroke-linejoin="round"/>
<path d="M161.495 168.897C160.713 169.057 159.998 169.45 159.443 170.024C158.888 170.599 158.519 171.327 158.386 172.114C157.857 174.92 160.617 177.313 160.617 177.313C160.617 177.313 166.433 179.312 168.172 174.624C169.91 169.936 164.309 168.717 161.495 168.897Z" fill="white"/>
<g style="mix-blend-mode:multiply" opacity="0.5">
<path d="M160.617 177.313C160.617 177.313 165.582 179.007 167.706 175.592C164.788 173.968 161.67 172.736 158.43 171.926C158.411 171.988 158.396 172.051 158.386 172.115C157.857 174.92 160.617 177.313 160.617 177.313Z" fill="#407BFF"/>
</g>
<path d="M161.495 168.897C160.713 169.057 159.998 169.45 159.443 170.024C158.888 170.599 158.519 171.327 158.386 172.114C157.857 174.92 160.617 177.313 160.617 177.313C160.617 177.313 166.433 179.312 168.172 174.624C169.91 169.936 164.309 168.717 161.495 168.897Z" stroke="#263238" stroke-linecap="round" stroke-linejoin="round"/>
<path d="M178.675 175.377C180.3 175.638 181.796 176.418 182.941 177.6C184.634 179.508 183.254 180.288 182.17 180.01C181.086 179.732 177.519 174.463 178.675 175.377Z" fill="white" stroke="#263238" stroke-linecap="round" stroke-linejoin="round"/>
<path d="M177.546 175.028C179.12 175.511 180.494 176.492 181.462 177.824C182.878 179.939 181.399 180.512 180.369 180.1C179.338 179.688 176.524 173.961 177.546 175.028Z" fill="white" stroke="#263238" stroke-linecap="round" stroke-linejoin="round"/>
<path d="M167.401 170.851C167.401 170.851 164.712 171.837 164.416 173.54C164.368 174.072 164.43 174.608 164.6 175.114C164.77 175.62 165.043 176.085 165.402 176.48C165.402 176.48 168.091 178.631 169.112 178.855C170.134 179.079 172.428 180.388 172.697 179.142C172.966 177.896 170.241 176.794 170.241 176.794C170.241 176.794 175.448 177.107 175.618 178.156C175.789 179.205 177.671 180.289 179.337 180.316C181.004 180.343 178.988 176.973 178.585 176.13C178.181 175.288 170.734 170.914 167.401 170.851Z" fill="white" stroke="#263238" stroke-linecap="round" stroke-linejoin="round"/>
<path d="M82.061 118.022C82.061 118.022 65.6793 127.55 64.3978 128.178C63.1163 128.805 61.8438 138.664 61.8438 139.597C61.8438 140.529 78.2254 177.555 78.2254 177.555C78.2254 177.555 82.2581 180.97 94.0604 180.97C105.863 180.97 106.777 179.178 106.777 179.178L107.718 163.555C107.718 163.555 111.751 152.996 112.064 151.132C112.378 149.268 108.757 126.385 108.757 126.385L91.9993 115.208C91.9993 115.208 85.1706 111.192 82.061 118.022Z" fill="white"/>
<g style="mix-blend-mode:multiply" opacity="0.5">
<path d="M66.0646 134.953C67.3461 132.901 79.1395 125.21 79.1395 125.21L83.4948 122.647L89.0778 114.177C86.8375 113.764 83.8443 114.105 82.061 118.022C82.061 118.022 65.6434 127.55 64.3978 128.168C63.1521 128.786 61.8438 138.655 61.8438 139.587C61.8438 139.793 62.6144 141.693 63.8153 144.553C64.2813 140.313 65.1685 136.387 66.0646 134.953Z" fill="#407BFF"/>
</g>
<path d="M82.061 118.022C82.061 118.022 65.6793 127.55 64.3978 128.178C63.1163 128.805 61.8438 138.664 61.8438 139.597C61.8438 140.529 78.2254 177.555 78.2254 177.555C78.2254 177.555 82.2581 180.97 94.0604 180.97C105.863 180.97 106.777 179.178 106.777 179.178L107.718 163.555C107.718 163.555 111.751 152.996 112.064 151.132C112.378 149.268 108.757 126.385 108.757 126.385L91.9993 115.208C91.9993 115.208 85.1706 111.192 82.061 118.022Z" stroke="#263238" stroke-linecap="round" stroke-linejoin="round"/>
<path d="M87.5542 132.803L92.3307 137.957L91.336 159.871L98.3259 161.718L99.0608 152.145L101.633 162.085L106.786 156.932L95.6464 137.589L97.1161 131.7L90.861 124.709L86.8193 134.282" fill="#263238"/>
<path d="M87.5542 132.803L92.3307 137.957L91.336 159.871L98.3259 161.718L99.0608 152.145L101.633 162.085L106.786 156.932L95.6464 137.589L97.1161 131.7L90.861 124.709L86.8193 134.282" stroke="#263238" stroke-linecap="round" stroke-linejoin="round"/>
<path d="M78.8613 118.076C78.8613 118.076 79.8829 124.897 81.2451 127.935C82.6073 130.974 85.6811 136.127 85.6811 136.127L92.1602 129.638L98.6484 134.12C98.6484 134.12 97.9673 122.862 95.5746 117.744C93.1819 112.626 81.5856 107.499 78.8613 118.076Z" fill="white" stroke="#263238" stroke-linecap="round" stroke-linejoin="round"/>
<g style="mix-blend-mode:multiply" opacity="0.5">
<path d="M83.4944 122.647L89.9736 112.788C88.791 112.27 87.5256 111.966 86.2367 111.891C85.1254 112.115 83.8708 112.393 82.5445 112.689C80.9225 113.585 79.5783 115.27 78.8613 118.067C78.8613 118.067 79.3721 121.509 80.1608 124.601L83.4944 122.647Z" fill="#407BFF"/>
</g>
<path d="M94.8933 116.023C94.0161 117.955 93.5522 120.05 93.5312 122.172C93.5312 125.578 94.2123 129.342 94.2123 131.045V136.163C94.2123 136.163 90.1168 131.045 87.043 127.29C83.9692 123.534 81.5855 120.119 81.926 117.054C82.2665 113.988 85.3403 102.032 85.3403 102.032C86.964 102.017 88.5594 102.457 89.9466 103.301C91.3337 104.145 92.4574 105.36 93.1906 106.809C95.9149 111.927 94.8933 116.023 94.8933 116.023Z" fill="white" stroke="#263238" stroke-linecap="round" stroke-linejoin="round"/>
<g style="mix-blend-mode:multiply" opacity="0.5">
<path d="M84.2654 110.09L83.2438 110.583C82.6165 113.272 82.0609 115.844 81.9265 117.054C81.5949 120.012 83.8084 123.328 86.7209 126.914L87.0883 119.86L94.8938 116.05L88.6208 109.857L84.2654 110.09Z" fill="#407BFF"/>
</g>
<path d="M101.525 112.358C101.525 112.358 99.2669 116.544 101.704 116.714C104.142 116.884 103.613 114.796 103.963 114.106C104.312 113.415 105.88 115.002 105.011 118.282C104.142 121.563 99.7866 123.857 97.1699 121.24C94.5531 118.623 95.2611 115.862 96.1303 113.756C96.9996 111.65 100.504 110.619 101.525 112.358Z" fill="#263238" stroke="#263238" stroke-linecap="round" stroke-linejoin="round"/>
<path d="M96.6317 75.358C95.8699 75.2504 95.0724 75.1697 94.2479 75.1249C91.2458 74.9725 87.9748 75.1697 85.6359 77.043C80.7787 80.933 81.5942 88.7489 81.9437 94.1895C82.338 100.365 82.2574 109.373 86.8905 113.846C94.7139 121.393 106.946 113.317 106.946 104.372C106.946 100.589 107.09 94.8259 107.341 93.5352C107.667 91.9408 107.892 90.3271 108.013 88.704C108.551 80.4669 103.882 76.3887 96.6317 75.358Z" fill="white" stroke="#263238" stroke-linecap="round" stroke-linejoin="round"/>
<g style="mix-blend-mode:multiply" opacity="0.5">
<path d="M99.5176 115.459C97.3286 115.428 95.1437 115.261 92.9757 114.957C89.651 114.446 85.0358 109.059 87.3389 101.629C89.642 94.1983 89.651 90.3441 89.651 90.3441L81.8096 85.4413C81.6298 88.3566 81.6778 91.2815 81.953 94.1893C82.3473 100.365 82.2667 109.373 86.8998 113.845C90.6995 117.52 95.5387 117.484 99.5176 115.459Z" fill="#407BFF"/>
</g>
<path d="M95.0727 99.1991C95.5627 99.1991 95.9599 98.5171 95.9599 97.6757C95.9599 96.8343 95.5627 96.1522 95.0727 96.1522C94.5828 96.1522 94.1855 96.8343 94.1855 97.6757C94.1855 98.5171 94.5828 99.1991 95.0727 99.1991Z" fill="#263238"/>
<path d="M103.828 98.0523C103.774 98.8946 103.326 99.5488 102.842 99.513C102.358 99.4772 101.999 98.7781 102.053 97.9358C102.107 97.0934 102.546 96.4392 103.039 96.475C103.532 96.5109 103.881 97.2099 103.828 98.0523Z" fill="#263238"/>
<path d="M92.3213 94.0271C92.3213 94.0271 94.1136 90.2454 96.9903 92.0287Z" fill="white"/>
<path d="M92.3213 94.0271C92.3213 94.0271 94.1136 90.2454 96.9903 92.0287" stroke="#263238" stroke-linecap="round" stroke-linejoin="round"/>
<path d="M101.659 92.6922C101.659 92.6922 103.783 90.2546 104.993 94.2515Z" fill="white"/>
<path d="M101.659 92.6922C101.659 92.6922 103.783 90.2546 104.993 94.2515" stroke="#263238" stroke-linecap="round" stroke-linejoin="round"/>
<path d="M100.28 100.706C100.28 100.858 100.28 101.01 100.28 101.145C100.504 102.704 101.615 103.833 101.176 104.479C100.737 105.124 98.4873 105.375 98.4873 105.375" fill="white"/>
<path d="M100.28 100.706C100.28 100.858 100.28 101.01 100.28 101.145C100.504 102.704 101.615 103.833 101.176 104.479C100.737 105.124 98.4873 105.375 98.4873 105.375" stroke="#263238" stroke-linecap="round" stroke-linejoin="round"/>
<path d="M97.6533 108.933C97.6533 108.933 93.7371 110.143 92.2764 106.979Z" fill="white"/>
<path d="M97.6533 108.933C97.6533 108.933 93.7371 110.143 92.2764 106.979" stroke="#263238" stroke-linecap="round" stroke-linejoin="round"/>
<path d="M94.3113 101.405C96.8553 101.405 98.9175 99.342 98.9175 96.7976C98.9175 94.2532 96.8553 92.1906 94.3113 92.1906C91.7674 92.1906 89.7051 94.2532 89.7051 96.7976C89.7051 99.342 91.7674 101.405 94.3113 101.405Z" stroke="#263238" stroke-width="0.5" stroke-linecap="round" stroke-linejoin="round"/>
<path d="M104.733 101.405C107.014 101.405 108.864 99.342 108.864 96.7976C108.864 94.2532 107.014 92.1906 104.733 92.1906C102.451 92.1906 100.602 94.2532 100.602 96.7976C100.602 99.342 102.451 101.405 104.733 101.405Z" stroke="#263238" stroke-width="0.5" stroke-linecap="round" stroke-linejoin="round"/>
<path d="M89.7047 96.7979L83.127 97.0757" stroke="#263238" stroke-width="0.5" stroke-linecap="round" stroke-linejoin="round"/>
<path d="M108.864 96.7979H107.18" stroke="#263238" stroke-width="0.5" stroke-linecap="round" stroke-linejoin="round"/>
<path d="M98.9082 95.3904H100.817" stroke="#263238" stroke-width="0.5" stroke-linecap="round" stroke-linejoin="round"/>
<path d="M104.76 69.9168C101.321 69.3162 97.8446 68.9568 94.3556 68.8413C94.3556 68.8413 88.2528 65.9641 80.0172 69.1998C68.2328 73.8068 68.4927 89.5461 71.4141 99.5758C72.3103 102.605 74.4162 107.203 72.4805 110.242C71.2618 112.16 67.7757 111.138 68.3045 108.503C68.8332 105.868 69.6935 106.764 70.3925 106.415C71.0915 106.065 70.043 105.716 68.4747 105.196C66.9065 104.676 65.5354 106.092 65.3382 109.543C64.8184 118.954 78.6819 125.183 83.9692 116.955C86.12 113.37 84.2112 107.141 83.2792 102.614C82.9833 101.047 82.7827 99.464 82.6788 97.8728C84.3518 97.7125 85.9033 96.9286 87.0251 95.6769C87.8557 94.5382 88.5646 93.3155 89.14 92.0289C89.7673 92.0289 90.4215 92.0737 91.1384 92.1454C98.3077 92.8624 100.476 80.6547 100.476 80.6547C100.476 80.6547 104.061 87.4756 105.136 89.9942L106.212 92.5039C106.212 92.5039 109.088 92.8624 111.956 86.7585C114.824 80.6546 111.58 71.0193 104.76 69.9168Z" fill="#263238" stroke="#263238" stroke-linecap="round" stroke-linejoin="round"/>
<path d="M100.064 77.7866C100.064 77.7866 108.883 80.8162 109.151 86.0506C109.42 91.2851 108.049 91.554 108.049 91.554" stroke="white" stroke-width="0.5" stroke-miterlimit="10" stroke-linecap="round"/>
<path d="M98.9707 75.8596C98.9707 75.8596 107.224 73.9328 109.984 79.4442" stroke="white" stroke-width="0.5" stroke-miterlimit="10" stroke-linecap="round"/>
<path d="M88.7817 70.3466C88.7817 70.3466 97.0353 74.4786 98.4153 78.3417C99.7954 82.2048 92.6352 89.6262 87.9483 91.0066C83.2614 92.3869 79.6947 90.7287 76.3879 93.2115C73.0811 95.6943 74.4612 102.569 74.4612 102.569" stroke="white" stroke-width="0.5" stroke-miterlimit="10" stroke-linecap="round"/>
<path d="M71.9516 94.8619C71.9516 94.8619 69.747 89.6274 74.4339 86.8758C79.1208 84.1241 83.2431 86.8758 88.4766 83.5684C93.7102 80.261 94.5346 76.1379 94.5346 76.1379" stroke="white" stroke-width="0.5" stroke-miterlimit="10" stroke-linecap="round"/>
<path d="M84.0769 99.6118C84.0769 99.6118 81.1824 92.5758 78.2788 95.0586C75.3753 97.5413 80.3489 104.165 83.6557 103.34" fill="white"/>
<path d="M84.0769 99.6118C84.0769 99.6118 81.1824 92.5758 78.2788 95.0586C75.3753 97.5413 80.3489 104.165 83.6557 103.34" stroke="#263238" stroke-linecap="round" stroke-linejoin="round"/>
<g opacity="0.37">
<path d="M84.0769 99.6118C84.0769 99.6118 81.1824 92.5758 78.2788 95.0586C75.3753 97.5413 80.3489 104.165 83.6557 103.34" fill="#407BFF"/>
<path d="M84.0769 99.6118C84.0769 99.6118 81.1824 92.5758 78.2788 95.0586C75.3753 97.5413 80.3489 104.165 83.6557 103.34" stroke="#263238" stroke-linecap="round" stroke-linejoin="round"/>
</g>
<path d="M66.3962 128.886C66.3962 128.886 64.9892 127.828 61.8617 130.185C58.7341 132.543 55.8216 143.263 57.7752 147.807C59.7288 152.351 64.9444 175.978 67.373 177.269C69.8016 178.559 95.9155 178.452 98.9982 177.726C102.081 177 104.232 172.966 103.712 169.48C103.192 165.993 99.751 165.088 98.7384 165.061C97.7257 165.034 76.926 163.851 76.926 163.851L70.4647 136.549" fill="white"/>
<g style="mix-blend-mode:multiply" opacity="0.5">
<path d="M99.8227 171.873C98.3351 170.036 74.6587 173.235 72.1316 171.873C69.6044 170.511 68.3857 167.92 70.2317 166.173C72.0778 164.425 66.7009 164.03 66.7457 162.489C66.7905 160.947 69.8733 160.526 69.6761 158.464C69.479 156.403 62.8205 155.972 62.9819 150.075C63.1432 144.177 64.6218 137.042 65.9571 135.026C66.6965 134.175 67.5465 133.428 68.4842 132.803L66.3962 128.877C66.3962 128.877 64.9892 127.819 61.8617 130.177C58.7341 132.534 55.8216 143.263 57.7752 147.807C59.7288 152.351 64.9444 175.978 67.373 177.269C69.8016 178.56 95.9155 178.452 98.9982 177.726C99.9947 177.407 100.9 176.854 101.639 176.114C102.378 175.373 102.929 174.466 103.246 173.468C101.588 172.993 100.262 172.411 99.8227 171.873Z" fill="#407BFF"/>
</g>
<path d="M66.3962 128.886C66.3962 128.886 64.9892 127.828 61.8617 130.185C58.7341 132.543 55.8216 143.263 57.7752 147.807C59.7288 152.351 64.9444 175.978 67.373 177.269C69.8016 178.559 95.9155 178.452 98.9982 177.726C102.081 177 104.232 172.966 103.712 169.48C103.192 165.993 99.751 165.088 98.7384 165.061C97.7257 165.034 76.926 163.851 76.926 163.851L70.4647 136.549" stroke="#263238" stroke-linecap="round" stroke-linejoin="round"/>
<path d="M69.0127 168.887C70.5541 164.353 76.9168 164.263 76.9168 164.263C74.3791 163.598 71.7258 163.503 69.1471 163.985" stroke="#263238" stroke-width="0.5" stroke-linecap="round" stroke-linejoin="round"/>
<path d="M102.582 166.19C101.641 166.593 100.837 167.263 100.27 168.116C99.7038 168.969 99.3985 169.97 99.3921 170.994C99.2846 174.669 101.722 175.35 102.323 175.772C102.923 176.193 106.543 178.138 108.004 176.946C109.465 175.754 111.185 172.545 109.796 169.856C108.407 167.167 104.007 166.226 102.582 166.19Z" fill="white"/>
<g style="mix-blend-mode:multiply" opacity="0.5">
<path d="M108.004 176.946C108.377 176.63 108.708 176.269 108.99 175.87L105.943 174.248C103.147 173.477 100.486 172.688 99.8226 171.873C99.7071 171.751 99.5619 171.662 99.4014 171.613C99.5716 174.75 101.749 175.377 102.323 175.772C102.896 176.166 106.544 178.138 108.004 176.946Z" fill="#407BFF"/>
</g>
<path d="M102.582 166.19C101.641 166.593 100.837 167.263 100.27 168.116C99.7038 168.969 99.3985 169.97 99.3921 170.994C99.2846 174.669 101.722 175.35 102.323 175.772C102.923 176.193 106.543 178.138 108.004 176.946C109.465 175.754 111.185 172.545 109.796 169.856C108.407 167.167 104.007 166.226 102.582 166.19Z" stroke="#263238" stroke-linecap="round" stroke-linejoin="round"/>
<path d="M107.627 169.48C107.627 169.48 105.405 170.331 105.1 172.007C104.796 173.683 104.903 174.589 105.288 174.696C105.674 174.804 106.955 175.386 106.955 175.386L110.907 177.439C110.907 177.439 114.044 181.024 115.074 181.311C116.105 181.598 115.218 180.926 115.074 180.146C114.626 179.029 114.045 177.97 113.345 176.991L118.023 181.132C118.023 181.132 119.564 181.688 119.206 180.513C118.847 179.339 116.454 176.928 116.454 176.928L120.873 180.935C120.873 180.935 121.769 181.347 121.769 180.827C121.819 180.567 121.801 180.297 121.716 180.046C121.631 179.795 121.483 179.57 121.285 179.393C120.783 178.99 117.772 175.539 117.772 175.539L121.966 178.111C121.966 178.111 122.862 179.303 123.489 179.321C124.117 179.339 123.758 178.936 123.283 177.529C122.808 176.121 119.618 174.06 118.48 173.253C117.342 172.447 111.122 169.578 107.627 169.48Z" fill="white" stroke="#263238" stroke-linecap="round" stroke-linejoin="round"/>
<path d="M308.134 168.404H273.13L279.43 147.968H314.434L308.134 168.404Z" fill="#263238" stroke="#263238" stroke-linecap="round" stroke-linejoin="round"/>
<path d="M305.382 170.331H270.388L276.688 149.886H311.682L305.382 170.331Z" fill="white" stroke="#263238" stroke-linecap="round" stroke-linejoin="round"/>
<path d="M255.09 162.237H312.766C314.192 162.237 315.56 162.803 316.568 163.812C317.577 164.821 318.143 166.188 318.143 167.615V182.655H255.09V162.237Z" fill="#263238" stroke="#263238" stroke-linecap="round" stroke-linejoin="round"/>
<path d="M307.819 162.237H244.739V182.682H307.819V162.237Z" fill="white" stroke="#263238" stroke-linecap="round" stroke-linejoin="round"/>
<path d="M293.625 177.197H243.234V179.894H293.625V177.197Z" fill="white" stroke="#263238" stroke-linecap="round" stroke-linejoin="round"/>
<path d="M293.624 174.499H253.987V177.196H293.624V174.499Z" fill="#263238" stroke="#263238" stroke-linecap="round" stroke-linejoin="round"/>
<path d="M243.44 180.692H203.678V182.547H243.44V180.692Z" fill="white" stroke="#263238" stroke-linecap="round" stroke-linejoin="round"/>
<path d="M274.017 115.02H188.309V170.304H274.017V115.02Z" fill="white" stroke="#263238" stroke-linecap="round" stroke-linejoin="round"/>
<path d="M274.017 115.02H192.987V170.304H274.017V115.02Z" fill="#263238" stroke="#263238" stroke-linecap="round" stroke-linejoin="round"/>
<path d="M244.363 140.708H225.606V183.39H244.363V140.708Z" fill="white" stroke="#263238" stroke-linecap="round" stroke-linejoin="round"/>
<path d="M246.092 140.708H227.336V183.39H246.092V140.708Z" fill="#263238" stroke="#263238" stroke-linecap="round" stroke-linejoin="round"/>
<path d="M226.091 141.21H246.532V170.438" stroke="white" stroke-linejoin="round"/>
<path d="M187.717 179.697H130.301V182.699H187.717V179.697Z" fill="white" stroke="#263238" stroke-linecap="round" stroke-linejoin="round"/>
<path d="M202.557 179.697H145.141V182.699H202.557V179.697Z" fill="white" stroke="#263238" stroke-linecap="round" stroke-linejoin="round"/>
<path d="M128.088 187.648H40.1123L35.9363 316.233C35.9133 316.589 35.9614 316.946 36.0778 317.283C36.1942 317.621 36.3765 317.931 36.6143 318.197C36.852 318.464 37.1403 318.68 37.4624 318.833C37.7845 318.987 38.1339 319.075 38.4903 319.092V319.092C39.1494 319.073 39.7774 318.807 40.2503 318.347C40.7231 317.888 41.0065 317.267 41.0443 316.609L49.4413 211.534C49.5478 209.66 50.352 207.894 51.6955 206.584C53.039 205.273 54.8244 204.513 56.7001 204.453H111.5C113.375 204.513 115.159 205.274 116.501 206.584C117.843 207.895 118.645 209.661 118.75 211.534L127.156 316.591C127.193 317.248 127.475 317.867 127.946 318.327C128.417 318.786 129.043 319.053 129.701 319.074C130.057 319.058 130.407 318.971 130.729 318.819C131.052 318.666 131.341 318.451 131.579 318.186C131.818 317.92 132.001 317.61 132.119 317.273C132.236 316.937 132.286 316.58 132.264 316.224L128.088 187.648Z" fill="#407BFF" stroke="#263238" stroke-linecap="round" stroke-linejoin="round"/>
<path d="M128.285 193.563L128.088 187.648H99.3121H68.8877H40.1122L39.915 193.563H128.285Z" fill="#263238" stroke="#263238" stroke-linecap="round" stroke-linejoin="round"/>
<path d="M328.431 187.648H240.429L236.262 316.233C236.24 316.588 236.289 316.944 236.406 317.28C236.523 317.617 236.706 317.926 236.943 318.192C237.181 318.457 237.469 318.672 237.79 318.825C238.112 318.978 238.46 319.066 238.816 319.083V319.083C239.473 319.062 240.099 318.795 240.57 318.336C241.041 317.876 241.323 317.257 241.361 316.6L249.785 211.534C249.891 209.66 250.696 207.894 252.039 206.584C253.383 205.273 255.168 204.513 257.044 204.453H311.843C313.718 204.513 315.503 205.274 316.845 206.584C318.187 207.895 318.989 209.661 319.093 211.534L327.499 316.591C327.533 317.251 327.813 317.875 328.284 318.338C328.756 318.801 329.384 319.07 330.044 319.092C330.4 319.075 330.748 318.987 331.07 318.834C331.391 318.681 331.679 318.466 331.917 318.201C332.155 317.935 332.337 317.626 332.454 317.289C332.571 316.953 332.62 316.597 332.598 316.242L328.431 187.648Z" fill="#407BFF" stroke="#263238" stroke-linecap="round" stroke-linejoin="round"/>
<path d="M329.014 193.563L328.826 187.648H300.05H269.617H240.842L240.653 193.563H329.014Z" fill="#263238" stroke="#263238" stroke-linecap="round" stroke-linejoin="round"/>
<path d="M334.229 182.682H32.9785V189.458H334.229V182.682Z" fill="white" stroke="#263238" stroke-linecap="round" stroke-linejoin="round"/>
<path d="M334.238 182.682H118.319V189.458H334.238V182.682Z" fill="white" stroke="#263238" stroke-linecap="round" stroke-linejoin="round"/>
</svg>
