<svg width="234" height="35" viewBox="0 0 234 35" fill="none" xmlns="http://www.w3.org/2000/svg">
<g clip-path="url(#clip0)">
<path fill-rule="evenodd" clip-rule="evenodd" d="M20.7719 6.49978C22.177 5.78894 23.8856 6.36519 24.5881 7.78688C25.2906 9.20856 24.7211 10.9373 23.316 11.6481L22.0547 9.0957C23.316 11.6481 23.316 11.6481 23.316 11.6481L23.1054 11.755C22.9666 11.8256 22.7623 11.9297 22.5018 12.0629C21.9808 12.3292 21.2356 12.7118 20.341 13.1756C18.5504 14.1038 16.168 15.3538 13.7899 16.646C11.4804 17.901 7.49984 20.2263 7.49984 20.2263C7.49984 20.2263 11.4804 22.5516 13.7899 23.8066C16.168 25.0988 18.5504 26.3488 20.341 27.277C21.2356 27.7408 21.9808 28.1234 22.5018 28.3897C22.7623 28.5229 22.9666 28.627 23.1054 28.6976L23.3155 28.8042C23.3155 28.8042 23.316 28.8045 22.044 31.3787C20.7719 33.9528 20.7716 33.9527 20.7716 33.9527L20.7708 33.9522L20.5513 33.8409C20.4089 33.7685 20.2008 33.6624 19.9362 33.5272C19.4072 33.2567 18.6525 32.8692 17.7471 32.3999C15.9378 31.4619 13.5203 30.1936 11.0984 28.8776C8.6864 27.567 6.23035 26.1875 4.36112 25.0317C3.43644 24.4599 2.58967 23.9028 1.94934 23.4109C1.63846 23.172 1.29148 22.8846 0.995117 22.568C0.848368 22.4113 0.6474 22.1775 0.467684 21.8778C0.313634 21.6209 -2.3709e-09 21.0314 0 20.2263C2.3709e-09 19.4213 0.313634 18.8317 0.467684 18.5748C0.6474 18.2751 0.848368 18.0413 0.995117 17.8846C1.29148 17.568 1.63846 17.2806 1.94934 17.0418C2.58967 16.5498 3.43644 15.9927 4.36112 15.4209C6.23035 14.2651 8.6864 12.8857 11.0984 11.575C13.5203 10.259 15.9378 8.9907 17.7471 8.05275C18.6525 7.58339 19.4072 7.19588 19.9362 6.92542C20.2008 6.79018 20.4089 6.68416 20.5513 6.61177L20.7719 6.49978C20.7719 6.49978 20.7719 6.49978 22.044 9.07397L20.7719 6.49978ZM22.044 31.3787L20.7716 33.9527C22.1766 34.6635 23.8856 34.0874 24.5881 32.6657C25.2906 31.2441 24.7205 29.515 23.3155 28.8042L22.044 31.3787Z" fill="#5295F1"/>
<path fill-rule="evenodd" clip-rule="evenodd" d="M15.5657 2.19769C16.3451 3.57775 15.8713 5.3358 14.5073 6.12441L4.55198 11.8805C3.18805 12.6691 1.45054 12.1896 0.671153 10.8095C-0.108238 9.42947 0.365628 7.67141 1.72956 6.88281L11.6849 1.12676C13.0488 0.338156 14.7863 0.817625 15.5657 2.19769Z" fill="#5295F1"/>
<path d="M8.34307 20.2696C8.34307 19.7086 8.74523 19.501 8.74523 19.501H7.7774L7.07031 20.2696L7.91882 20.8844L8.90874 21.0382C8.90874 21.0382 8.34307 20.8305 8.34307 20.2696Z" fill="#5295F1"/>
<path d="M15.5558 21.6527C14.471 21.0995 14.471 19.4389 15.5558 18.8858L21.4604 16.1047C22.3982 15.6265 23.4752 16.3704 23.4752 17.4964V23.042C23.4752 24.168 22.3982 24.9119 21.4604 24.4337L15.5558 21.6527Z" fill="#5295F1"/>
</g>
<path d="M44 11.088H47.888V27.888H44V11.088ZM51.131 19.632H57.923V22.632H51.131V19.632ZM69.2666 28.176C67.5546 28.176 66.0026 27.808 64.6106 27.072C63.2346 26.32 62.1466 25.288 61.3466 23.976C60.5626 22.648 60.1706 21.152 60.1706 19.488C60.1706 17.824 60.5626 16.336 61.3466 15.024C62.1466 13.696 63.2346 12.664 64.6106 11.928C66.0026 11.176 67.5626 10.8 69.2906 10.8C70.7466 10.8 72.0586 11.056 73.2266 11.568C74.4106 12.08 75.4026 12.816 76.2026 13.776L73.7066 16.08C72.5706 14.768 71.1626 14.112 69.4826 14.112C68.4426 14.112 67.5146 14.344 66.6986 14.808C65.8826 15.256 65.2426 15.888 64.7786 16.704C64.3306 17.52 64.1066 18.448 64.1066 19.488C64.1066 20.528 64.3306 21.456 64.7786 22.272C65.2426 23.088 65.8826 23.728 66.6986 24.192C67.5146 24.64 68.4426 24.864 69.4826 24.864C71.1626 24.864 72.5706 24.2 73.7066 22.872L76.2026 25.176C75.4026 26.152 74.4106 26.896 73.2266 27.408C72.0426 27.92 70.7226 28.176 69.2666 28.176ZM77.9435 19.632H84.7355V22.632H77.9435V19.632ZM103.353 11.088V27.888H100.161L91.7853 17.688V27.888H87.9453V11.088H91.1613L99.5133 21.288V11.088H103.353ZM119.712 21.48C119.712 21.528 119.688 21.864 119.64 22.488H109.872C110.048 23.288 110.464 23.92 111.12 24.384C111.776 24.848 112.592 25.08 113.568 25.08C114.24 25.08 114.832 24.984 115.344 24.792C115.872 24.584 116.36 24.264 116.808 23.832L118.8 25.992C117.584 27.384 115.808 28.08 113.472 28.08C112.016 28.08 110.728 27.8 109.608 27.24C108.488 26.664 107.624 25.872 107.016 24.864C106.408 23.856 106.104 22.712 106.104 21.432C106.104 20.168 106.4 19.032 106.992 18.024C107.6 17 108.424 16.208 109.464 15.648C110.52 15.072 111.696 14.784 112.992 14.784C114.256 14.784 115.4 15.056 116.424 15.6C117.448 16.144 118.248 16.928 118.824 17.952C119.416 18.96 119.712 20.136 119.712 21.48ZM113.016 17.616C112.168 17.616 111.456 17.856 110.88 18.336C110.304 18.816 109.952 19.472 109.824 20.304H116.184C116.056 19.488 115.704 18.84 115.128 18.36C114.552 17.864 113.848 17.616 113.016 17.616ZM130.533 27.264C130.165 27.536 129.709 27.744 129.165 27.888C128.637 28.016 128.077 28.08 127.485 28.08C125.949 28.08 124.757 27.688 123.909 26.904C123.077 26.12 122.661 24.968 122.661 23.448V18.144H120.669V15.264H122.661V12.12H126.405V15.264H129.621V18.144H126.405V23.4C126.405 23.944 126.541 24.368 126.813 24.672C127.101 24.96 127.501 25.104 128.013 25.104C128.605 25.104 129.109 24.944 129.525 24.624L130.533 27.264ZM153.136 14.976L148.456 27.888H144.856L141.952 19.872L138.952 27.888H135.352L130.696 14.976H134.224L137.272 23.712L140.44 14.976H143.608L146.68 23.712L149.824 14.976H153.136ZM160.669 28.08C159.309 28.08 158.085 27.8 156.997 27.24C155.925 26.664 155.085 25.872 154.477 24.864C153.869 23.856 153.565 22.712 153.565 21.432C153.565 20.152 153.869 19.008 154.477 18C155.085 16.992 155.925 16.208 156.997 15.648C158.085 15.072 159.309 14.784 160.669 14.784C162.029 14.784 163.245 15.072 164.317 15.648C165.389 16.208 166.229 16.992 166.837 18C167.445 19.008 167.749 20.152 167.749 21.432C167.749 22.712 167.445 23.856 166.837 24.864C166.229 25.872 165.389 26.664 164.317 27.24C163.245 27.8 162.029 28.08 160.669 28.08ZM160.669 25.008C161.629 25.008 162.413 24.688 163.021 24.048C163.645 23.392 163.957 22.52 163.957 21.432C163.957 20.344 163.645 19.48 163.021 18.84C162.413 18.184 161.629 17.856 160.669 17.856C159.709 17.856 158.917 18.184 158.293 18.84C157.669 19.48 157.357 20.344 157.357 21.432C157.357 22.52 157.669 23.392 158.293 24.048C158.917 24.688 159.709 25.008 160.669 25.008ZM173.828 16.68C174.276 16.056 174.876 15.584 175.628 15.264C176.396 14.944 177.276 14.784 178.268 14.784V18.24C177.852 18.208 177.572 18.192 177.428 18.192C176.356 18.192 175.516 18.496 174.908 19.104C174.3 19.696 173.996 20.592 173.996 21.792V27.888H170.252V14.976H173.828V16.68ZM186.038 22.824L184.238 24.6V27.888H180.494V10.08H184.238V20.16L189.71 14.976H194.174L188.798 20.448L194.654 27.888H190.118L186.038 22.824ZM196.244 14.976H199.988V27.888H196.244V14.976ZM198.116 13.176C197.428 13.176 196.868 12.976 196.436 12.576C196.004 12.176 195.788 11.68 195.788 11.088C195.788 10.496 196.004 10 196.436 9.6C196.868 9.2 197.428 9 198.116 9C198.804 9 199.364 9.192 199.796 9.576C200.228 9.96 200.444 10.44 200.444 11.016C200.444 11.64 200.228 12.16 199.796 12.576C199.364 12.976 198.804 13.176 198.116 13.176ZM211.311 14.784C212.911 14.784 214.199 15.264 215.175 16.224C216.167 17.184 216.663 18.608 216.663 20.496V27.888H212.919V21.072C212.919 20.048 212.695 19.288 212.247 18.792C211.799 18.28 211.151 18.024 210.303 18.024C209.359 18.024 208.607 18.32 208.047 18.912C207.487 19.488 207.207 20.352 207.207 21.504V27.888H203.463V14.976H207.039V16.488C207.535 15.944 208.151 15.528 208.887 15.24C209.623 14.936 210.431 14.784 211.311 14.784ZM233.517 14.976V25.728C233.517 28.096 232.901 29.856 231.669 31.008C230.437 32.16 228.637 32.736 226.269 32.736C225.021 32.736 223.837 32.584 222.717 32.28C221.597 31.976 220.669 31.536 219.933 30.96L221.421 28.272C221.965 28.72 222.653 29.072 223.485 29.328C224.317 29.6 225.149 29.736 225.981 29.736C227.277 29.736 228.229 29.44 228.837 28.848C229.461 28.272 229.773 27.392 229.773 26.208V25.656C228.797 26.728 227.437 27.264 225.693 27.264C224.509 27.264 223.421 27.008 222.429 26.496C221.453 25.968 220.677 25.232 220.101 24.288C219.525 23.344 219.237 22.256 219.237 21.024C219.237 19.792 219.525 18.704 220.101 17.76C220.677 16.816 221.453 16.088 222.429 15.576C223.421 15.048 224.509 14.784 225.693 14.784C227.565 14.784 228.989 15.4 229.965 16.632V14.976H233.517ZM226.437 24.192C227.429 24.192 228.237 23.904 228.861 23.328C229.501 22.736 229.821 21.968 229.821 21.024C229.821 20.08 229.501 19.32 228.861 18.744C228.237 18.152 227.429 17.856 226.437 17.856C225.445 17.856 224.629 18.152 223.989 18.744C223.349 19.32 223.029 20.08 223.029 21.024C223.029 21.968 223.349 22.736 223.989 23.328C224.629 23.904 225.445 24.192 226.437 24.192Z" fill="#5295F1"/>
<defs>
<clipPath id="clip0">
<rect width="25" height="35" fill="white"/>
</clipPath>
</defs>
</svg>
